{"glyphs":{"0":{"ha":560,"x_min":47,"x_max":525,"o":"m 47 338 q 50 399 47 363 q 58 472 52 434 q 75 547 64 510 q 106 613 87 583 q 152 661 125 643 q 217 680 179 680 q 353 650 294 680 q 449 572 411 621 q 506 457 487 522 q 525 320 525 392 q 519 255 525 290 q 502 184 514 220 q 471 115 490 148 q 429 56 453 81 q 372 14 404 30 q 300 -1 339 -1 q 178 31 227 -1 q 101 111 130 62 q 60 220 72 160 q 47 338 47 281 m 102 365 q 104 260 102 312 q 124 168 107 209 q 176 102 141 127 q 274 76 210 76 q 366 96 328 76 q 428 149 404 115 q 462 227 452 182 q 472 324 472 273 q 433 483 465 419 q 355 579 400 547 q 262 614 311 612 q 174 590 213 617 q 113 507 134 563 q 102 365 91 450 z "},"1":{"ha":526,"x_min":33,"x_max":503,"o":"m 38 50 q 77 58 64 56 q 100 61 91 60 q 115 62 109 62 q 133 64 122 62 q 162 68 144 65 q 214 79 180 71 q 233 163 227 115 q 244 267 240 212 q 250 380 248 321 q 254 495 252 438 q 258 606 255 552 q 266 703 260 659 q 260 703 264 703 q 254 704 255 704 q 199 692 225 704 q 146 665 172 680 q 94 639 121 651 q 38 627 68 627 l 33 677 q 50 685 34 677 q 92 703 66 693 q 149 726 117 713 q 212 751 180 739 q 271 772 243 762 q 319 785 298 781 l 319 103 q 355 89 331 91 q 405 88 378 87 q 458 91 431 90 q 503 88 484 92 l 502 33 q 392 27 446 33 q 284 16 338 22 q 177 4 231 9 q 71 -1 123 -1 q 52 15 56 -1 q 38 50 47 31 z "},"2":{"ha":656,"x_min":16,"x_max":621,"o":"m 254 79 q 187 54 217 58 q 119 50 157 50 q 86 52 104 50 q 52 62 68 54 q 26 82 37 69 q 16 118 16 95 q 43 137 16 132 q 112 150 71 142 q 201 172 153 157 q 291 220 250 187 q 360 312 332 254 q 388 463 388 370 q 381 545 388 502 q 357 623 374 587 q 307 682 339 658 q 225 705 275 705 q 189 696 205 705 q 159 673 172 686 q 133 644 145 661 q 106 614 121 628 q 75 592 92 601 q 34 583 58 583 q 51 652 34 620 q 96 707 68 684 q 158 745 123 731 q 228 758 193 758 q 326 731 282 758 q 401 662 370 704 q 448 569 431 620 q 464 469 464 518 q 450 376 464 422 q 414 286 437 330 q 364 203 392 243 q 307 130 336 164 q 376 90 336 104 q 458 66 416 75 q 542 55 500 58 q 618 52 583 52 q 621 45 620 50 q 621 39 621 41 q 610 16 621 24 q 585 3 600 7 q 553 -2 570 -1 q 526 -3 537 -3 q 457 4 490 -3 q 392 22 425 11 q 326 48 359 34 q 254 79 292 62 m 176 103 q 170 113 179 110 q 151 115 161 115 q 130 113 140 115 q 123 103 121 110 q 135 95 127 98 q 151 92 142 92 q 165 95 159 92 q 176 103 172 98 z "},"3":{"ha":560,"x_min":31,"x_max":534,"o":"m 66 81 q 112 77 90 81 q 157 66 134 72 q 202 55 179 60 q 250 50 225 50 q 337 64 294 50 q 412 106 380 79 q 464 172 445 133 q 483 262 483 212 q 467 326 483 297 q 424 376 450 355 q 365 408 397 396 q 301 419 332 419 q 287 419 296 419 q 270 418 278 419 q 256 417 262 418 q 248 416 250 416 q 234 412 245 416 q 210 404 222 408 q 184 395 197 399 q 170 391 172 391 q 163 393 167 391 q 154 400 159 396 q 146 409 149 404 q 144 416 144 414 q 175 447 152 425 q 223 494 198 469 q 270 541 248 518 q 300 572 292 563 q 314 591 305 579 q 331 616 323 604 q 345 638 339 628 q 351 651 351 648 q 321 708 343 694 q 268 718 298 722 q 203 695 237 713 q 136 656 168 677 q 75 616 103 635 q 31 591 47 598 q 59 671 31 636 q 127 732 87 707 q 216 770 168 757 q 302 783 263 783 q 339 771 321 783 q 372 742 357 760 q 395 703 387 724 q 404 665 404 682 q 397 619 404 643 q 378 573 389 595 q 353 530 368 551 q 327 494 339 510 q 399 463 362 483 q 467 416 437 444 q 515 352 496 388 q 534 274 534 316 q 515 165 534 216 q 460 77 495 114 q 376 18 425 39 q 270 -3 327 -3 q 222 -2 255 -3 q 154 4 189 -1 q 93 20 119 9 q 66 52 66 31 l 66 81 z "},"4":{"ha":600,"x_min":18,"x_max":575,"o":"m 319 521 q 302 522 315 521 q 286 522 290 522 q 220 517 254 522 q 153 506 186 511 q 86 495 119 500 q 18 490 53 490 q 23 597 18 544 q 35 703 28 650 q 47 810 42 757 q 52 917 52 864 q 65 914 57 917 q 80 907 73 911 q 92 896 87 902 q 98 884 98 890 l 98 579 q 115 577 99 579 q 155 574 132 575 q 204 572 178 572 q 253 574 231 571 q 291 582 275 576 q 307 600 307 587 l 307 891 q 322 888 311 891 q 345 881 334 886 q 363 871 355 876 q 372 860 372 865 l 372 612 l 575 612 q 568 583 571 597 q 564 562 567 572 q 559 547 562 551 q 498 536 532 538 q 437 534 465 534 q 389 534 408 533 q 368 534 369 534 l 372 26 l 319 26 l 319 521 z "},"5":{"ha":572,"x_min":26,"x_max":549,"o":"m 79 103 q 180 68 127 87 q 286 50 232 50 q 355 64 319 50 q 422 100 392 77 q 474 155 453 123 q 495 221 495 186 q 475 294 495 262 q 423 349 454 327 q 353 384 392 372 q 278 396 315 396 q 220 385 248 396 q 165 361 193 373 q 111 342 138 350 q 52 339 83 334 q 39 405 45 376 q 31 462 34 434 q 27 516 28 490 q 26 575 26 543 q 48 668 26 636 q 107 715 71 700 q 191 732 144 730 q 286 734 237 734 q 311 733 294 734 q 345 732 328 732 q 375 730 362 731 q 391 730 388 730 l 407 684 q 329 682 372 682 q 245 680 286 682 q 165 671 203 677 q 103 651 127 665 l 103 416 q 187 443 145 441 q 274 445 229 445 q 370 431 321 445 q 458 388 419 416 q 524 318 498 359 q 549 221 549 277 q 528 141 549 180 q 471 70 506 102 q 395 18 437 38 q 313 -1 353 -1 q 242 -1 282 -1 q 163 7 202 0 q 93 30 123 14 q 52 79 62 46 l 79 103 z "},"6":{"ha":593,"x_min":18,"x_max":567,"o":"m 18 275 q 34 382 22 317 q 66 517 46 448 q 113 649 85 586 q 174 750 140 712 l 228 703 q 182 644 203 680 q 142 568 160 609 q 112 485 125 528 q 90 402 99 442 q 75 328 80 362 q 71 274 71 294 q 75 240 71 267 q 87 182 79 213 q 107 126 95 151 q 137 102 119 102 q 143 102 138 102 q 149 103 148 103 q 183 189 164 146 q 229 265 202 232 q 291 320 255 298 q 377 342 327 342 q 444 336 410 342 q 505 317 477 331 q 549 276 532 302 q 567 209 567 250 q 539 102 567 144 q 466 35 511 60 q 361 3 420 11 q 240 -1 302 -5 q 144 24 186 -1 q 75 90 103 50 q 33 178 47 129 q 18 275 18 228 m 392 290 q 312 270 343 290 q 263 218 281 250 q 238 144 245 186 q 231 61 231 103 q 279 64 250 61 q 340 73 308 66 q 402 92 372 80 q 458 119 433 103 q 498 158 483 136 q 514 209 514 180 q 502 252 514 236 q 471 277 490 269 q 431 288 453 286 q 392 290 410 290 z "},"7":{"ha":769,"x_min":9,"x_max":742,"o":"m 461 258 q 380 251 416 258 q 300 233 345 244 l 283 286 l 457 339 q 460 357 457 339 q 467 404 463 376 q 477 470 472 433 q 488 545 483 507 q 499 617 494 582 q 509 677 505 652 q 508 686 510 681 q 506 693 506 692 q 450 695 490 693 q 364 699 410 697 q 278 703 319 701 q 221 703 237 704 q 159 698 193 701 q 100 681 125 694 q 68 638 76 667 q 83 555 61 609 q 78 553 83 555 q 68 549 73 551 q 58 545 62 547 q 53 543 53 543 q 26 559 35 543 q 14 600 18 576 q 11 646 11 623 q 11 680 11 669 q 10 696 11 684 q 12 721 9 708 q 20 744 14 734 q 39 754 26 754 l 590 754 q 583 650 590 701 q 567 549 575 600 q 552 445 559 498 q 545 339 545 392 l 742 339 l 742 312 l 509 260 l 509 0 q 462 14 475 -11 q 449 80 449 38 q 454 171 449 122 q 461 258 458 220 z "},"8":{"ha":526,"x_min":26,"x_max":498,"o":"m 127 160 q 136 218 127 190 q 155 271 145 245 q 174 323 165 297 q 183 378 183 349 q 182 384 183 380 q 182 391 182 388 q 149 417 175 396 q 96 467 123 438 q 47 527 69 495 q 26 585 26 559 q 44 662 26 629 q 93 716 62 694 q 161 748 123 738 q 237 758 198 758 q 270 753 250 758 q 313 739 290 749 q 359 717 336 730 q 397 689 381 704 q 420 657 414 674 q 416 624 426 640 l 312 442 q 326 431 312 442 q 359 404 339 420 q 404 366 380 387 q 449 323 429 345 q 484 283 469 302 q 498 251 498 263 q 474 155 498 201 q 413 73 450 109 q 329 18 376 38 q 233 -3 282 -3 q 176 11 197 -3 q 144 47 155 24 q 130 98 133 69 q 127 160 127 127 m 180 160 q 180 111 180 132 q 186 77 180 91 q 207 57 193 64 q 250 50 221 50 q 313 66 278 50 q 376 110 347 83 q 425 170 404 137 q 445 233 445 202 q 433 288 445 263 q 400 330 420 312 q 353 357 380 347 q 298 366 327 366 q 239 345 262 366 q 203 293 216 324 q 185 226 190 262 q 180 160 180 190 m 77 583 q 93 547 77 567 q 131 509 109 526 q 178 480 153 492 q 221 468 203 468 q 264 490 243 468 q 302 541 286 511 q 330 598 319 570 q 340 639 340 627 q 328 677 340 663 q 296 697 315 690 q 258 705 278 704 q 221 707 237 707 q 170 699 197 707 q 123 676 144 692 q 90 637 103 661 q 77 583 77 614 z "},"9":{"ha":488,"x_min":18,"x_max":437,"o":"m 332 442 q 284 400 307 416 q 239 375 262 384 q 193 363 217 366 q 137 359 168 359 q 92 363 113 359 q 54 378 71 368 q 27 406 37 388 q 18 452 18 425 q 33 538 18 498 q 75 611 47 579 q 142 661 103 643 q 228 680 180 680 q 277 676 245 680 q 338 663 308 673 q 390 639 368 654 q 410 600 412 624 q 428 334 419 469 q 437 66 437 199 q 437 52 437 62 q 437 32 437 42 q 437 12 437 22 q 437 0 437 3 q 390 10 404 -11 q 372 71 376 31 q 372 162 369 110 q 373 267 374 214 q 364 366 372 319 q 332 442 357 412 m 71 454 q 77 433 71 441 q 94 420 84 425 q 116 416 104 416 q 138 415 127 415 q 184 419 164 415 q 223 432 205 423 q 262 456 241 441 q 307 494 282 472 q 307 503 307 498 q 307 515 307 509 q 309 526 308 521 q 309 534 309 532 q 283 604 309 579 q 214 628 258 628 q 157 612 183 628 q 111 570 130 595 q 81 514 92 545 q 71 454 71 483 z "}," ":{"ha":521,"x_min":0,"x_max":0,"o":""},"!":{"ha":214,"x_min":18,"x_max":205,"o":"m 137 -3 q 92 41 104 18 q 82 85 80 64 q 98 121 84 106 q 130 138 111 136 q 168 128 148 141 q 205 79 189 115 q 200 51 205 65 q 186 25 195 37 q 165 5 178 14 q 137 -3 152 -3 m 149 79 q 141 75 144 79 q 138 64 138 71 q 141 54 138 58 q 149 52 144 50 q 161 64 161 54 q 149 79 161 75 m 18 882 q 20 899 18 894 q 28 904 22 903 q 45 905 34 905 q 72 911 56 906 l 149 286 q 137 282 146 285 q 123 279 127 279 q 98 286 107 279 q 83 303 88 292 q 77 330 79 315 q 72 363 75 346 q 68 399 71 370 q 60 469 65 427 q 49 562 54 511 q 38 663 43 613 q 27 758 33 713 q 19 833 22 803 q 18 840 19 833 q 18 857 18 848 q 18 873 18 865 q 18 882 18 880 z "},"\"":{"ha":293,"x_min":26,"x_max":260,"o":"m 180 859 q 180 884 180 869 q 185 912 180 899 q 199 935 190 925 q 227 944 209 944 q 228 916 227 936 q 230 875 229 897 q 232 834 231 853 q 233 807 233 815 q 238 793 233 804 q 248 768 243 781 q 256 744 252 755 q 260 730 260 732 q 257 722 260 726 q 250 713 254 718 q 241 706 245 709 q 233 703 237 703 q 205 744 216 726 q 189 780 194 762 q 182 816 183 798 q 180 859 180 834 m 26 819 q 28 863 26 837 q 39 912 30 888 q 63 953 47 936 q 103 970 79 970 l 103 739 q 46 762 66 739 q 26 819 26 784 z "},"#":{"ha":749,"x_min":14,"x_max":718,"o":"m 294 227 q 280 161 282 191 q 280 107 278 132 q 285 66 282 83 q 282 42 288 50 q 260 36 277 34 q 209 52 244 38 l 209 209 l 39 209 q 73 239 47 225 q 125 264 98 254 q 174 280 152 274 q 197 286 195 286 q 201 343 202 315 q 201 397 201 372 q 201 441 201 422 q 210 469 202 460 l 14 469 l 14 494 l 262 547 l 262 789 q 277 787 270 787 q 288 783 282 784 q 300 781 294 783 q 307 777 302 780 q 316 768 312 773 q 323 760 320 764 q 327 754 327 755 l 327 572 l 444 572 l 444 781 l 481 781 l 506 605 l 718 600 q 712 590 716 597 q 703 576 708 583 q 694 563 699 568 q 688 556 689 557 q 652 548 677 553 q 598 537 627 543 q 544 527 570 532 q 509 521 518 522 l 509 363 l 718 363 l 718 339 q 675 330 705 336 q 612 314 644 323 q 549 298 579 305 q 509 286 519 290 q 496 281 503 285 q 484 274 490 278 q 473 266 477 270 q 469 260 469 262 l 469 26 l 418 26 l 418 233 q 407 233 418 233 q 380 233 396 233 q 345 231 363 232 q 313 229 327 229 q 293 227 300 228 q 294 227 286 227 m 430 514 q 347 500 376 514 q 305 458 317 486 q 292 391 293 430 q 290 305 290 353 q 307 306 294 305 q 334 308 320 307 q 361 310 349 309 q 378 312 373 311 q 393 317 384 313 q 410 325 401 320 q 424 333 418 330 q 430 339 430 336 l 430 514 z "},"$":{"ha":651,"x_min":9,"x_max":636,"o":"m 361 34 q 271 39 323 37 q 170 51 220 42 q 75 80 119 60 q 9 138 31 100 l 35 164 q 108 119 72 129 q 180 111 144 109 q 257 121 217 114 q 345 129 297 129 q 345 142 345 133 q 347 159 346 151 q 347 177 347 168 q 347 190 347 186 q 343 237 347 203 q 335 307 339 270 q 327 378 331 345 q 321 425 323 412 q 298 452 319 446 q 249 460 278 458 q 186 462 220 461 q 125 471 153 463 q 79 502 98 480 q 60 567 60 524 q 81 660 60 623 q 134 726 103 697 q 199 779 164 754 q 258 832 233 803 q 295 899 283 861 q 292 994 307 937 q 324 1010 317 1010 q 333 994 331 1010 q 339 943 335 978 q 361 857 343 909 q 406 838 377 849 q 464 816 435 827 q 513 791 492 804 q 533 765 533 779 q 529 733 533 747 q 505 711 525 719 q 476 740 491 730 q 446 754 461 750 q 412 758 430 758 q 374 757 393 757 l 374 529 q 473 518 426 530 q 557 479 521 506 q 614 410 593 453 q 636 308 636 368 q 614 231 636 273 q 559 152 593 189 q 488 90 526 115 q 414 60 449 64 l 414 -122 l 361 -122 l 361 34 m 393 468 q 399 302 393 382 q 426 138 404 221 q 433 136 429 137 q 439 136 437 136 q 484 159 460 136 q 529 212 507 182 q 565 273 551 243 q 582 320 579 304 q 569 389 587 361 q 522 435 551 416 q 457 460 492 453 q 393 468 422 468 m 113 567 q 120 540 113 552 q 138 519 127 528 q 162 506 148 510 q 189 502 176 502 q 233 503 213 502 q 267 511 252 505 q 290 533 282 518 q 298 574 298 548 q 296 622 298 600 q 292 667 294 644 q 283 713 289 689 q 270 764 278 736 q 251 748 264 760 q 220 721 237 736 q 183 686 202 705 q 149 647 164 667 q 123 606 133 627 q 113 567 113 586 z "},"%":{"ha":475,"x_min":19,"x_max":434,"o":"m 384 807 l 434 807 l 66 9 l 19 26 l 384 807 m 332 209 q 342 222 332 213 q 358 233 353 232 q 401 229 387 241 q 418 199 415 217 q 414 163 420 180 q 395 140 407 145 q 366 149 382 136 q 332 209 349 163 m 71 690 q 71 713 71 701 q 76 734 72 724 q 88 749 80 743 q 111 755 96 755 q 144 739 136 755 q 153 701 153 722 q 142 657 153 673 q 98 624 132 642 q 80 635 85 628 q 73 652 75 643 q 71 671 71 661 q 71 690 71 681 z "},"&":{"ha":690,"x_min":45,"x_max":697,"o":"m 567 159 q 438 41 514 81 q 270 0 362 0 q 180 10 221 0 q 109 43 140 20 q 62 104 79 66 q 45 198 45 142 q 57 275 45 232 q 89 362 69 319 q 135 442 109 406 q 191 498 161 479 q 153 718 153 628 q 176 867 153 808 q 239 954 199 925 q 319 993 278 983 q 385 979 354 993 q 440 941 416 966 q 477 886 464 917 q 490 822 490 856 q 470 720 490 770 q 419 625 450 670 q 351 541 388 581 q 279 471 315 502 q 278 458 278 468 q 278 445 278 448 q 298 363 278 408 q 350 279 319 319 q 419 214 381 240 q 492 189 457 189 q 491 269 492 231 q 475 334 490 307 q 427 378 460 362 q 332 392 395 393 l 332 419 q 359 431 332 426 q 421 439 385 437 q 492 444 457 442 q 545 445 526 445 q 563 446 551 445 q 587 445 575 446 q 607 438 598 444 q 618 419 616 433 l 697 -206 l 654 -250 l 567 159 m 123 106 q 198 56 152 71 q 294 47 244 42 q 389 75 343 53 q 463 132 435 96 q 385 184 426 148 q 309 260 345 220 q 244 338 273 301 q 202 392 216 376 q 149 332 165 365 q 125 263 132 300 q 121 187 119 227 q 123 106 122 148 m 567 315 l 567 392 l 514 392 l 567 315 m 225 704 q 225 663 225 682 q 228 625 225 643 q 236 587 231 606 q 254 549 241 568 q 311 597 278 568 q 371 660 343 625 q 418 732 399 694 q 438 808 438 770 q 431 848 438 825 q 412 891 425 871 q 382 926 399 911 q 347 941 365 941 q 277 916 302 941 q 241 853 252 890 q 227 775 229 817 q 225 704 225 734 z "},"'":{"ha":123,"x_min":19,"x_max":100,"o":"m 19 937 q 30 954 19 944 q 46 963 41 963 q 90 905 80 941 q 99 831 99 869 q 100 812 99 823 q 99 789 100 800 q 92 768 98 777 q 72 754 85 758 q 52 784 61 758 q 35 841 42 810 q 23 901 27 872 q 19 937 19 929 z "},"(":{"ha":307,"x_min":5,"x_max":266,"o":"m 5 327 q 10 424 5 368 q 26 544 15 480 q 55 673 37 608 q 99 800 73 739 q 160 909 125 860 q 241 990 195 959 q 254 995 244 991 q 266 998 263 998 l 266 963 q 201 848 229 901 q 152 746 172 795 q 118 652 132 697 q 96 557 104 606 q 85 452 88 507 q 83 327 83 396 q 91 226 83 275 q 109 128 99 176 q 128 31 119 80 q 137 -68 137 -18 q 132 -88 137 -80 q 111 -104 127 -96 q 72 -3 91 -57 q 38 106 53 50 q 14 218 23 161 q 5 327 5 274 z "},")":{"ha":312,"x_min":5,"x_max":270,"o":"m 110 -117 q 115 -95 110 -103 q 136 -79 121 -87 q 181 41 164 -11 q 206 139 198 92 q 216 234 214 186 q 218 346 218 282 q 210 523 218 437 q 179 690 202 609 q 115 846 156 770 q 5 990 73 921 q 16 1005 5 996 q 33 1015 27 1015 q 43 1012 35 1015 q 59 1006 50 1009 q 75 998 68 1002 q 84 990 83 993 q 182 847 145 921 q 238 694 218 773 q 264 532 258 616 q 270 362 270 449 q 270 283 270 328 q 268 186 270 237 q 259 84 266 136 q 237 -14 252 33 q 198 -98 222 -60 q 136 -157 174 -136 q 115 -140 121 -149 q 110 -117 110 -132 z "},"*":{"ha":319,"x_min":14,"x_max":278,"o":"m 170 391 q 157 372 165 382 q 136 351 148 361 q 109 334 123 340 q 83 327 95 327 q 81 370 83 345 q 73 420 79 396 q 52 465 66 445 q 14 494 38 486 q 60 508 42 499 q 88 526 77 517 q 105 547 99 536 q 119 572 111 559 q 138 598 127 585 q 170 624 149 612 q 196 608 189 618 q 205 584 203 597 q 206 559 206 571 q 212 536 206 547 q 231 519 217 526 q 278 513 245 513 q 276 504 278 510 q 274 494 274 498 q 269 485 273 492 q 260 469 264 477 q 252 452 255 460 q 248 442 248 445 q 252 428 248 439 q 261 404 256 416 q 270 379 266 391 q 274 363 274 368 q 274 353 274 363 q 274 339 274 343 q 274 325 274 335 q 274 312 274 315 l 170 391 z "},"+":{"ha":430,"x_min":9,"x_max":404,"o":"m 9 433 l 170 442 l 170 605 q 212 610 195 613 q 239 595 229 606 q 252 565 248 583 q 256 527 255 547 q 254 488 256 507 q 248 457 251 469 l 404 457 l 404 416 q 322 406 358 412 q 262 382 286 400 q 227 329 237 363 q 221 233 217 294 q 209 233 221 233 q 182 231 197 232 q 157 230 168 231 q 145 229 145 229 q 150 279 144 258 q 161 316 156 300 q 168 344 167 332 q 155 362 168 355 q 110 372 141 369 q 20 376 79 376 l 9 433 z "},",":{"ha":163,"x_min":22,"x_max":130,"o":"m 75 1 q 66 14 73 5 q 52 31 60 23 q 35 46 43 39 q 22 54 26 53 q 38 76 30 71 q 60 81 46 81 q 114 65 98 81 q 130 15 130 49 q 113 -53 130 -27 q 47 -102 95 -79 q 46 -90 46 -99 q 46 -76 46 -80 q 46 -62 46 -72 q 47 -50 46 -52 q 52 -40 47 -47 q 62 -24 57 -33 q 71 -7 66 -15 q 75 1 75 0 z "},"-":{"ha":528,"x_min":19,"x_max":492,"o":"m 46 312 q 77 318 46 313 q 155 328 107 323 q 262 339 202 334 q 382 350 321 345 q 404 351 388 350 q 437 352 420 351 q 470 353 454 353 q 492 354 486 354 q 485 321 492 336 q 461 298 477 307 q 380 290 429 294 q 279 279 331 285 q 179 269 228 274 q 98 260 130 263 q 85 260 95 260 q 69 259 75 259 q 39 262 52 259 q 19 286 27 264 l 46 312 z "},".":{"ha":201,"x_min":43,"x_max":174,"o":"m 43 52 q 44 83 38 72 q 61 100 50 95 q 85 106 72 106 q 110 107 99 107 q 133 106 119 107 q 157 100 146 106 q 174 83 168 95 q 174 52 179 72 q 165 33 172 42 q 150 16 159 24 q 130 3 141 8 q 110 -3 119 -3 q 88 3 99 -3 q 68 16 77 8 q 52 33 58 24 q 43 52 46 42 z "},"/":{"ha":293,"x_min":5,"x_max":266,"o":"m 214 730 q 221 748 217 738 q 231 762 225 758 q 245 759 237 765 q 266 730 254 753 l 46 -15 l 5 26 l 214 730 z "},":":{"ha":213,"x_min":37,"x_max":172,"o":"m 88 156 q 98 193 88 176 q 130 209 107 209 q 163 192 153 209 q 172 155 172 175 q 162 117 172 132 q 117 103 152 103 q 100 109 106 103 q 92 123 95 115 q 89 141 90 132 q 88 156 88 151 m 37 481 q 42 502 37 494 q 60 513 47 510 q 92 511 72 515 q 142 494 113 507 q 115 457 129 473 q 79 441 100 441 q 49 453 61 441 q 37 481 37 465 z "},";":{"ha":180,"x_min":30,"x_max":164,"o":"m 111 -104 q 107 -85 111 -100 q 98 -52 103 -69 q 90 -20 94 -35 q 84 0 85 -4 q 83 16 83 3 q 83 33 83 30 q 119 20 103 33 q 145 -12 136 7 q 159 -53 155 -31 q 164 -92 164 -75 q 157 -125 164 -109 q 139 -155 151 -141 q 113 -179 127 -170 q 80 -189 98 -189 q 81 -173 80 -186 q 84 -157 83 -160 q 90 -147 85 -155 q 98 -131 94 -140 q 107 -115 103 -122 q 111 -104 111 -107 m 30 313 q 41 357 30 342 q 84 391 52 373 q 102 380 96 388 q 111 361 109 372 q 114 341 114 351 q 114 323 114 331 q 113 298 114 309 q 107 278 113 286 q 90 265 102 270 q 58 260 79 260 q 42 267 47 260 q 34 281 37 273 q 31 298 31 290 q 30 313 30 307 z "},"<":{"ha":488,"x_min":43,"x_max":463,"o":"m 43 221 q 44 229 43 224 q 46 233 45 233 l 332 624 l 363 624 q 349 555 363 591 q 313 482 335 518 q 262 412 290 446 q 207 349 233 378 q 158 297 180 320 q 123 260 136 274 l 123 209 q 158 195 136 205 q 209 172 180 184 q 268 145 237 159 q 327 118 298 132 q 378 94 355 104 q 410 79 400 83 q 422 69 414 76 q 438 54 430 62 q 454 38 446 46 q 463 26 461 30 q 446 4 454 9 q 425 -1 438 -1 q 381 14 414 -1 q 307 51 349 28 q 218 100 264 73 q 134 151 172 126 q 69 195 95 176 q 43 221 43 214 z "},"=":{"ha":475,"x_min":69,"x_max":442,"o":"m 75 176 q 120 184 88 180 q 191 193 152 189 q 272 199 229 197 q 351 201 315 201 q 412 199 387 202 q 442 189 437 197 l 442 156 q 422 155 442 156 q 369 154 401 155 q 295 152 336 153 q 214 149 254 151 q 138 144 174 148 q 79 138 102 141 q 77 144 77 138 q 77 157 77 151 q 77 170 77 164 q 75 176 76 176 m 69 319 q 147 329 103 323 q 238 339 191 335 q 332 346 285 343 q 425 349 380 349 l 425 294 l 69 279 l 69 319 z "},">":{"ha":442,"x_min":39,"x_max":433,"o":"m 351 363 l 39 624 l 39 703 q 73 675 50 693 q 123 633 95 656 q 182 585 152 610 q 241 536 213 559 q 292 496 270 514 q 327 469 315 477 q 357 452 339 460 q 391 435 374 445 q 420 412 408 425 q 433 378 433 399 q 432 371 433 376 q 430 363 431 366 q 403 325 420 351 q 362 265 385 298 q 313 195 339 232 q 264 124 288 157 q 223 64 241 91 q 197 26 205 38 q 174 2 184 11 q 144 -7 163 -7 l 144 52 l 351 363 z "},"?":{"ha":437,"x_min":0,"x_max":418,"o":"m 208 39 q 213 62 208 54 q 233 79 218 71 q 256 62 250 71 q 262 39 262 54 q 256 16 262 24 q 233 0 250 8 q 213 16 218 8 q 208 39 208 24 m 155 404 q 170 454 155 434 q 210 490 186 475 q 261 519 233 506 q 312 549 289 533 q 351 586 335 564 q 368 639 368 608 q 353 674 368 661 q 317 694 338 688 q 273 703 296 701 q 235 705 250 705 q 180 693 206 705 q 130 665 155 681 q 83 636 106 648 q 39 624 61 624 q 16 630 24 624 q 0 651 8 636 q 42 698 18 678 q 95 731 66 718 q 155 751 123 745 q 217 758 186 758 q 275 752 241 758 q 341 732 309 746 q 395 695 373 718 q 418 639 418 673 q 395 566 418 604 q 341 494 372 528 q 277 433 311 460 q 221 391 243 406 l 221 269 q 183 283 197 269 q 163 319 170 298 q 156 364 157 340 q 155 404 155 388 z "},"@":{"ha":958,"x_min":26,"x_max":917,"o":"m 26 347 q 45 484 26 418 q 100 611 65 551 q 185 722 136 671 q 294 808 235 772 q 420 865 353 845 q 559 886 487 886 q 650 875 604 886 q 740 844 697 864 q 819 793 783 823 q 880 726 856 764 q 915 644 905 689 q 917 547 925 598 q 900 447 917 490 q 860 366 883 404 q 814 290 837 327 q 781 209 792 254 q 783 197 780 205 q 789 180 785 189 q 798 165 793 172 q 807 156 803 157 q 731 79 769 110 q 652 31 693 49 q 563 5 610 12 q 457 -3 515 -3 q 300 17 377 -3 q 161 79 222 37 q 63 187 100 121 q 26 347 26 254 m 99 363 q 124 220 95 279 q 205 125 153 160 q 326 77 258 90 q 465 75 395 65 q 535 75 498 75 q 609 82 572 75 q 677 106 646 90 q 730 156 709 123 q 699 152 720 153 q 652 151 677 151 q 604 152 627 151 q 572 156 582 153 q 553 170 567 157 q 522 196 538 182 q 489 222 505 210 q 469 233 473 233 q 439 227 463 233 q 390 210 416 220 q 341 192 363 201 q 312 182 319 183 q 272 190 290 176 q 239 225 254 203 q 217 272 225 247 q 209 312 209 297 q 227 410 209 355 q 277 511 245 464 q 351 592 308 559 q 442 625 393 625 q 499 612 475 625 q 541 578 524 600 q 566 528 557 556 q 574 469 574 500 q 570 422 574 445 q 560 377 566 400 q 551 330 555 354 q 547 283 547 307 q 551 256 547 270 q 563 232 555 243 q 583 214 571 221 q 610 208 595 208 q 727 240 680 208 q 805 322 774 273 q 848 432 836 372 q 861 548 861 492 q 840 669 861 616 q 778 759 818 722 q 682 816 738 796 q 557 836 627 836 q 374 796 458 836 q 229 691 290 757 q 134 541 168 625 q 99 363 99 456 m 505 555 q 392 531 437 555 q 321 467 347 507 q 283 370 294 426 q 271 254 271 315 q 391 276 345 254 q 462 338 437 298 q 496 434 487 378 q 505 555 505 490 z "},"A":{"ha":540,"x_min":28,"x_max":507,"o":"m 244 845 q 332 816 294 845 q 397 738 369 787 q 444 625 425 689 q 475 492 463 562 q 494 351 487 422 q 503 217 500 279 q 507 104 506 155 q 507 26 507 54 l 475 26 l 423 312 q 393 320 416 319 q 337 319 369 321 q 268 311 305 316 q 197 304 231 307 q 137 303 164 302 q 98 312 110 304 l 98 26 l 28 26 q 29 41 28 30 q 30 65 30 53 q 31 88 30 77 q 33 103 33 99 q 45 262 41 182 q 57 419 50 343 q 75 564 64 495 q 109 690 87 633 q 163 786 130 746 q 244 845 195 826 m 266 783 q 207 758 231 783 q 168 692 183 732 q 145 604 153 652 q 134 508 137 555 q 131 421 132 461 q 130 359 130 381 q 266 370 197 359 q 396 391 335 380 q 398 408 397 396 q 399 435 399 420 q 401 464 400 450 q 401 481 401 477 q 397 567 401 526 q 378 646 392 608 q 337 719 363 685 q 266 783 311 753 z "},"B":{"ha":665,"x_min":26,"x_max":627,"o":"m 66 677 q 54 685 61 678 q 40 700 46 692 q 30 716 34 708 q 26 730 26 724 q 59 797 30 774 q 126 827 88 819 q 205 836 164 836 q 274 836 245 836 q 361 831 321 836 q 431 809 401 826 q 479 761 461 792 q 496 675 496 730 q 494 627 496 648 q 487 587 492 606 q 471 545 481 567 q 442 494 460 522 q 534 460 498 476 q 591 422 571 445 q 619 368 612 400 q 627 286 627 336 q 601 174 627 227 q 532 81 575 121 q 433 20 490 42 q 312 -3 376 -3 q 275 2 298 -3 q 225 14 252 7 q 170 32 198 22 q 118 54 141 42 q 81 79 95 66 q 66 103 66 91 l 66 677 m 156 363 q 153 296 159 331 q 144 228 148 260 q 141 166 140 195 q 157 114 142 137 q 206 74 172 91 q 300 50 240 57 q 399 68 350 50 q 488 119 449 87 q 551 195 526 151 q 575 292 575 239 q 563 351 575 327 q 530 391 551 376 q 482 414 510 407 q 423 420 454 420 q 353 418 384 420 q 291 410 321 416 q 229 393 260 404 q 156 363 197 381 m 129 505 q 130 482 129 494 q 135 462 132 471 q 146 447 138 453 q 168 441 155 441 q 263 458 214 441 q 352 507 312 476 q 418 581 392 538 q 445 677 445 624 q 442 692 445 682 q 430 713 439 703 q 401 734 420 724 q 351 751 382 745 q 271 760 319 758 q 156 754 224 761 q 150 736 153 751 q 143 699 146 722 q 138 650 140 677 q 134 597 136 624 q 130 547 132 571 q 129 505 129 522 z "},"C":{"ha":591,"x_min":18,"x_max":567,"o":"m 18 351 q 26 446 18 393 q 53 551 35 498 q 97 656 71 605 q 158 747 123 707 q 237 811 193 787 q 334 836 281 836 q 398 821 372 836 q 441 781 425 806 q 465 726 457 757 q 472 665 472 696 q 427 683 442 665 q 399 724 412 701 q 370 764 387 746 q 319 783 353 783 q 239 758 274 783 q 179 695 205 734 q 136 608 153 656 q 109 510 119 559 q 95 416 99 461 q 91 339 91 370 q 90 243 85 293 q 113 153 95 194 q 164 83 130 111 q 254 52 198 56 q 332 63 289 52 q 418 90 376 75 q 500 124 461 106 q 567 156 540 142 l 567 103 q 550 97 566 103 q 509 81 534 91 q 452 61 484 72 q 389 39 420 50 q 329 17 358 27 q 279 0 300 7 q 274 -1 278 0 q 267 -1 270 -1 q 144 31 193 -1 q 68 113 96 62 q 28 227 39 164 q 18 351 18 290 z "},"D":{"ha":730,"x_min":26,"x_max":704,"o":"m 52 677 q 45 686 49 680 q 37 702 41 693 q 29 718 33 711 q 26 730 26 726 q 37 749 26 742 q 61 757 47 755 q 87 758 75 758 q 103 758 100 758 q 115 758 107 758 q 131 756 122 757 q 146 755 140 755 q 156 754 153 754 q 258 716 201 738 q 377 666 316 694 q 496 602 438 637 q 601 520 555 566 q 675 420 647 475 q 704 300 704 366 q 682 197 704 243 q 625 119 661 152 q 541 62 589 85 q 444 24 494 38 q 345 3 395 9 q 251 -4 294 -4 q 218 -3 241 -4 q 171 -1 195 -3 q 127 1 146 0 q 106 1 107 1 l 103 52 l 52 677 m 129 684 q 129 673 129 681 q 130 654 129 665 q 130 636 130 644 q 130 624 130 628 q 134 559 132 604 q 138 457 136 514 q 143 338 140 400 q 149 220 146 277 q 154 119 152 164 q 156 52 156 73 q 182 51 164 52 q 221 50 201 50 q 260 48 241 49 q 286 47 278 47 q 410 63 349 47 q 519 111 471 79 q 597 193 567 142 q 628 316 628 244 q 604 417 628 369 q 539 506 579 465 q 448 579 499 547 q 341 635 396 612 q 231 671 286 659 q 129 684 176 684 z "},"E":{"ha":684,"x_min":19,"x_max":658,"o":"m 19 730 q 77 783 41 761 q 157 821 113 806 q 252 844 201 836 q 351 856 302 852 q 446 861 400 860 q 528 863 492 863 q 540 862 530 863 q 560 861 549 861 q 580 860 571 860 q 593 860 589 860 q 587 819 598 830 q 557 805 575 807 q 518 806 538 803 q 488 807 498 810 q 446 800 475 806 q 381 786 416 793 q 306 770 346 779 q 230 753 266 761 q 165 739 194 746 q 123 730 137 732 q 99 709 102 722 q 96 681 96 697 q 100 617 96 652 q 108 547 103 582 q 117 484 113 513 q 123 442 122 456 q 144 441 129 441 q 164 441 159 441 q 225 446 195 441 q 285 458 255 452 q 346 470 315 465 q 410 475 377 475 l 410 425 q 372 422 396 425 q 318 415 347 420 q 259 404 289 410 q 205 391 229 397 q 165 377 180 384 q 149 363 149 370 l 149 81 q 276 85 213 81 q 403 94 339 90 q 530 103 467 99 q 658 107 594 107 q 647 81 658 91 q 622 64 636 71 q 591 56 608 58 q 567 52 575 53 q 533 47 562 50 q 463 39 505 45 q 369 28 420 34 q 267 18 317 23 q 172 7 217 12 q 98 0 127 3 q 85 -1 94 -1 q 74 366 85 180 q 19 730 62 551 z "},"F":{"ha":559,"x_min":19,"x_max":624,"o":"m 46 703 q 37 711 42 704 q 27 726 31 718 q 20 742 23 734 q 19 754 18 750 q 27 768 20 760 q 42 785 34 776 q 58 800 50 793 q 72 807 66 807 q 123 820 88 811 q 201 840 157 829 q 292 861 244 850 q 385 882 340 872 q 463 901 429 892 q 514 911 498 909 q 536 914 521 913 q 570 917 552 916 q 603 920 587 918 q 624 921 618 921 q 618 884 624 895 q 600 868 612 872 q 574 864 589 864 q 540 860 559 864 q 495 848 526 856 q 426 829 464 840 q 345 808 388 819 q 264 787 302 798 q 195 767 225 776 q 149 754 164 758 q 126 712 129 731 q 123 667 123 693 q 131 557 123 609 q 149 442 138 505 q 157 441 152 442 q 164 441 161 441 q 235 450 201 441 q 304 469 270 458 q 375 489 339 480 q 449 498 411 498 q 467 497 454 498 q 492 493 480 496 q 511 484 505 490 q 514 469 518 479 l 164 363 l 164 -8 q 126 -2 140 -8 q 107 16 113 4 q 100 43 102 27 q 98 79 99 58 q 91 151 95 102 q 82 261 87 199 q 72 391 77 323 q 61 520 66 458 q 52 631 56 582 q 46 703 47 680 z "},"G":{"ha":762,"x_min":26,"x_max":731,"o":"m 651 90 q 557 46 598 62 q 479 21 517 30 q 402 9 441 12 q 313 7 363 7 q 194 22 247 7 q 104 70 141 38 q 46 151 66 102 q 26 271 26 201 q 39 406 26 335 q 77 546 52 476 q 139 680 102 616 q 227 793 176 745 q 339 871 277 842 q 477 901 401 901 q 545 895 506 901 q 621 874 585 888 q 681 833 656 860 q 705 766 705 807 q 691 752 705 751 q 656 762 677 753 q 608 787 635 772 q 557 815 582 802 q 513 838 533 829 q 481 845 492 848 q 363 820 416 845 q 268 753 311 795 q 193 656 225 711 q 140 541 161 601 q 109 422 119 481 q 99 311 99 363 q 106 200 90 247 q 157 123 123 153 q 239 77 191 92 q 337 60 286 62 q 438 70 388 58 q 530 104 488 81 q 597 161 571 127 q 628 237 624 195 q 611 311 628 281 q 566 361 594 340 q 503 393 538 381 q 429 412 467 406 q 355 422 392 419 q 286 429 317 425 l 286 453 q 322 463 286 456 q 408 477 358 469 q 510 494 457 486 q 600 506 563 502 q 606 507 600 506 q 621 507 613 507 q 637 507 629 507 q 651 507 646 507 q 661 507 654 507 q 677 507 669 507 q 692 507 685 507 q 703 506 700 506 q 706 446 704 487 q 711 353 708 404 q 716 245 713 302 q 722 138 719 189 q 726 46 724 87 q 730 -15 728 5 q 730 -35 730 -20 q 730 -67 730 -50 q 731 -98 731 -84 q 731 -119 731 -113 l 703 -119 l 651 90 m 651 376 l 651 458 q 609 448 631 458 q 572 429 587 438 l 651 376 z "},"H":{"ha":524,"x_min":30,"x_max":449,"o":"m 30 273 q 31 457 30 370 q 35 629 31 544 q 43 801 38 713 q 58 990 49 888 l 98 990 l 98 469 l 393 469 q 392 574 392 518 q 391 688 392 631 q 389 801 389 746 q 388 905 388 856 q 388 990 388 954 q 388 1047 388 1027 q 402 1045 392 1047 q 422 1040 412 1043 q 441 1030 433 1036 q 449 1015 449 1024 l 449 -1 l 407 7 q 403 24 404 7 q 401 68 401 42 q 399 130 400 95 q 398 197 399 164 q 397 260 397 231 q 396 311 396 290 q 396 362 396 330 q 395 437 396 395 l 98 384 l 95 -3 l 30 -3 q 30 16 30 -1 q 30 60 30 34 q 30 119 30 87 q 30 180 30 151 q 30 235 30 210 q 30 273 30 259 z "},"I":{"ha":136,"x_min":19,"x_max":111,"o":"m 19 954 q 31 980 19 970 q 58 990 42 990 q 65 990 60 990 q 72 990 71 990 q 84 774 79 876 q 93 572 90 671 q 98 375 96 473 q 99 170 99 277 q 101 129 99 155 q 105 79 103 103 q 109 35 107 54 q 111 14 111 15 l 53 3 q 47 131 50 58 q 43 286 45 203 q 39 455 41 368 q 33 628 37 543 q 26 793 30 713 q 19 937 23 872 l 19 954 z "},"J":{"ha":612,"x_min":26,"x_max":593,"o":"m 26 209 q 28 240 26 227 q 52 260 30 254 q 85 231 75 251 q 104 187 96 212 q 117 137 111 163 q 136 91 123 111 q 171 59 148 71 q 233 52 194 47 q 353 77 304 58 q 433 122 401 95 q 484 186 465 149 q 511 267 502 222 q 522 364 519 312 q 524 476 524 416 q 515 597 524 537 q 496 715 506 656 q 477 833 486 774 q 468 952 468 892 q 469 964 468 959 q 475 970 469 968 q 492 971 481 972 q 521 963 502 970 q 527 945 522 962 q 537 902 532 928 q 548 845 543 876 q 558 783 553 814 q 567 724 563 751 q 572 677 571 696 q 586 511 578 595 q 593 349 594 427 q 576 203 591 270 q 519 87 560 136 q 407 14 479 39 q 222 -3 335 -11 q 146 16 182 -3 q 83 64 110 34 q 41 132 57 94 q 26 209 26 170 z "},"K":{"ha":644,"x_min":43,"x_max":593,"o":"m 45 789 q 45 828 45 800 q 45 887 45 856 q 45 946 45 918 q 46 985 46 974 l 83 985 q 84 957 83 985 q 87 882 85 929 q 92 772 90 836 q 98 638 95 709 q 105 492 102 567 q 112 345 109 416 q 118 210 115 274 q 123 99 121 146 q 123 90 123 98 q 123 73 123 83 q 121 54 122 62 q 121 42 121 46 q 120 22 121 30 q 115 9 119 15 q 98 1 110 4 q 68 -5 87 -3 q 64 66 66 12 q 58 193 61 119 q 52 351 54 266 q 47 518 49 437 q 43 671 45 600 q 45 789 42 743 m 410 391 q 328 482 370 457 q 248 506 286 507 q 176 483 209 505 q 123 437 144 461 l 123 494 l 488 990 l 540 990 l 254 572 q 309 550 277 567 q 373 511 342 533 q 429 465 404 490 q 463 416 454 439 l 593 19 q 577 16 585 19 q 562 12 570 14 q 549 11 555 9 q 540 19 543 12 l 410 391 z "},"L":{"ha":665,"x_min":33,"x_max":632,"o":"m 84 911 l 136 52 q 378 67 256 52 q 627 96 499 83 l 632 52 q 607 48 631 52 q 545 40 583 45 q 457 30 506 35 q 359 19 408 24 q 266 8 311 14 q 189 0 221 3 q 182 -1 187 0 q 170 -1 176 -1 q 156 -1 163 -1 q 145 -1 149 -1 q 96 31 115 -1 q 65 117 77 62 q 47 243 53 172 q 39 392 42 315 q 37 548 37 469 q 38 696 38 627 q 37 823 38 766 q 33 911 37 880 l 84 911 z "},"M":{"ha":651,"x_min":47,"x_max":624,"o":"m 312 363 l 260 363 l 130 624 l 130 26 l 71 18 q 66 137 68 65 q 62 292 64 209 q 58 464 60 376 q 56 633 57 552 q 52 783 54 715 q 47 892 50 850 q 66 894 57 892 q 81 896 75 895 q 94 894 88 897 q 103 882 99 891 l 286 469 l 442 860 q 452 871 445 867 q 469 880 460 876 q 487 886 477 884 q 503 888 496 888 q 505 884 505 888 q 507 856 505 880 q 516 779 510 831 q 536 631 522 727 q 570 389 549 536 q 624 26 591 241 q 610 9 618 14 q 593 7 601 5 q 580 13 586 8 q 572 26 574 18 l 469 754 l 312 363 z "},"N":{"ha":723,"x_min":18,"x_max":697,"o":"m 98 807 q 97 789 98 803 q 96 762 96 776 q 96 734 96 747 q 96 718 96 722 q 100 541 96 629 q 110 364 104 453 q 119 186 115 275 q 123 7 123 96 l 75 9 q 70 81 73 35 q 62 188 66 127 q 52 317 57 248 q 40 458 46 387 q 30 598 34 529 q 22 726 26 667 q 18 831 19 785 q 18 901 16 876 q 30 928 18 917 q 58 939 42 939 q 96 931 75 939 q 123 911 117 924 l 612 123 q 608 258 612 186 q 602 406 605 330 q 599 558 600 481 q 602 707 598 635 q 615 845 605 780 q 644 963 625 910 q 674 970 663 970 q 690 970 685 971 q 696 963 696 968 q 697 952 697 958 q 697 944 697 949 q 697 937 697 939 q 691 907 694 929 q 682 843 688 886 q 673 732 677 800 q 665 564 669 665 q 659 326 661 464 q 658 3 656 187 l 618 0 l 98 807 z "},"O":{"ha":600,"x_min":24,"x_max":555,"o":"m 24 450 q 31 545 24 495 q 51 644 37 595 q 87 736 65 692 q 142 813 110 780 q 216 866 174 846 q 313 886 259 886 q 397 859 361 886 q 461 790 434 833 q 506 693 488 747 q 535 584 524 639 q 551 478 547 529 q 555 391 555 427 q 532 243 549 311 q 484 125 514 176 q 408 42 453 75 q 300 -1 363 9 q 195 20 239 -1 q 121 77 152 42 q 71 159 90 113 q 41 255 52 205 q 28 356 31 305 q 24 450 24 407 m 76 450 q 77 377 76 418 q 85 295 79 336 q 103 214 91 254 q 136 143 115 174 q 189 94 157 113 q 266 75 221 75 q 373 91 331 71 q 441 153 415 111 q 480 255 467 195 q 502 391 494 315 q 499 465 502 420 q 489 559 496 510 q 469 657 481 608 q 435 747 456 707 q 385 811 414 787 q 315 836 355 836 q 239 816 273 836 q 178 764 205 796 q 132 692 152 732 q 100 608 113 651 q 82 524 88 566 q 76 450 76 483 z "},"P":{"ha":526,"x_min":26,"x_max":521,"o":"m 26 746 q 59 821 26 789 q 140 873 92 853 q 239 903 187 892 q 327 913 290 913 q 401 901 363 913 q 467 866 438 888 q 511 809 495 844 q 521 730 526 774 q 475 608 514 661 q 380 519 437 555 q 258 465 324 483 q 132 446 193 446 q 136 347 132 396 q 144 247 140 297 q 153 147 149 197 q 157 47 157 98 q 155 20 157 33 q 130 0 152 7 l 103 26 q 99 64 103 27 q 87 159 95 100 q 71 291 80 217 q 54 439 62 365 q 39 583 46 514 q 26 703 31 652 q 26 709 26 704 q 26 722 26 715 q 26 735 26 728 q 26 746 26 742 m 102 697 q 102 644 102 669 q 106 597 103 620 q 115 549 110 574 q 130 494 121 525 q 231 519 172 500 q 342 571 289 538 q 433 646 396 604 q 469 742 469 689 q 456 793 469 770 q 421 830 442 815 q 374 853 400 845 q 324 861 349 861 q 245 852 285 861 q 173 822 205 842 q 121 770 141 802 q 102 697 102 739 z "},"Q":{"ha":730,"x_min":34,"x_max":713,"o":"m 530 1 q 409 -3 469 -4 q 293 7 349 -3 q 191 40 237 18 q 109 99 144 62 q 54 191 73 136 q 34 323 34 245 q 45 430 34 370 q 79 553 57 490 q 134 676 102 616 q 210 783 167 736 q 303 859 252 830 q 414 887 354 887 q 493 856 454 887 q 565 777 532 825 q 625 670 598 728 q 672 555 652 612 q 703 452 692 498 q 713 382 713 406 q 706 289 713 332 q 682 205 699 245 q 641 128 666 165 q 582 53 616 91 q 599 22 587 45 q 623 -25 610 0 q 646 -72 635 -50 q 661 -103 656 -94 q 663 -116 662 -106 q 665 -129 665 -126 l 608 -129 l 530 1 m 87 323 q 108 211 87 262 q 166 125 129 160 q 254 70 203 90 q 362 50 304 50 q 391 50 372 50 q 429 53 410 50 q 465 64 449 56 q 480 91 480 73 q 460 161 480 130 q 417 222 441 193 q 374 279 393 251 q 354 339 354 307 l 400 339 l 556 132 q 604 181 585 152 q 637 243 624 210 q 655 312 650 277 q 661 380 661 347 q 646 492 661 437 q 609 595 632 547 q 558 686 586 644 q 504 759 530 727 q 456 810 477 791 q 426 834 435 829 q 280 762 343 814 q 174 640 217 709 q 109 487 130 570 q 87 323 87 404 z "},"R":{"ha":703,"x_min":-23,"x_max":628,"o":"m 576 -3 q 563 62 571 22 q 542 149 555 102 q 511 243 529 195 q 467 329 492 290 q 408 392 441 368 q 330 416 374 416 q 283 414 312 416 q 228 405 255 411 q 180 388 201 399 q 160 362 160 377 l 160 18 q 144 20 155 18 q 122 28 133 23 q 103 38 111 33 q 95 50 95 43 l 95 727 q 66 713 79 724 q 47 685 54 701 q 35 652 39 669 q 30 623 31 636 q 15 629 24 623 q -3 643 5 635 q -17 660 -11 651 q -23 675 -23 669 q -3 741 -23 709 q 50 800 18 773 q 123 847 83 826 q 203 883 163 868 q 281 906 244 898 q 343 914 317 914 q 415 911 381 914 q 474 896 449 909 q 514 856 499 883 q 529 783 529 829 q 514 701 529 741 q 476 624 499 661 q 425 554 453 587 q 368 492 396 521 q 471 413 431 453 q 534 333 510 373 q 572 253 559 293 q 592 171 585 213 q 607 85 600 129 q 628 -3 614 42 l 576 -3 m 349 860 q 322 859 339 860 q 283 856 305 859 q 241 848 262 853 q 201 833 220 842 q 172 810 183 823 q 160 779 160 798 l 160 434 q 228 450 193 434 q 298 494 263 467 q 365 557 332 522 q 422 628 397 591 q 461 701 446 665 q 476 766 476 738 q 466 816 476 798 q 438 844 456 834 q 397 857 420 854 q 349 860 374 860 z "},"S":{"ha":665,"x_min":18,"x_max":621,"o":"m 72 103 q 93 123 79 119 q 123 103 107 127 q 136 96 123 100 q 169 85 149 91 q 215 73 189 79 q 267 62 241 66 q 317 54 293 57 q 359 50 342 50 q 444 70 406 50 q 511 121 483 90 q 553 192 538 152 q 568 274 568 232 q 564 317 568 286 q 551 378 560 347 q 526 433 541 408 q 488 457 510 457 q 257 444 347 441 q 114 465 167 448 q 40 513 61 483 q 18 583 19 544 q 42 677 18 632 q 104 758 66 723 q 189 814 142 793 q 282 836 236 836 q 361 826 320 836 q 438 797 403 817 q 496 745 473 777 q 518 669 518 713 q 458 687 486 669 q 404 726 431 705 q 347 764 377 746 q 278 783 317 783 q 212 766 245 783 q 153 724 179 750 q 109 667 126 699 q 92 601 92 635 q 93 572 92 587 q 99 542 94 556 q 116 518 104 528 q 149 509 127 509 l 514 509 q 554 494 537 509 q 583 458 571 480 q 602 410 594 437 q 614 357 609 382 q 620 309 618 331 q 621 274 621 286 q 606 174 621 221 q 562 90 591 127 q 487 29 532 53 q 384 0 442 5 q 310 1 355 -3 q 218 17 264 5 q 132 50 172 28 q 72 103 91 71 z "},"T":{"ha":521,"x_min":4,"x_max":559,"o":"m 4 736 l 26 807 q 47 810 27 808 q 99 816 66 812 q 172 823 132 819 q 256 831 213 827 q 340 840 298 836 q 416 848 381 844 q 429 848 416 848 q 456 848 441 848 q 484 848 471 848 q 502 848 498 848 q 547 836 534 848 q 559 783 559 823 l 312 754 q 315 575 309 669 q 328 386 320 481 q 344 197 336 290 q 351 18 351 103 q 344 1 351 5 q 326 -5 336 -4 q 305 -5 316 -7 q 286 0 294 -3 q 278 61 282 18 q 270 163 274 104 q 262 289 266 221 q 254 425 258 357 q 245 554 250 492 q 239 663 241 616 q 234 735 236 709 q 231 754 232 761 l 4 736 z "},"U":{"ha":703,"x_min":30,"x_max":674,"o":"m 540 339 q 433 127 486 202 q 330 28 380 53 q 235 22 279 3 q 153 92 190 41 q 89 220 115 142 q 47 389 62 297 q 31 583 31 481 q 46 781 30 684 l 99 776 q 96 474 84 602 q 133 260 107 346 q 193 130 159 175 q 258 79 227 85 q 340 103 304 79 q 404 167 376 127 q 451 256 431 206 q 483 358 471 307 q 500 458 495 410 q 506 541 506 506 q 503 623 506 587 q 494 694 500 659 q 481 767 488 730 q 464 853 473 804 l 530 902 q 584 565 562 705 q 623 330 606 425 q 648 180 639 236 q 664 92 658 123 q 672 47 670 60 q 674 26 674 34 l 618 26 l 540 339 z "},"V":{"ha":718,"x_min":19,"x_max":688,"o":"m 19 884 l 60 925 l 495 156 l 644 963 l 688 963 l 540 26 l 507 -8 l 19 884 z "},"W":{"ha":833,"x_min":19,"x_max":803,"o":"m 397 488 q 385 441 393 473 q 364 368 376 408 q 340 282 353 327 q 315 197 327 237 q 293 124 302 156 q 279 79 283 92 q 271 50 277 65 q 259 26 266 34 q 244 22 252 18 q 228 52 236 26 l 19 990 q 33 992 23 990 q 46 994 42 994 q 82 983 73 994 q 98 937 91 971 l 254 233 l 358 572 q 374 594 363 589 q 397 600 384 600 q 429 559 408 589 q 473 492 449 530 q 522 409 496 453 q 572 326 548 365 q 614 254 595 286 q 644 209 633 222 q 659 191 648 202 q 681 167 669 179 q 705 144 693 155 q 723 130 718 133 q 719 237 722 175 q 713 370 716 298 q 710 520 711 442 q 713 675 709 598 q 724 823 716 751 q 746 954 732 894 q 753 968 749 963 q 764 974 758 972 q 781 975 770 975 q 803 974 791 974 q 802 938 803 959 q 798 878 800 917 q 792 774 795 840 q 786 606 789 709 q 780 355 783 503 q 774 0 777 206 q 666 103 716 46 q 571 224 616 160 q 484 356 526 289 q 397 488 441 423 z "},"X":{"ha":665,"x_min":24,"x_max":650,"o":"m 285 468 l 24 884 q 66 886 46 892 q 102 859 87 879 q 126 823 110 848 q 163 768 142 799 q 207 703 184 738 q 250 638 229 669 q 286 583 270 608 q 311 547 302 559 l 467 884 q 519 887 505 894 q 531 862 533 880 q 514 816 529 844 q 478 753 499 788 q 435 682 457 719 q 394 606 412 644 q 366 532 376 567 q 362 468 357 498 q 427 370 388 422 q 506 265 465 319 q 585 157 547 212 q 648 50 623 103 q 650 45 650 49 q 645 38 650 42 q 629 30 640 34 q 597 26 618 26 l 323 407 l 141 -171 l 102 -132 l 285 468 z "},"Y":{"ha":616,"x_min":5,"x_max":605,"o":"m 396 442 q 341 515 376 472 q 267 610 307 559 q 186 715 228 661 q 108 820 144 769 q 45 915 72 871 q 5 990 18 959 l 33 1015 q 120 915 83 960 q 187 829 157 869 q 241 753 217 789 q 292 679 266 716 q 350 603 319 642 q 423 521 381 564 q 439 606 431 559 q 454 703 446 652 q 472 805 463 753 q 494 905 481 857 q 520 996 506 954 q 553 1067 534 1038 q 559 1069 555 1069 q 567 1069 564 1069 q 578 1067 571 1069 q 593 1063 586 1066 q 604 1054 600 1059 q 605 1042 608 1048 q 574 958 590 1010 q 545 839 559 905 q 518 696 530 773 q 496 541 506 620 q 477 385 486 463 q 465 239 469 307 q 462 115 461 171 q 468 26 463 60 q 463 3 465 11 q 454 -8 461 -4 q 434 -13 448 -12 q 396 -14 420 -14 l 396 442 z "},"Z":{"ha":892,"x_min":19,"x_max":853,"o":"m 201 38 q 201 45 201 39 q 202 52 201 50 l 343 486 l 127 471 l 148 534 l 380 567 l 567 884 q 551 884 563 884 q 528 885 540 884 q 504 886 515 886 q 488 886 492 886 q 383 882 435 886 q 278 872 331 878 q 173 863 225 867 q 68 859 121 859 q 39 861 52 859 q 19 884 27 864 l 46 911 q 74 914 46 911 q 146 922 102 917 q 248 932 191 926 q 363 943 305 937 q 474 954 420 949 q 567 963 528 959 q 580 964 568 963 q 595 964 591 964 q 609 964 600 964 q 628 962 618 964 q 644 954 637 959 q 644 937 650 948 l 477 572 l 656 572 q 659 537 666 551 q 636 515 652 524 q 595 504 620 507 q 543 498 570 500 q 490 492 515 495 q 445 486 464 490 q 393 391 419 441 q 345 289 368 340 q 306 184 323 237 q 279 79 289 130 q 290 78 282 79 q 307 77 298 77 q 322 76 315 76 q 332 76 330 76 q 463 87 399 76 q 591 110 526 98 q 720 133 655 122 q 853 144 784 144 l 853 91 q 704 77 777 91 q 558 45 631 62 q 413 13 486 27 q 266 -1 340 -1 q 245 1 258 -1 q 224 7 233 3 q 208 19 214 12 q 201 38 201 26 z "},"[":{"ha":404,"x_min":41,"x_max":355,"o":"m 69 -98 q 65 -23 66 -75 q 62 98 64 28 q 59 248 61 167 q 55 414 57 330 q 51 579 53 498 q 47 730 49 661 q 44 850 46 799 q 41 925 42 902 l 41 941 q 56 1010 41 986 q 98 1044 72 1034 q 157 1057 123 1055 q 225 1058 190 1058 q 248 1059 237 1058 q 269 1057 259 1059 q 288 1049 279 1055 q 301 1031 296 1043 q 303 1019 302 1025 q 307 1006 304 1012 q 309 991 307 998 l 127 991 q 123 918 126 966 q 115 804 119 869 q 107 663 111 739 q 100 506 103 587 q 95 345 96 425 q 96 191 94 264 q 104 57 98 118 q 121 -46 110 -4 l 330 -46 q 350 -60 345 -46 q 355 -84 355 -73 q 355 -92 355 -87 q 355 -98 355 -96 q 313 -104 342 -100 q 251 -113 285 -109 q 181 -121 217 -118 q 118 -125 145 -125 q 88 -123 100 -125 q 69 -98 76 -121 z "},"\\":{"ha":612,"x_min":-11,"x_max":579,"o":"m 58 884 q 97 831 64 876 q 194 688 130 785 q 353 434 258 590 q 579 52 449 278 l 553 0 l -11 884 l 58 884 z "},"]":{"ha":469,"x_min":11,"x_max":419,"o":"m 233 -33 q 262 -36 243 -37 q 302 -31 281 -35 q 340 -21 323 -27 q 363 -7 358 -15 q 364 -1 363 -7 q 366 14 365 5 q 367 32 366 23 q 368 46 368 41 q 367 64 368 53 q 366 88 366 76 q 364 111 365 100 q 363 123 363 121 q 356 207 361 156 q 347 320 351 258 q 337 451 343 382 q 326 587 331 519 q 317 715 321 654 q 309 825 312 777 q 302 903 305 872 q 298 936 298 933 l 271 1013 q 250 1014 267 1013 q 210 1017 233 1015 q 157 1021 186 1019 q 100 1030 127 1024 q 49 1045 72 1036 q 11 1066 26 1054 q 59 1090 35 1088 q 114 1092 83 1092 q 166 1090 142 1092 q 214 1086 190 1089 q 264 1078 237 1084 q 323 1066 290 1073 q 332 998 327 1044 q 345 887 338 951 q 358 748 351 823 q 372 595 365 673 q 387 442 380 518 q 399 302 393 366 q 410 192 406 239 q 416 123 415 145 q 417 112 416 122 q 418 89 418 102 q 419 63 419 76 q 419 43 419 50 q 412 -29 419 -4 q 383 -65 404 -54 q 326 -79 362 -76 q 233 -84 290 -81 l 233 -33 z "},"^":{"ha":404,"x_min":31,"x_max":359,"o":"m 209 917 q 174 875 191 894 q 140 838 156 856 q 106 800 123 819 q 71 758 90 781 l 31 779 l 213 1025 q 256 972 237 1001 q 290 913 274 944 q 323 849 307 882 q 359 784 339 817 q 355 771 359 774 q 344 766 351 768 q 328 762 336 764 q 308 754 319 760 q 280 802 290 784 q 262 835 270 819 q 242 868 254 850 q 209 917 231 886 z "},"_":{"ha":612,"x_min":42,"x_max":547,"o":"m 58 75 l 547 79 l 547 26 q 497 28 533 30 q 414 26 461 27 q 312 22 366 24 q 206 20 258 19 q 111 23 155 20 q 42 35 68 26 l 58 75 z "},"`":{"ha":343,"x_min":119,"x_max":269,"o":"m 157 887 q 195 843 182 863 q 217 804 208 823 q 237 761 227 784 q 269 705 248 738 q 264 692 269 696 q 253 687 260 689 q 237 683 245 685 q 217 675 228 681 q 190 723 199 705 q 172 755 180 741 q 151 789 163 770 q 119 838 140 807 l 157 887 z "},"a":{"ha":469,"x_min":26,"x_max":442,"o":"m 26 117 q 68 229 26 194 q 180 264 111 264 q 231 263 208 264 q 277 256 255 262 q 319 240 298 251 q 363 209 340 229 q 364 226 363 213 q 365 254 365 239 q 365 281 365 269 q 365 300 365 294 q 363 363 363 324 q 357 442 363 401 q 333 519 351 483 q 274 575 315 556 q 221 566 245 575 q 172 545 197 556 q 123 526 148 534 q 71 517 99 517 q 92 573 71 551 q 142 608 113 595 q 205 624 172 620 q 262 628 237 628 q 307 618 286 624 q 347 597 328 613 q 380 547 365 581 q 408 454 396 514 q 428 303 419 395 q 442 79 437 212 q 431 48 445 61 q 392 26 416 35 q 337 12 368 18 q 275 3 307 5 q 216 -1 244 0 q 168 -3 187 -3 q 119 5 144 -3 q 73 29 94 14 q 39 67 52 45 q 26 117 26 90 m 202 212 q 107 166 134 193 q 83 115 80 140 q 115 71 87 91 q 184 45 144 52 q 273 52 225 39 q 363 103 320 65 q 331 163 347 142 q 296 195 315 184 q 254 209 277 206 q 202 212 231 212 z "},"b":{"ha":509,"x_min":19,"x_max":472,"o":"m 72 884 q 83 777 77 836 q 94 656 90 718 q 99 532 98 594 q 98 416 100 471 q 138 450 119 435 q 174 475 156 464 q 211 491 193 486 q 254 496 229 496 q 343 473 302 496 q 412 410 384 449 q 456 325 441 372 q 472 233 472 278 q 441 112 469 157 q 366 42 412 66 q 256 14 319 18 q 123 15 193 9 l 123 79 q 168 54 148 57 q 217 50 189 50 q 298 64 262 50 q 361 102 335 77 q 402 163 388 127 q 416 240 416 198 q 412 305 416 277 q 394 357 408 334 q 353 401 380 380 q 279 442 326 422 q 267 444 277 444 q 254 445 258 445 q 210 432 232 445 q 171 399 189 419 q 141 356 153 380 q 123 312 129 332 q 116 254 121 296 q 105 165 111 213 q 95 76 99 118 q 88 18 91 34 l 46 26 l 19 884 l 72 884 z "},"c":{"ha":509,"x_min":26,"x_max":475,"o":"m 26 232 q 42 343 26 282 q 90 456 58 404 q 167 544 121 509 q 274 579 213 579 q 324 573 305 583 q 353 541 343 563 q 367 492 363 519 q 371 435 370 464 q 371 380 372 406 q 373 339 370 355 l 339 339 q 334 378 338 347 q 323 441 331 408 q 300 499 315 473 q 260 525 286 525 q 189 495 222 525 q 132 423 156 465 q 92 336 107 381 q 77 262 77 292 q 87 188 79 228 q 113 115 95 148 q 161 62 132 83 q 235 50 191 42 q 297 64 267 50 q 355 92 327 77 q 413 121 384 107 q 475 134 442 134 q 449 73 475 99 q 386 30 423 46 q 307 5 349 14 q 237 -3 266 -3 q 153 16 191 -3 q 85 67 114 35 q 41 142 57 99 q 26 232 26 184 z "},"d":{"ha":453,"x_min":4,"x_max":426,"o":"m 4 197 q 16 277 4 233 q 52 359 28 321 q 107 420 75 396 q 183 445 140 445 q 241 439 216 445 q 288 418 266 433 q 330 385 311 404 q 372 339 350 365 l 363 1035 q 409 1046 400 1048 q 418 1023 418 1043 q 417 1015 418 1020 q 416 1008 416 1009 q 414 935 415 982 q 414 825 414 887 q 416 690 415 762 q 419 543 418 617 q 422 397 420 469 q 425 262 425 324 q 425 151 426 199 q 423 79 425 103 q 382 31 408 47 q 325 7 355 15 q 262 -1 294 0 q 201 -3 229 -3 q 57 51 110 -3 q 4 197 4 104 m 58 233 q 64 166 58 199 q 83 107 69 133 q 121 66 96 81 q 183 50 145 50 q 239 50 206 50 q 301 58 271 50 q 351 81 331 65 q 372 127 372 98 q 361 208 372 163 q 330 295 351 254 q 277 366 309 336 q 202 395 245 395 q 148 380 174 395 q 102 342 122 365 q 71 290 83 319 q 58 233 58 262 z "},"e":{"ha":457,"x_min":31,"x_max":415,"o":"m 35 319 q 53 409 35 359 q 101 501 71 458 q 170 573 132 544 q 251 602 209 602 q 296 593 274 602 q 340 568 319 583 q 378 532 361 552 q 404 491 395 513 q 414 449 414 469 q 403 414 415 429 l 117 361 q 107 348 111 359 q 100 319 103 336 q 96 280 98 301 q 92 239 94 259 q 91 204 91 220 q 91 180 91 189 q 109 119 91 142 q 156 83 127 95 q 220 66 184 71 q 292 62 256 62 q 358 65 327 62 q 410 68 389 68 q 406 56 410 62 q 396 43 401 49 q 385 32 391 37 q 378 26 380 27 q 345 18 368 23 q 298 9 323 14 q 251 3 273 5 q 221 0 229 0 q 148 1 179 -8 q 95 34 117 11 q 60 90 73 57 q 39 161 46 123 q 32 240 33 199 q 35 319 31 281 m 232 551 q 200 538 220 551 q 163 505 180 525 q 135 463 146 486 q 127 425 123 441 q 201 426 163 420 q 270 443 239 431 q 321 470 301 454 q 341 502 342 486 q 315 531 340 518 q 232 551 290 544 z "},"f":{"ha":506,"x_min":14,"x_max":670,"o":"m 176 7 q 193 151 189 94 q 196 249 197 208 q 194 322 195 290 q 194 389 193 354 q 156 381 176 389 q 114 363 136 373 q 71 345 92 353 q 33 336 50 336 q 24 342 26 336 q 20 355 22 347 q 18 372 19 363 q 14 391 18 381 l 197 469 q 178 809 171 673 q 218 1029 186 945 q 302 1151 250 1112 q 418 1199 354 1190 q 513 1179 468 1199 q 593 1126 559 1160 q 649 1047 628 1092 q 670 952 670 1002 q 630 966 648 952 q 595 1002 612 981 q 563 1049 579 1024 q 527 1096 547 1074 q 484 1132 507 1118 q 430 1146 461 1146 q 376 1124 403 1141 q 328 1076 350 1107 q 288 996 305 1044 q 260 878 270 948 q 250 711 251 807 q 262 492 250 616 l 430 494 q 435 463 434 476 q 415 442 435 450 q 377 432 400 437 q 330 424 354 427 q 286 418 307 420 q 258 415 266 416 q 259 294 256 351 q 263 184 262 236 q 262 86 264 132 q 248 -1 260 41 q 241 -1 247 -1 q 228 -1 235 -1 q 215 -1 221 -1 q 209 -1 209 -1 q 197 -3 203 -1 q 186 -5 191 -4 q 179 -3 182 -5 q 176 7 176 -1 z "},"g":{"ha":481,"x_min":-165,"x_max":442,"o":"m -165 -321 q -153 -266 -165 -285 q -96 -247 -141 -247 q -106 -285 -100 -266 q -117 -320 -113 -304 q -121 -346 -122 -336 q -111 -353 -121 -355 q -16 -393 -68 -381 q 85 -406 35 -406 q 216 -374 161 -404 q 307 -297 271 -345 q 363 -188 343 -250 q 387 -60 382 -126 q 384 72 392 5 q 358 194 376 138 q 311 140 335 168 q 260 89 288 111 q 203 52 233 66 q 134 37 172 37 q 75 50 95 37 q 49 87 56 64 q 43 142 42 111 q 43 209 43 174 q 45 282 43 241 q 55 364 47 323 q 75 446 62 406 q 110 517 88 486 q 164 568 132 549 q 241 587 197 587 q 296 583 270 587 q 345 566 323 578 q 384 533 368 553 q 410 481 400 513 q 423 349 415 420 q 437 201 431 278 q 442 47 442 125 q 432 -102 442 -30 q 398 -237 422 -174 q 332 -348 374 -300 q 225 -425 289 -396 q 72 -457 161 -454 q -8 -452 34 -457 q -85 -433 -50 -448 q -143 -393 -121 -419 q -165 -321 -165 -366 m 95 209 q 94 175 95 194 q 95 137 92 156 q 106 104 98 118 q 136 90 115 91 q 196 104 168 90 q 246 145 224 119 q 286 203 269 171 q 314 269 302 235 q 332 334 326 302 q 338 391 338 366 q 338 442 342 416 q 323 488 335 468 q 290 522 311 509 q 241 534 270 534 q 184 516 209 534 q 144 469 160 498 q 118 405 127 441 q 104 333 109 369 q 97 264 99 297 q 95 209 95 231 z "},"h":{"ha":468,"x_min":37,"x_max":439,"o":"m 81 930 l 117 486 q 141 510 126 494 q 176 541 156 526 q 221 565 197 555 q 274 574 245 575 q 363 529 330 568 q 413 433 396 490 q 435 309 430 376 q 439 180 441 241 q 432 72 437 119 q 425 7 427 24 l 376 14 q 376 52 376 26 q 378 115 377 79 q 380 190 380 151 q 380 264 380 229 q 380 326 381 298 q 378 363 380 353 q 363 437 380 401 q 320 490 347 472 q 255 503 293 509 q 174 449 217 496 q 118 337 136 392 q 95 229 100 282 q 91 119 90 175 q 91 0 92 62 l 38 8 q 44 63 42 23 q 47 159 46 103 q 50 285 49 216 q 50 428 50 354 q 47 576 49 502 q 44 719 46 651 q 40 844 42 787 q 37 937 38 901 l 81 930 z "},"i":{"ha":197,"x_min":12,"x_max":167,"o":"m 91 526 q 119 528 107 526 q 138 514 130 529 q 148 390 142 453 q 159 263 153 327 q 166 135 164 199 q 167 9 168 71 q 163 -1 167 1 q 151 -2 159 -3 q 134 -1 144 -1 q 111 -3 123 0 l 91 526 m 12 769 q 14 790 12 779 q 20 811 15 802 q 32 827 24 821 q 50 834 39 834 q 83 833 66 834 q 114 827 99 831 q 138 812 129 822 q 148 783 148 802 q 123 725 148 750 q 64 700 99 700 q 24 721 37 700 q 12 769 12 742 m 91 762 q 87 755 87 762 q 91 749 87 749 q 96 755 96 749 q 91 762 96 762 z "},"j":{"ha":286,"x_min":-304,"x_max":250,"o":"m -304 -427 q -302 -404 -304 -414 q -294 -393 -300 -395 q -277 -399 -288 -392 q -250 -429 -266 -407 q -224 -457 -250 -446 q -167 -474 -199 -468 q -101 -481 -134 -480 q -53 -483 -68 -483 q 60 -459 14 -483 q 138 -395 107 -435 q 182 -302 168 -355 q 197 -190 197 -248 q 185 -28 197 -106 q 155 128 174 50 q 111 287 136 206 q 62 457 87 368 q 57 518 53 498 q 71 545 61 538 q 94 547 81 551 q 115 534 107 543 q 161 359 138 449 q 205 175 184 269 q 237 -14 225 81 q 250 -201 250 -109 q 233 -325 250 -264 q 182 -431 217 -385 q 96 -506 148 -477 q -27 -534 45 -534 q -107 -533 -60 -534 q -199 -522 -155 -532 q -273 -490 -243 -511 q -304 -427 -304 -469 m 1 878 q 39 873 19 878 q 77 858 60 868 q 106 832 95 848 q 118 795 118 817 q 62 742 118 742 q 23 755 37 742 q 5 789 9 769 q 1 833 0 810 q 1 878 1 857 m 62 802 q 58 795 58 802 q 62 789 58 789 q 68 795 68 789 q 62 802 68 802 z "},"k":{"ha":525,"x_min":18,"x_max":487,"o":"m 76 37 q 70 124 75 65 q 60 257 65 183 q 49 414 54 331 q 39 570 43 496 q 30 703 34 644 q 24 791 26 762 q 22 833 23 803 q 20 899 22 864 q 18 964 19 933 q 18 1006 18 994 q 52 999 37 1006 q 76 974 66 991 q 82 893 79 945 q 90 773 85 841 q 98 628 94 705 q 107 475 103 551 q 115 487 111 481 q 121 494 119 492 q 156 532 136 510 q 199 576 176 553 q 243 622 221 600 q 284 663 266 644 q 315 692 302 681 q 330 703 327 703 l 381 677 q 328 629 358 656 q 270 572 298 602 q 215 508 241 541 q 172 442 189 475 q 172 436 172 441 q 171 429 171 431 q 172 422 171 427 q 172 416 172 418 l 486 52 q 486 46 486 50 q 487 39 487 42 q 460 0 487 14 l 121 391 q 117 395 119 392 q 113 403 115 399 l 127 140 q 128 114 127 133 q 130 73 129 95 q 131 31 130 50 q 132 4 132 11 q 99 12 114 4 q 76 37 84 19 z "},"l":{"ha":197,"x_min":56,"x_max":146,"o":"m 60 1054 q 93 1044 79 1051 q 115 1017 107 1036 q 117 946 115 991 q 121 841 119 901 q 126 712 123 781 q 132 572 129 643 q 136 433 134 502 q 140 304 138 363 q 144 198 142 244 q 146 127 145 152 q 146 118 146 125 q 144 102 145 111 q 143 83 144 92 q 142 71 142 75 q 141 51 141 62 q 138 28 141 39 q 130 9 136 18 q 110 -1 123 0 l 87 27 q 83 78 85 28 q 78 207 81 127 q 72 386 75 286 q 66 587 69 486 q 60 783 62 689 q 56 944 57 876 q 56 966 56 949 q 58 999 57 982 q 59 1031 58 1016 q 60 1054 60 1047 z "},"m":{"ha":762,"x_min":26,"x_max":730,"o":"m 26 529 q 61 521 42 529 q 88 488 80 513 q 121 563 99 534 q 173 602 144 591 q 234 610 202 613 q 294 590 266 606 q 342 548 321 574 q 372 488 363 522 q 412 566 387 530 q 467 627 437 602 q 531 661 498 651 q 593 660 564 670 q 645 616 623 650 q 677 521 667 583 q 684 469 680 503 q 692 391 688 434 q 703 299 697 347 q 714 208 709 251 q 723 130 719 164 q 730 79 727 95 q 728 49 730 65 q 722 21 727 33 q 707 6 718 9 q 677 18 697 3 q 673 71 677 34 q 665 155 669 107 q 654 257 661 203 q 642 358 648 311 q 632 442 636 406 q 624 494 628 479 q 581 581 604 556 q 536 602 559 605 q 494 574 514 600 q 457 509 473 548 q 427 421 441 469 q 405 326 412 373 q 395 236 397 278 q 400 167 393 194 l 347 156 q 338 370 351 286 q 303 498 326 453 q 252 551 281 543 q 196 540 224 560 q 145 472 168 519 q 111 357 122 425 q 102 206 99 290 q 130 26 104 122 l 79 26 q 75 52 79 26 q 67 117 72 77 q 57 208 62 157 q 46 311 52 259 q 35 412 41 363 q 26 494 30 460 q 26 512 26 498 q 26 529 26 526 z "},"n":{"ha":549,"x_min":19,"x_max":515,"o":"m 46 7 q 41 70 43 28 q 37 163 39 111 q 34 273 35 216 q 31 381 33 330 q 28 474 30 433 q 22 537 26 515 q 21 544 22 538 q 20 556 20 549 q 19 568 19 563 q 19 575 19 572 q 54 586 39 591 q 77 562 68 581 q 91 517 87 544 q 97 463 95 490 q 99 413 99 435 q 99 381 99 391 q 107 435 102 404 q 123 499 113 467 q 150 564 134 532 q 189 620 165 595 q 241 658 212 644 q 308 669 270 671 q 406 636 368 666 q 467 556 445 606 q 500 441 490 506 q 513 302 510 376 q 515 154 517 229 q 514 9 514 79 q 490 1 502 7 q 469 -5 477 -5 q 458 7 461 -4 q 460 53 454 19 q 465 128 461 77 q 467 241 468 179 q 460 370 467 304 q 435 492 453 437 q 382 581 416 547 q 294 616 349 616 q 201 529 239 593 q 142 380 164 465 q 109 195 119 294 q 98 0 99 95 q 87 1 95 1 q 71 2 80 1 q 55 4 62 3 q 46 7 47 5 z "},"o":{"ha":503,"x_min":33,"x_max":461,"o":"m 33 248 q 38 321 33 279 q 56 404 43 362 q 86 487 68 446 q 130 559 104 528 q 190 611 156 591 q 266 631 224 631 q 347 601 309 631 q 410 524 384 571 q 450 418 437 476 q 461 304 464 359 q 430 159 461 222 q 351 56 399 95 q 248 3 302 16 q 144 10 193 -11 q 64 90 96 31 q 33 248 33 148 m 83 243 q 111 115 87 160 q 170 56 136 71 q 245 56 205 42 q 321 104 286 69 q 382 191 357 138 q 410 308 407 243 q 402 403 412 357 q 374 485 392 449 q 329 542 355 521 q 269 563 302 563 q 210 547 236 563 q 163 503 184 530 q 127 439 142 475 q 102 369 113 404 q 87 300 92 334 q 83 243 83 267 z "},"p":{"ha":616,"x_min":19,"x_max":570,"o":"m 72 351 q 57 349 66 347 q 39 353 47 350 q 25 363 31 357 q 19 377 19 369 q 47 462 19 423 q 118 528 76 500 q 208 572 160 556 q 294 587 255 587 q 408 566 357 587 q 494 509 458 545 q 550 423 530 472 q 570 319 570 374 q 538 190 571 248 q 451 90 505 132 q 332 28 397 49 q 202 12 266 7 q 201 -100 205 -37 q 190 -237 197 -163 q 173 -395 183 -312 q 152 -567 163 -479 q 144 -568 152 -568 q 127 -566 136 -568 q 109 -562 118 -564 q 99 -562 100 -560 q 114 -334 109 -449 q 118 -102 119 -218 q 106 127 117 14 q 72 351 95 241 m 278 511 q 222 504 252 510 q 170 486 193 498 q 133 453 146 473 q 123 403 119 433 q 131 363 126 389 q 142 305 136 338 q 154 237 148 273 q 166 170 160 202 q 177 111 172 137 q 184 71 182 84 q 231 76 201 73 q 294 87 260 79 q 364 109 328 95 q 431 149 400 123 q 486 214 463 175 q 518 309 510 252 q 499 400 518 362 q 448 463 480 438 q 371 500 415 488 q 278 511 327 511 z "},"q":{"ha":469,"x_min":18,"x_max":567,"o":"m 332 130 q 290 94 309 110 q 250 68 270 79 q 208 53 229 58 q 161 47 187 47 q 97 67 123 47 q 52 117 71 87 q 26 182 34 148 q 18 250 18 217 q 24 319 18 282 q 43 394 30 357 q 77 466 57 431 q 122 526 96 500 q 180 568 148 552 q 251 583 213 583 q 320 571 289 583 q 374 536 351 559 q 409 481 396 514 q 422 407 422 448 q 416 272 422 339 q 403 138 410 205 q 390 3 396 71 q 384 -133 384 -65 q 393 -222 376 -182 q 440 -294 411 -263 q 504 -342 469 -324 q 567 -365 538 -361 q 550 -373 562 -369 q 526 -381 538 -377 q 503 -388 514 -385 q 488 -391 491 -391 q 434 -374 461 -388 q 385 -339 407 -361 q 347 -290 362 -317 q 332 -235 332 -263 l 332 130 m 71 262 q 76 217 71 244 q 92 165 81 190 q 121 121 103 140 q 163 103 138 103 q 246 129 209 103 q 309 194 283 155 q 347 279 334 233 q 359 363 359 324 q 355 416 359 387 q 338 471 351 445 q 304 516 326 498 q 248 534 282 534 q 197 518 221 534 q 154 476 174 502 q 119 419 134 450 q 93 357 103 388 q 77 301 83 327 q 71 262 71 275 z "},"r":{"ha":415,"x_min":18,"x_max":385,"o":"m 18 529 q 46 532 34 536 q 66 517 58 528 q 79 492 75 506 q 85 464 83 477 q 136 512 103 494 q 208 536 170 530 q 283 539 245 543 q 348 523 321 536 q 385 488 374 510 q 380 435 396 465 q 306 468 345 456 q 231 476 267 480 q 163 448 194 472 q 111 373 132 425 q 86 237 91 321 q 98 26 81 152 l 46 26 q 44 48 46 26 q 40 107 42 71 q 35 189 38 144 q 28 279 31 233 q 24 368 26 326 q 19 442 22 411 q 18 458 19 446 q 18 485 18 471 q 18 511 18 499 q 18 529 18 524 z "},"s":{"ha":534,"x_min":23,"x_max":498,"o":"m 98 110 q 143 100 122 110 q 184 79 164 91 q 226 59 205 68 q 271 50 247 50 q 330 60 300 50 q 387 89 361 71 q 429 134 412 107 q 445 191 445 160 q 446 214 446 201 q 437 242 445 228 q 410 269 429 256 q 355 289 391 282 q 264 296 319 296 q 130 286 210 297 q 91 298 110 286 q 57 326 72 309 q 33 363 42 343 q 23 400 23 382 q 45 486 23 453 q 103 539 68 519 q 182 567 138 559 q 270 575 225 575 q 317 573 290 575 q 366 562 343 571 q 404 534 388 553 q 419 481 419 515 q 412 454 416 458 q 398 456 407 449 q 377 477 389 464 q 348 504 365 491 q 307 524 331 517 q 254 524 283 530 q 191 517 222 524 q 135 496 160 511 q 94 456 110 481 q 79 391 79 430 q 97 363 79 370 q 146 355 115 355 q 215 357 176 355 q 294 359 254 359 q 373 353 335 359 q 440 329 411 347 q 486 277 469 311 q 498 189 502 243 q 475 114 498 149 q 418 52 453 79 q 342 11 384 26 q 260 0 300 -4 q 216 9 244 1 q 162 30 189 16 q 117 63 136 43 q 98 110 98 83 z "},"t":{"ha":515,"x_min":18,"x_max":495,"o":"m 193 492 q 159 496 180 496 q 115 493 138 495 q 69 488 91 491 q 33 486 47 486 q 24 505 26 486 q 18 559 22 525 l 209 572 q 214 640 213 620 q 215 675 216 661 q 214 707 214 689 q 213 765 213 726 q 267 768 248 770 q 292 758 285 766 q 298 734 298 750 q 294 696 297 719 q 288 640 290 673 q 290 567 286 608 l 453 572 l 453 506 q 419 505 442 506 q 370 502 396 503 q 321 499 343 500 q 288 494 298 498 q 264 389 277 445 q 248 279 252 334 q 251 178 244 225 q 285 101 258 132 q 362 59 312 71 q 495 66 412 47 q 479 33 492 46 q 450 13 467 20 q 414 2 433 5 q 380 -1 395 -1 q 270 24 311 -1 q 209 90 229 49 q 183 182 189 130 q 180 289 178 235 q 187 396 182 343 q 193 492 193 449 z "},"u":{"ha":621,"x_min":26,"x_max":595,"o":"m 26 526 q 35 540 26 533 q 56 551 43 547 q 81 556 69 555 q 99 552 94 557 q 131 284 107 384 q 185 138 155 184 q 251 92 216 92 q 320 121 286 91 q 383 205 354 152 q 431 319 412 258 q 453 441 449 380 q 442 549 457 502 l 524 559 q 531 492 525 538 q 545 386 537 445 q 562 263 552 327 q 578 144 571 199 q 590 51 585 90 q 595 3 595 12 l 537 3 l 473 237 q 427 146 454 190 q 368 71 400 103 q 301 20 336 38 q 231 5 266 1 q 164 37 197 8 q 104 127 132 65 q 56 286 76 189 q 26 526 35 384 z "},"v":{"ha":540,"x_min":14,"x_max":541,"o":"m 14 600 l 56 642 l 354 99 l 481 624 q 502 618 491 620 q 522 614 513 616 q 536 609 530 612 q 541 600 541 606 q 508 437 524 513 q 475 289 492 361 q 437 144 457 217 q 389 -7 416 72 l 336 -7 l 14 600 z "},"w":{"ha":769,"x_min":19,"x_max":723,"o":"m 283 18 l 19 624 l 54 661 l 279 156 l 382 488 l 644 130 q 660 264 656 197 q 663 398 663 331 q 661 534 662 465 q 665 673 661 604 l 723 651 q 723 479 723 549 q 723 360 723 408 q 722 282 723 312 q 721 231 722 252 q 718 191 720 209 q 711 150 715 172 q 701 95 707 127 q 688 9 696 62 q 606 91 646 42 q 532 189 567 140 q 467 279 498 237 q 410 339 435 320 l 283 18 z "},"x":{"ha":534,"x_min":14,"x_max":521,"o":"m 14 624 l 39 651 l 248 416 l 378 677 l 431 639 l 298 351 q 298 345 298 350 q 300 339 298 340 q 351 271 317 315 q 419 179 384 227 q 484 87 454 132 q 521 18 513 42 l 469 -8 l 274 260 q 239 216 258 250 q 203 143 221 183 q 170 66 184 103 q 145 11 155 30 l 91 26 l 198 323 l 14 624 z "},"y":{"ha":521,"x_min":14,"x_max":498,"o":"m 290 -556 q 302 -416 290 -488 q 328 -273 315 -345 q 349 -129 340 -201 q 351 12 358 -57 l 14 585 q 61 615 43 612 q 81 616 79 618 q 113 566 91 602 q 165 480 136 529 q 227 377 194 431 q 288 274 259 323 q 338 187 317 225 q 368 134 359 149 l 430 637 l 498 604 l 351 -560 l 290 -556 z "},"z":{"ha":651,"x_min":19,"x_max":612,"o":"m 149 286 l 144 347 l 273 354 l 384 572 l 26 549 l 19 600 q 47 603 20 600 q 115 612 73 606 q 207 624 156 617 q 308 636 258 631 q 403 646 358 642 q 477 652 448 651 l 357 354 l 486 363 l 488 300 l 298 286 l 220 62 q 416 60 319 58 q 612 62 513 62 l 612 18 q 579 16 608 18 q 506 12 551 15 q 408 7 461 9 q 302 2 355 4 q 203 0 250 0 q 127 3 156 0 l 224 286 l 149 286 z "},"{":{"ha":404,"x_min":14,"x_max":384,"o":"m 14 312 q 51 390 28 355 q 94 459 73 425 q 130 532 115 494 q 144 624 144 571 q 140 679 144 652 q 130 732 136 705 q 120 785 125 758 q 115 840 115 812 q 134 909 115 876 q 180 965 152 941 q 244 1003 209 989 q 315 1017 279 1017 q 337 1016 324 1017 q 360 1009 350 1015 q 377 995 370 1004 q 384 971 384 986 q 319 964 357 971 q 249 941 282 958 q 192 899 216 925 q 168 836 168 873 q 173 779 168 807 q 184 722 178 750 q 195 665 190 693 q 199 606 199 636 q 190 541 199 571 q 170 482 180 511 q 151 425 160 453 q 141 363 141 396 q 142 349 141 358 q 144 339 142 339 q 181 234 168 277 q 203 159 194 191 q 220 102 213 127 q 243 52 228 77 q 283 -5 258 26 q 351 -79 308 -35 q 355 -92 355 -84 q 351 -109 355 -100 q 340 -123 347 -117 q 327 -130 334 -129 q 248 -113 278 -130 q 201 -68 218 -96 q 176 -2 184 -39 q 162 75 168 35 q 149 154 156 115 q 126 225 141 193 q 85 281 111 258 q 14 312 58 304 z "},"|":{"ha":197,"x_min":39,"x_max":119,"o":"m 43 1116 q 43 1135 43 1120 q 49 1165 43 1150 q 66 1187 54 1180 q 103 1185 79 1195 q 104 1149 103 1185 q 106 1052 104 1114 q 108 907 107 990 q 110 730 109 823 q 113 536 111 636 q 116 342 115 437 q 118 161 117 247 q 119 9 119 76 q 117 -12 119 -3 q 109 -26 115 -20 q 93 -35 103 -31 q 64 -38 83 -38 q 62 -3 62 -37 q 60 87 61 30 q 56 220 58 144 q 52 381 54 296 q 48 557 50 467 q 44 734 46 648 q 41 897 42 819 q 39 1035 41 975 q 40 1047 39 1036 q 41 1071 41 1058 q 43 1097 42 1084 q 43 1116 43 1109 z "},"}":{"ha":469,"x_min":11,"x_max":449,"o":"m 279 -118 q 338 -98 316 -109 q 371 -71 359 -87 q 385 -37 382 -56 q 388 7 388 -18 q 383 62 388 26 q 370 145 378 99 q 351 241 362 191 q 327 333 339 290 q 302 409 315 376 q 279 454 290 442 q 291 650 290 571 q 286 781 292 730 q 268 859 279 831 q 243 901 256 887 q 215 918 229 914 q 190 925 201 921 q 144 921 165 925 q 100 911 122 917 q 57 900 79 905 q 11 895 35 895 q 31 945 11 925 q 79 979 50 966 q 138 997 107 991 q 189 1002 168 1002 q 266 985 233 1002 q 319 938 298 967 q 349 871 339 909 q 359 795 359 834 q 353 699 359 746 q 341 612 347 652 q 331 538 335 571 q 332 481 327 505 q 398 381 376 437 q 431 265 420 326 q 444 142 441 205 q 449 18 446 79 q 439 -50 449 -19 q 408 -102 429 -80 q 355 -137 387 -125 q 279 -149 323 -149 l 279 -118 z "},"~":{"ha":422,"x_min":58,"x_max":372,"o":"m 148 746 q 124 749 133 757 q 109 726 115 742 q 96 692 102 711 q 85 663 91 674 q 73 654 80 652 q 58 681 66 656 q 79 770 58 745 q 145 796 99 796 q 188 767 171 784 q 219 736 205 750 q 245 713 233 722 q 270 711 256 705 q 301 739 283 716 q 343 808 319 761 q 361 802 351 808 q 372 781 372 795 q 329 698 350 726 q 289 663 308 670 q 251 663 270 655 q 214 686 232 671 q 180 718 197 701 q 148 746 164 734 z "},"":{"ha":521,"x_min":0,"x_max":0,"o":""},"":{"ha":214,"x_min":42,"x_max":213,"o":"m 151 807 q 111 766 122 788 q 101 725 100 745 q 116 692 103 706 q 144 675 128 678 q 179 685 161 673 q 213 731 198 697 q 208 757 213 744 q 196 781 204 770 q 176 799 188 792 q 151 807 165 807 m 162 731 q 155 735 157 731 q 152 744 152 739 q 155 754 152 750 q 162 756 157 757 q 173 744 173 754 q 162 731 173 735 m 43 -18 q 45 -34 43 -30 q 52 -39 47 -38 q 68 -40 58 -40 q 92 -46 77 -41 l 162 537 q 151 541 160 539 q 139 544 143 544 q 116 538 124 544 q 103 522 107 532 q 97 496 98 511 q 92 465 95 482 q 89 432 91 459 q 81 367 86 406 q 71 280 76 327 q 62 186 66 232 q 52 97 57 139 q 44 27 47 55 q 44 20 44 27 q 43 5 43 14 q 43 -10 43 -3 q 43 -18 43 -17 z "},"":{"ha":509,"x_min":26,"x_max":475,"o":"m 233 632 q 233 650 233 636 q 239 680 233 665 q 256 702 244 694 q 294 701 269 709 q 294 668 294 700 q 294 579 294 636 q 334 565 319 579 q 357 529 350 551 q 368 481 365 507 q 371 427 370 454 q 371 377 372 400 q 373 339 370 354 l 339 339 q 336 367 338 346 q 329 413 334 388 q 317 464 324 438 q 296 506 309 490 q 298 302 297 416 q 300 64 298 187 q 342 85 321 73 q 385 109 363 98 q 428 127 406 119 q 475 134 450 134 q 458 85 475 107 q 417 46 442 62 q 361 20 392 30 q 300 3 331 9 q 300 -14 300 -5 q 301 -33 301 -23 q 297 -47 300 -45 q 288 -47 294 -49 q 269 -41 281 -45 q 241 -38 258 -38 q 237 -3 237 -35 q 153 16 191 -3 q 85 67 114 35 q 41 142 57 99 q 26 232 26 184 q 39 332 26 278 q 77 436 52 387 q 142 524 103 486 q 231 574 180 562 l 233 632 m 77 262 q 87 188 79 228 q 113 115 95 148 q 161 62 132 83 q 235 50 191 42 l 236 50 q 234 138 235 87 q 233 249 233 189 q 232 378 233 309 q 229 519 231 446 q 169 477 197 509 q 121 406 141 445 q 89 328 100 368 q 77 262 77 289 z "},"":{"ha":665,"x_min":16,"x_max":591,"o":"m 23 410 q 30 412 24 411 q 53 415 35 414 q 79 416 62 416 q 79 586 72 518 q 117 714 90 673 q 180 766 145 755 q 254 764 216 777 q 321 729 292 750 q 368 684 351 708 q 377 650 384 661 q 334 650 370 640 q 224 705 298 661 q 178 701 195 722 q 154 635 161 681 q 145 522 146 589 q 148 422 145 475 q 202 427 171 425 q 231 431 214 429 q 264 432 248 433 q 294 429 281 431 q 311 419 307 426 q 309 402 316 412 q 279 376 302 392 q 227 370 247 372 q 188 367 206 368 q 151 365 170 366 q 160 233 155 300 q 176 91 168 157 q 294 127 237 118 q 401 132 350 136 q 500 113 453 127 q 591 77 548 99 l 583 28 q 535 43 568 37 q 459 52 502 49 q 369 56 416 56 q 277 53 321 57 q 198 40 233 49 q 144 18 163 31 q 83 359 98 221 q 72 359 79 359 q 56 357 64 358 q 46 357 47 357 q 31 357 38 357 q 20 363 23 358 q 17 378 16 368 q 23 410 18 389 z "},"":{"ha":602,"x_min":31,"x_max":587,"o":"m 99 248 q 102 303 99 273 q 113 367 106 334 q 132 433 119 400 q 159 496 144 465 l 80 624 l 106 651 l 193 553 q 253 609 218 587 q 332 631 288 631 q 391 615 363 631 q 441 572 418 600 l 494 639 l 548 600 l 481 510 q 517 411 506 465 q 526 304 529 357 q 498 163 526 227 q 554 79 529 118 q 587 18 579 41 l 534 -8 l 458 98 q 385 33 426 58 q 302 1 345 8 q 221 6 260 -7 q 153 54 182 19 q 109 1 127 24 q 85 -37 91 -23 l 31 -23 l 121 111 q 104 171 110 137 q 99 248 99 205 m 145 252 q 173 125 148 170 q 233 66 198 80 q 309 65 269 52 q 385 113 350 79 q 445 200 420 148 q 473 317 469 252 q 465 412 473 366 q 437 494 456 458 q 391 551 418 530 q 331 572 365 572 q 272 555 298 572 q 225 511 245 538 q 190 449 205 484 q 165 378 175 414 q 150 310 155 343 q 145 252 145 277 z "},"":{"ha":473,"x_min":-15,"x_max":514,"o":"m 96 372 q 169 380 129 376 q 254 389 209 384 l 254 442 q 207 517 232 472 q 156 613 182 562 q 104 720 130 665 q 56 828 79 776 q 14 925 33 880 q -15 1001 -4 970 l 9 1027 l 278 521 q 311 646 290 576 q 355 785 331 715 q 408 919 380 856 q 463 1028 435 982 q 469 1029 465 1029 q 476 1029 473 1029 q 488 1028 480 1029 q 503 1023 495 1027 q 514 1015 510 1020 q 514 1002 518 1010 q 469 909 498 967 q 412 777 441 850 q 360 618 384 703 q 327 445 336 533 l 327 396 q 391 399 358 397 q 453 400 423 400 l 453 346 l 324 340 l 324 252 q 421 252 380 254 q 471 241 463 251 l 471 209 q 459 208 471 209 q 427 207 448 208 q 380 205 407 206 q 324 205 354 205 l 323 26 q 319 3 321 11 q 310 -8 317 -4 q 290 -13 302 -12 q 254 -14 277 -14 l 254 201 q 170 196 209 199 q 106 190 132 193 q 104 195 104 190 q 104 208 104 201 q 104 222 104 216 q 102 229 103 228 q 161 239 119 233 q 254 248 202 244 l 254 338 l 96 332 l 96 372 z "},"":{"ha":197,"x_min":58,"x_max":146,"o":"m 133 526 q 138 399 136 461 q 142 285 140 338 q 144 191 144 232 q 146 127 145 149 q 146 118 146 125 q 144 102 145 111 q 143 83 144 92 q 142 71 142 75 q 141 51 141 62 q 138 28 141 39 q 130 9 136 18 q 110 -1 123 0 l 87 27 q 84 71 85 28 q 80 182 83 113 q 74 340 77 251 q 68 524 71 429 l 133 526 m 60 567 q 58 669 58 625 q 59 752 58 713 q 60 825 60 791 q 60 899 61 860 q 60 921 60 905 q 62 954 61 937 q 63 987 62 971 q 64 1009 64 1002 q 97 999 83 1006 q 119 972 111 991 q 125 817 121 918 q 136 563 130 716 l 60 567 z "},"":{"ha":538,"x_min":42,"x_max":518,"o":"m 47 159 q 101 142 72 159 q 159 104 130 125 q 218 66 189 83 q 271 50 247 50 q 333 54 300 50 q 395 68 366 58 q 444 99 425 79 q 463 149 463 119 q 461 168 461 157 q 456 190 461 178 q 437 217 450 202 q 396 250 425 232 q 338 233 368 236 q 279 225 308 229 q 204 231 241 221 q 137 263 167 241 q 89 315 107 285 q 71 378 71 345 q 92 447 71 412 q 163 514 113 481 q 157 513 160 514 q 149 513 153 513 q 110 524 129 513 q 76 551 91 534 q 52 588 61 568 q 42 627 42 608 q 64 712 42 678 q 122 766 87 746 q 201 794 157 787 q 290 802 245 802 q 336 800 311 802 q 385 788 362 798 q 423 760 408 779 q 438 708 438 742 q 431 680 437 685 q 418 682 426 675 q 397 703 410 689 q 367 730 384 718 q 326 749 350 742 q 274 750 302 755 q 207 744 241 750 q 146 722 172 738 q 104 681 119 707 q 98 616 90 655 q 125 581 103 591 q 179 568 146 571 q 251 568 212 566 q 330 571 290 571 q 406 567 369 571 q 469 547 442 563 q 509 499 495 530 q 518 415 524 468 q 511 381 518 400 q 492 344 503 362 q 469 308 481 326 q 444 278 456 290 q 475 260 461 270 q 497 236 488 251 q 510 199 506 221 q 513 148 514 178 q 488 78 513 109 q 425 28 463 47 q 343 0 388 8 q 260 0 298 -8 q 220 12 243 3 q 172 33 197 20 q 122 60 146 45 q 80 92 98 75 q 53 125 62 109 q 47 159 43 142 m 407 316 q 449 361 433 335 q 465 418 465 387 q 420 494 464 469 q 311 514 377 519 q 243 504 278 514 q 180 473 209 494 q 134 422 152 453 q 115 353 115 392 q 134 321 115 340 q 189 290 152 302 q 280 281 225 278 q 407 316 335 283 z "},"":{"ha":471,"x_min":62,"x_max":393,"o":"m 62 738 q 64 769 58 758 q 80 785 69 780 q 104 792 91 791 q 129 793 118 793 q 153 792 140 793 q 176 785 165 791 q 193 769 187 780 q 193 738 198 758 q 170 701 189 719 q 129 684 151 684 q 107 688 118 684 q 87 701 96 693 q 73 719 79 709 q 62 738 66 728 m 263 738 q 264 769 258 758 q 281 785 270 780 q 305 792 292 791 q 330 793 319 793 q 353 792 339 793 q 377 785 366 791 q 393 769 388 780 q 393 738 399 758 q 385 719 392 728 q 370 701 378 709 q 350 688 361 693 q 330 684 339 684 q 288 701 307 684 q 263 738 269 719 z "},"":{"ha":705,"x_min":31,"x_max":669,"o":"m 172 307 q 187 400 172 347 q 228 500 202 453 q 290 578 254 547 q 368 610 327 610 q 406 604 391 614 q 429 574 420 594 q 444 530 438 555 q 452 479 449 505 q 456 433 454 454 q 458 397 457 411 l 416 387 q 414 418 416 393 q 406 469 412 442 q 390 515 400 495 q 362 536 380 536 q 313 512 335 536 q 272 454 290 488 q 243 384 254 420 q 233 323 233 347 q 241 265 235 297 q 260 207 247 233 q 294 165 273 180 q 345 156 315 149 q 388 166 368 156 q 429 189 408 176 q 469 211 449 201 q 513 221 490 221 q 494 170 513 193 q 450 130 476 146 q 394 104 423 114 q 345 95 365 95 q 281 114 312 95 q 226 163 250 133 q 187 231 202 193 q 172 307 172 269 m 31 372 q 45 498 30 433 q 94 621 60 564 q 184 716 127 677 q 323 762 241 755 q 431 739 381 761 q 519 680 480 716 q 589 595 559 643 q 638 494 620 547 q 665 385 656 441 q 669 277 673 328 q 626 114 661 182 q 541 3 591 46 q 430 -60 491 -39 q 307 -81 369 -80 q 202 -60 245 -81 q 127 -3 159 -39 q 77 79 96 33 q 48 175 58 125 q 35 276 38 225 q 31 372 31 327 m 83 372 q 85 297 83 338 q 93 214 87 256 q 111 133 99 172 q 143 63 122 94 q 196 14 164 33 q 274 -5 228 -5 q 395 -4 338 -15 q 499 41 453 7 q 576 134 545 75 q 614 277 606 193 q 614 355 620 311 q 590 448 608 400 q 545 543 572 496 q 484 627 518 590 q 408 687 449 665 q 324 709 368 709 q 218 665 263 703 q 142 576 172 627 q 98 469 113 525 q 83 372 83 414 z "},"":{"ha":304,"x_min":15,"x_max":283,"o":"m 15 239 q 43 303 15 283 q 115 323 70 323 q 147 322 132 323 q 176 318 163 321 q 204 309 190 315 q 232 291 217 303 q 233 301 232 294 q 233 317 233 308 q 233 332 233 325 q 233 343 233 339 q 232 378 232 356 q 228 423 232 400 q 213 466 224 446 q 175 498 201 487 q 141 492 156 498 q 109 481 125 487 q 78 470 94 475 q 44 465 62 465 q 57 497 44 484 q 90 516 71 509 q 130 525 109 523 q 167 528 151 528 q 196 522 183 525 q 221 510 210 519 q 243 482 233 501 q 261 430 253 463 q 274 344 268 396 q 283 218 279 293 q 275 201 285 208 q 251 189 266 193 q 215 180 235 184 q 176 175 196 177 q 137 173 156 174 q 107 172 119 172 q 75 177 91 172 q 45 190 59 181 q 23 211 32 199 q 15 239 15 224 m 129 293 q 68 267 85 282 q 52 239 50 252 q 73 214 54 225 q 117 199 91 203 q 174 203 143 196 q 232 232 204 210 q 211 266 222 254 q 189 284 201 278 q 162 291 176 290 q 129 293 147 293 z "},"":{"ha":646,"x_min":43,"x_max":628,"o":"m 43 221 q 44 229 43 224 q 46 233 45 233 l 332 624 l 363 624 q 349 555 363 591 q 313 482 335 518 q 262 412 290 446 q 207 349 233 378 q 158 297 180 320 q 123 260 136 274 l 123 209 q 158 195 136 205 q 209 172 180 184 q 268 145 237 159 q 327 118 298 132 q 378 94 355 104 q 410 79 400 83 q 422 69 414 76 q 438 54 430 62 q 454 38 446 46 q 463 26 461 30 q 446 4 454 9 q 425 -1 438 -1 q 381 14 414 -1 q 307 51 349 28 q 218 100 264 73 q 134 151 172 126 q 69 195 95 176 q 43 221 43 214 m 209 263 q 210 270 209 266 q 212 275 210 274 l 498 666 l 530 666 q 515 595 530 632 q 478 524 500 559 q 428 454 456 488 q 373 391 400 420 q 323 338 346 362 q 290 302 301 315 l 290 250 q 323 235 301 245 q 374 213 346 225 q 434 186 403 201 q 493 159 465 172 q 543 136 521 146 q 575 119 566 125 q 587 111 579 118 q 604 96 595 104 q 618 79 612 87 q 628 68 625 72 q 612 46 620 52 q 590 41 604 41 q 547 56 579 41 q 472 93 514 71 q 384 142 430 115 q 299 193 338 168 q 235 237 260 217 q 209 263 209 256 z "},"":{"ha":526,"x_min":43,"x_max":475,"o":"m 412 363 l 46 338 l 43 406 q 141 399 87 393 q 252 414 195 404 q 364 429 308 423 q 471 423 420 435 q 466 364 467 384 q 467 326 465 345 q 471 279 468 307 q 475 198 473 252 q 448 186 464 183 q 412 189 431 189 l 412 248 l 412 363 z "},"":{"ha":528,"x_min":19,"x_max":492,"o":"m 46 312 q 77 318 46 313 q 155 328 107 323 q 262 339 202 334 q 382 350 321 345 q 404 351 388 350 q 437 352 420 351 q 470 353 454 353 q 492 354 486 354 q 485 321 492 336 q 461 298 477 307 q 380 290 429 294 q 279 279 331 285 q 179 269 228 274 q 98 260 130 263 q 85 260 95 260 q 69 259 75 259 q 39 262 52 259 q 19 286 27 264 l 46 312 z "},"":{"ha":703,"x_min":35,"x_max":678,"o":"m 510 132 q 497 181 505 148 q 475 247 490 214 q 438 303 461 279 q 380 327 415 327 q 354 325 370 327 q 322 319 338 323 q 295 309 307 315 q 283 296 283 302 l 283 141 q 273 140 281 141 q 256 138 264 140 q 241 138 247 137 q 235 141 235 138 l 240 490 q 217 470 221 486 q 213 441 213 454 q 202 446 209 441 q 189 457 195 450 q 176 470 182 464 q 171 479 171 476 q 196 528 171 505 q 254 568 221 551 q 323 596 288 586 q 380 606 358 606 q 420 601 400 606 q 457 584 441 595 q 484 555 473 572 q 495 514 495 538 q 488 474 495 494 q 469 436 481 454 q 443 401 457 418 q 415 372 429 385 q 490 314 465 342 q 525 258 514 286 q 541 201 536 231 q 556 140 545 172 l 510 132 m 385 559 q 360 557 377 559 q 327 552 343 556 q 297 540 311 548 q 283 518 283 532 l 283 347 q 338 365 309 347 q 393 408 368 382 q 436 461 419 433 q 453 513 453 490 q 433 551 453 543 q 385 559 414 559 m 35 380 q 41 474 35 425 q 62 572 47 524 q 98 664 76 620 q 153 741 121 708 q 227 795 184 774 q 324 815 270 815 q 431 810 380 829 q 524 750 481 791 q 598 652 566 709 q 651 532 631 595 q 677 404 671 468 q 673 286 684 339 q 630 122 665 190 q 545 12 595 54 q 434 -52 495 -31 q 311 -73 373 -72 q 207 -52 251 -73 q 132 5 163 -31 q 83 87 102 41 q 53 183 64 133 q 39 284 42 233 q 35 380 35 335 m 87 380 q 89 306 87 347 q 97 222 91 264 q 115 141 103 180 q 147 71 126 102 q 200 22 168 41 q 278 3 232 3 q 399 4 342 -7 q 503 49 457 15 q 580 142 549 83 q 618 286 610 201 q 623 376 628 323 q 600 484 617 429 q 557 592 583 538 q 495 686 530 646 q 417 749 460 727 q 327 764 374 770 q 251 745 285 764 q 191 693 217 726 q 144 620 164 661 q 112 536 125 579 q 93 453 99 494 q 87 380 87 412 z "},"":{"ha":612,"x_min":42,"x_max":547,"o":"m 58 697 l 547 701 l 547 650 q 497 652 533 652 q 414 650 461 651 q 312 646 366 648 q 206 644 258 643 q 111 647 155 644 q 42 659 68 650 l 58 697 z "},"":{"ha":312,"x_min":12,"x_max":301,"o":"m 12 352 q 16 395 12 371 q 28 445 20 420 q 48 495 36 470 q 78 538 61 519 q 118 569 95 557 q 169 581 141 581 q 223 563 198 581 q 266 517 249 545 q 293 453 284 488 q 301 385 302 418 q 280 298 301 337 q 226 237 259 260 q 157 205 194 213 q 88 210 120 197 q 34 257 55 222 q 12 352 12 292 m 46 349 q 65 272 49 299 q 105 237 82 246 q 156 237 128 229 q 207 266 183 245 q 247 317 230 286 q 266 388 264 349 q 261 444 268 417 q 242 493 254 472 q 212 528 229 515 q 171 540 194 540 q 132 530 149 540 q 100 504 115 521 q 76 466 86 487 q 59 424 66 445 q 49 383 53 403 q 46 349 46 363 z "},"":{"ha":444,"x_min":20,"x_max":415,"o":"m 58 180 q 87 184 60 183 q 175 191 114 186 q 173 228 174 213 q 172 256 172 243 q 172 285 172 270 q 171 320 172 300 l 31 320 l 20 378 l 180 388 l 180 551 q 224 559 203 559 q 254 551 244 559 l 258 401 l 415 401 l 415 342 q 327 334 368 338 q 258 331 286 331 l 252 198 q 266 199 259 198 q 281 201 273 199 q 302 201 286 201 q 336 203 319 202 q 370 204 354 203 q 392 205 385 205 q 384 171 392 186 q 359 148 376 156 q 235 138 294 141 q 111 129 176 134 q 98 128 109 129 q 81 127 87 127 q 52 130 64 127 q 33 156 39 133 l 58 180 z "},"":{"ha":437,"x_min":14,"x_max":415,"o":"m 172 228 q 128 213 148 216 q 83 211 108 211 q 61 212 73 211 q 39 218 49 213 q 22 230 28 222 q 15 252 15 238 q 33 264 15 260 q 78 272 51 267 q 137 285 105 276 q 196 314 169 294 q 242 370 224 335 q 260 462 260 406 q 256 512 260 486 q 240 559 251 538 q 207 595 228 580 q 153 609 186 609 q 129 604 139 609 q 109 590 118 598 q 92 572 100 582 q 74 554 84 562 q 54 540 65 546 q 26 535 43 535 q 38 577 26 557 q 67 611 49 596 q 109 633 86 625 q 155 642 131 642 q 220 625 191 642 q 269 583 249 609 q 300 526 289 557 q 311 466 311 496 q 302 409 311 437 q 278 354 293 381 q 245 304 263 328 q 207 260 226 280 q 253 235 226 244 q 307 221 279 226 q 362 214 335 216 q 413 212 390 212 q 414 208 414 211 q 415 204 415 205 q 407 190 415 195 q 390 182 400 185 q 370 179 381 180 q 352 179 359 179 q 306 183 328 179 q 263 194 285 187 q 219 210 242 201 q 172 228 197 218 m 121 243 q 117 249 122 247 q 104 251 111 251 q 90 249 96 251 q 86 243 84 247 q 93 238 88 240 q 104 236 98 236 q 113 238 109 236 q 121 243 118 240 z "},"":{"ha":354,"x_min":24,"x_max":328,"o":"m 47 244 q 74 241 60 244 q 101 234 87 238 q 128 227 114 230 q 156 224 142 224 q 209 233 183 224 q 254 259 234 242 q 285 300 273 276 q 296 356 296 325 q 286 397 296 379 q 261 428 277 415 q 225 448 245 440 q 187 455 206 455 q 179 455 184 455 q 169 455 173 455 q 160 454 164 454 q 156 453 156 453 q 147 451 154 453 q 132 445 140 448 q 117 440 125 442 q 108 437 110 437 q 104 439 107 437 q 99 443 102 440 q 95 449 96 446 q 93 453 93 452 q 112 472 98 458 q 140 502 125 486 q 169 531 156 517 q 186 551 182 545 q 195 563 190 555 q 205 578 200 570 q 214 592 210 586 q 217 600 217 598 q 199 636 212 627 q 167 642 186 644 q 128 628 149 639 q 88 603 108 616 q 52 578 69 590 q 25 563 35 567 q 42 613 25 591 q 83 651 59 635 q 136 674 108 666 q 188 682 164 682 q 210 675 199 682 q 229 657 221 668 q 244 633 238 646 q 249 609 249 620 q 244 580 249 595 q 234 551 240 565 q 218 525 227 537 q 203 502 210 512 q 246 483 224 495 q 286 453 268 470 q 316 413 304 435 q 327 364 327 390 q 315 296 327 328 q 282 241 303 264 q 232 204 261 217 q 169 191 203 191 q 140 191 160 191 q 99 195 120 192 q 62 205 78 199 q 47 225 47 212 l 47 244 z "},"":{"ha":245,"x_min":28,"x_max":206,"o":"m 206 840 q 171 797 189 815 q 136 760 153 779 q 103 722 119 742 q 68 681 87 703 l 28 701 q 102 800 76 762 q 140 857 127 838 q 157 880 153 876 q 165 878 161 883 q 176 861 168 872 q 206 840 184 849 z "},"":{"ha":621,"x_min":26,"x_max":595,"o":"m 26 526 q 35 540 26 533 q 56 551 43 547 q 81 556 69 555 q 99 552 94 557 q 131 284 107 384 q 185 138 155 184 q 251 92 216 92 q 320 121 286 91 q 383 205 354 152 q 431 319 412 258 q 453 441 449 380 q 442 549 457 502 l 524 559 q 531 492 525 538 q 545 386 537 445 q 562 263 552 327 q 578 144 571 199 q 590 51 585 90 q 595 3 595 12 l 537 3 l 473 237 q 428 152 456 193 q 368 81 400 111 q 298 35 335 52 q 226 20 262 19 q 156 45 190 22 q 95 119 122 69 l 87 -38 q 70 -41 80 -39 q 51 -44 60 -43 q 35 -41 42 -45 q 30 -26 28 -38 q 32 36 30 -4 q 36 126 34 76 q 38 233 38 176 q 38 345 38 290 q 35 446 38 399 q 26 526 31 494 z "},"":{"ha":505,"x_min":14,"x_max":494,"o":"m 302 376 q 254 331 275 347 q 213 307 233 315 q 170 295 193 298 q 117 292 148 292 q 73 302 92 292 q 41 332 54 313 q 21 374 28 350 q 14 427 14 399 q 198 612 14 612 q 259 612 227 612 q 326 610 292 612 q 395 604 359 609 q 465 589 431 600 q 473 474 469 514 q 479 413 477 434 q 482 380 481 392 q 484 350 483 369 q 484 294 484 331 q 484 186 484 258 q 486 145 484 171 q 489 95 487 119 q 492 52 491 71 q 494 31 494 33 l 437 19 q 433 116 434 75 q 430 193 431 157 q 427 262 429 229 q 425 334 426 294 q 420 421 423 373 q 414 536 418 469 q 403 537 408 536 q 391 538 397 538 q 380 541 385 538 q 380 536 380 538 q 380 530 380 533 q 388 415 384 467 q 395 314 392 363 q 400 212 399 264 q 401 92 401 159 q 401 79 401 88 q 401 60 401 71 q 400 39 400 49 q 400 27 400 30 q 354 31 368 18 q 338 74 340 45 q 338 142 335 103 q 342 224 342 182 q 334 306 342 266 q 302 376 327 346 z "},"":{"ha":233,"x_min":79,"x_max":202,"o":"m 134 225 q 90 267 102 244 q 79 311 77 290 q 94 348 81 332 q 125 366 107 363 q 165 355 144 368 q 202 307 186 342 q 197 277 202 292 q 184 252 193 263 q 162 233 175 240 q 134 225 149 225 m 146 305 q 138 302 140 307 q 136 292 136 298 q 138 281 136 286 q 146 278 140 277 q 159 292 159 282 q 146 305 159 302 z "},"":{"ha":439,"x_min":125,"x_max":389,"o":"m 129 -214 q 159 -221 145 -214 q 188 -237 174 -228 q 216 -254 202 -247 q 247 -260 231 -260 q 289 -253 266 -263 q 330 -226 312 -243 q 357 -189 349 -209 q 353 -156 365 -170 q 305 -137 342 -142 q 197 -141 269 -132 q 171 -133 184 -141 q 147 -111 157 -125 q 131 -81 137 -96 q 125 -52 125 -65 q 130 14 118 -11 q 155 41 141 39 q 174 20 168 43 q 161 -60 180 -3 q 178 -85 161 -80 q 220 -88 195 -90 q 275 -85 245 -87 q 330 -90 305 -83 q 372 -120 355 -98 q 389 -190 389 -142 q 376 -242 389 -220 q 340 -279 362 -264 q 292 -298 319 -293 q 240 -300 266 -304 q 210 -294 229 -300 q 174 -277 191 -288 q 142 -251 156 -267 q 129 -214 129 -235 z "},"":{"ha":350,"x_min":22,"x_max":326,"o":"m 26 202 q 51 206 42 205 q 66 208 60 207 q 76 209 71 209 q 87 210 80 209 q 106 212 94 210 q 139 218 117 213 q 152 264 147 238 q 159 320 156 290 q 162 381 161 350 q 165 444 164 413 q 167 504 166 475 q 173 556 169 533 q 169 557 172 556 q 165 557 166 557 q 129 551 146 557 q 96 536 112 544 q 62 522 79 529 q 26 515 45 515 l 22 542 q 34 547 23 542 q 60 557 44 551 q 97 569 76 562 q 138 583 117 576 q 176 594 158 589 q 207 601 193 599 l 207 231 q 230 223 214 224 q 262 223 245 222 q 296 224 279 224 q 325 223 313 225 l 324 193 q 254 190 289 193 q 184 183 219 187 q 115 177 150 180 q 47 174 81 174 q 35 183 37 174 q 26 202 32 192 z "},"":{"ha":312,"x_min":12,"x_max":301,"o":"m 12 352 q 16 395 12 371 q 28 445 20 420 q 48 495 36 470 q 78 538 61 519 q 118 569 95 557 q 169 581 141 581 q 223 563 198 581 q 266 517 249 545 q 293 453 284 488 q 301 385 302 418 q 280 298 301 337 q 226 237 259 260 q 157 205 194 213 q 88 210 120 197 q 34 257 55 222 q 12 352 12 292 m 46 349 q 65 272 49 299 q 105 237 82 246 q 156 237 128 229 q 207 266 183 245 q 247 317 230 286 q 266 388 264 349 q 261 444 268 417 q 242 493 254 472 q 212 528 229 515 q 171 540 194 540 q 132 530 149 540 q 100 504 115 521 q 76 466 86 487 q 59 424 66 445 q 49 383 53 403 q 46 349 46 363 z "},"":{"ha":654,"x_min":39,"x_max":616,"o":"m 351 363 l 39 624 l 39 703 q 73 675 50 693 q 123 633 95 656 q 182 585 152 610 q 241 536 213 559 q 292 496 270 514 q 327 469 315 477 q 357 452 339 460 q 391 435 374 445 q 420 412 408 425 q 433 378 433 399 q 432 371 433 376 q 430 363 431 366 q 403 325 420 351 q 362 265 385 298 q 313 195 339 232 q 264 124 288 157 q 223 64 241 91 q 197 26 205 38 q 174 2 184 11 q 144 -7 163 -7 l 144 52 l 351 363 m 536 389 l 224 650 l 224 728 q 256 700 233 719 q 307 659 278 681 q 366 610 335 636 q 426 562 397 585 q 477 520 454 538 q 510 494 499 502 q 541 477 522 484 q 575 460 559 469 q 604 437 591 450 q 616 403 616 425 q 616 396 616 400 q 614 389 616 392 q 587 350 605 377 q 546 290 570 323 q 497 220 522 256 q 449 149 472 183 q 408 89 426 115 q 380 50 389 62 q 358 27 369 37 q 328 18 347 18 l 328 77 l 536 389 z "},"":{"ha":854,"x_min":27,"x_max":705,"o":"m 32 222 q 56 226 48 225 q 70 228 65 227 q 80 228 76 228 q 91 229 84 228 q 109 231 98 230 q 141 236 120 232 q 153 279 149 255 q 160 332 157 304 q 164 389 162 359 q 166 447 165 418 q 168 503 167 476 q 173 552 170 530 q 170 553 173 552 q 166 553 167 553 q 132 547 148 553 q 99 533 115 540 q 67 520 83 526 q 32 514 50 514 l 28 539 q 39 543 29 539 q 65 553 49 547 q 100 564 81 558 q 140 577 120 571 q 176 587 159 582 q 206 594 194 592 l 206 249 q 229 242 214 243 q 260 241 243 241 q 293 243 276 242 q 321 241 309 243 l 320 213 q 252 210 286 213 q 185 205 218 208 q 118 199 151 201 q 52 196 85 196 q 40 204 43 196 q 32 222 38 212 m 346 737 q 351 755 348 745 q 358 769 354 765 q 368 766 362 772 q 382 737 374 760 l 228 -11 l 199 30 l 346 737 m 524 284 q 513 284 521 284 q 501 285 504 285 q 454 282 478 285 q 407 276 431 279 q 360 270 384 273 q 312 267 337 267 q 316 326 312 297 q 325 384 320 355 q 333 443 329 413 q 336 501 336 472 q 346 500 340 501 q 356 495 351 498 q 365 489 361 493 q 369 483 369 486 l 369 316 q 381 315 369 316 q 409 313 392 314 q 443 312 425 312 q 478 313 462 312 q 505 317 494 314 q 516 327 516 320 l 516 487 q 527 485 518 487 q 542 481 535 484 q 556 476 550 479 q 561 470 561 473 l 561 334 l 705 334 q 700 318 702 326 q 697 306 699 312 q 693 298 695 300 q 651 293 674 294 q 607 291 627 291 q 573 291 587 291 q 559 291 560 291 l 561 13 l 524 13 l 524 284 z "},"":{"ha":898,"x_min":49,"x_max":711,"o":"m 52 215 q 77 219 69 218 q 91 221 86 221 q 101 222 97 222 q 112 223 105 222 q 131 225 119 224 q 164 231 142 227 q 176 279 171 252 q 182 336 180 305 q 186 399 185 367 q 188 464 188 432 q 191 526 189 496 q 196 580 193 556 q 192 580 195 580 q 188 581 189 581 q 154 574 170 581 q 121 559 137 567 q 88 544 105 551 q 52 537 71 537 l 49 565 q 60 570 50 565 q 86 580 70 575 q 122 593 102 586 q 162 607 142 600 q 199 619 182 613 q 229 626 217 624 l 229 245 q 252 237 237 238 q 284 236 267 236 q 317 238 300 237 q 346 236 334 239 l 345 205 q 276 202 310 205 q 208 196 241 199 q 140 189 174 192 q 73 186 106 186 q 61 196 64 186 q 52 215 58 205 m 491 722 q 498 740 494 730 q 508 753 502 750 q 522 751 514 757 q 543 722 530 745 l 323 -23 l 282 18 l 491 722 m 472 32 q 428 16 448 19 q 384 13 409 13 q 363 15 374 13 q 341 21 351 16 q 324 34 330 26 q 317 57 317 42 q 335 69 317 66 q 379 78 352 73 q 438 92 406 82 q 496 123 469 102 q 541 182 523 144 q 559 279 559 219 q 554 332 559 304 q 539 382 550 359 q 506 420 527 405 q 453 435 486 435 q 429 429 440 435 q 410 415 419 423 q 393 396 401 406 q 376 377 385 385 q 356 362 367 368 q 329 357 344 357 q 340 401 329 380 q 369 436 351 421 q 409 460 387 452 q 455 469 432 469 q 519 452 490 469 q 567 407 547 434 q 598 347 587 380 q 608 283 608 315 q 599 223 608 253 q 576 165 591 193 q 543 112 562 137 q 506 65 525 87 q 551 39 525 48 q 605 24 577 29 q 659 16 632 19 q 709 14 686 14 q 710 10 710 13 q 711 6 711 7 q 704 -9 711 -3 q 687 -17 697 -15 q 667 -20 677 -20 q 649 -21 656 -21 q 604 -16 625 -21 q 562 -5 583 -12 q 518 12 540 3 q 472 32 496 21 m 421 47 q 417 53 423 52 q 404 55 412 55 q 391 53 397 55 q 387 47 385 52 q 394 42 389 44 q 404 40 399 40 q 414 42 410 40 q 421 47 419 44 z "},"":{"ha":1451,"x_min":31,"x_max":1428,"o":"m 66 81 q 112 77 90 81 q 157 66 134 72 q 202 55 179 60 q 250 50 225 50 q 337 64 294 50 q 412 106 380 79 q 464 172 445 133 q 483 262 483 212 q 467 326 483 297 q 424 376 450 355 q 365 408 397 396 q 301 419 332 419 q 287 419 296 419 q 270 418 278 419 q 256 417 262 418 q 248 416 250 416 q 234 412 245 416 q 210 404 222 408 q 184 395 197 399 q 170 391 172 391 q 163 393 167 391 q 154 400 159 396 q 146 409 149 404 q 144 416 144 414 q 175 447 152 425 q 223 494 198 469 q 270 541 248 518 q 300 572 292 563 q 314 591 305 579 q 331 616 323 604 q 345 638 339 628 q 351 651 351 648 q 321 708 343 694 q 268 718 298 722 q 203 695 237 713 q 136 656 168 677 q 75 616 103 635 q 31 591 47 598 q 59 671 31 636 q 127 732 87 707 q 216 770 168 757 q 302 783 263 783 q 339 771 321 783 q 372 742 357 760 q 395 703 387 724 q 404 665 404 682 q 397 619 404 643 q 378 573 389 595 q 353 530 368 551 q 327 494 339 510 q 399 463 362 483 q 467 416 437 444 q 515 352 496 388 q 534 274 534 316 q 515 165 534 216 q 460 77 495 114 q 376 18 425 39 q 270 -3 327 -3 q 222 -2 255 -3 q 154 4 189 -1 q 93 20 119 9 q 66 52 66 31 l 66 81 m 774 730 q 781 748 777 738 q 791 762 785 758 q 806 759 798 765 q 826 730 814 753 l 606 -15 l 566 26 l 774 730 m 1172 521 q 1156 522 1168 521 q 1139 522 1143 522 q 1073 517 1107 522 q 1006 506 1039 511 q 939 495 972 500 q 871 490 906 490 q 876 597 871 544 q 888 703 882 650 q 900 810 895 757 q 905 917 905 864 q 918 914 910 917 q 933 907 926 911 q 945 896 940 902 q 951 884 951 890 l 951 579 q 968 577 952 579 q 1008 574 985 575 q 1057 572 1031 572 q 1106 574 1084 571 q 1144 582 1128 576 q 1160 600 1160 587 l 1160 891 q 1175 888 1164 891 q 1198 881 1187 886 q 1217 871 1208 876 q 1225 860 1225 865 l 1225 612 l 1428 612 q 1421 583 1424 597 q 1417 562 1420 572 q 1412 547 1415 551 q 1352 536 1385 538 q 1290 534 1318 534 q 1242 534 1261 533 q 1221 534 1222 534 l 1225 26 l 1172 26 l 1172 521 z "},"":{"ha":437,"x_min":31,"x_max":407,"o":"m 217 668 q 222 646 217 654 q 241 630 227 638 q 261 646 255 638 q 266 668 266 654 q 261 690 266 682 q 241 705 255 698 q 222 690 227 698 q 217 668 217 682 m 170 320 q 184 272 170 292 q 219 238 198 253 q 266 210 241 223 q 311 182 291 197 q 347 147 332 168 q 361 96 361 126 q 348 63 361 76 q 316 43 334 50 q 276 35 297 37 q 242 33 255 33 q 193 45 216 33 q 148 72 170 56 q 106 99 126 87 q 67 111 86 111 q 46 105 53 111 q 31 85 39 99 q 69 40 47 59 q 116 8 91 21 q 170 -11 142 -4 q 226 -17 198 -17 q 278 -12 248 -17 q 337 8 309 -6 q 386 43 366 21 q 406 96 406 64 q 386 166 406 130 q 337 235 365 202 q 280 293 310 267 q 230 333 249 319 l 230 449 q 196 435 208 449 q 178 401 183 421 q 171 358 172 381 q 170 320 170 336 z "},"":{"ha":540,"x_min":28,"x_max":507,"o":"m 244 845 q 332 816 294 845 q 397 738 369 787 q 444 625 425 689 q 475 492 463 562 q 494 351 487 422 q 503 217 500 279 q 507 104 506 155 q 507 26 507 54 l 475 26 l 423 312 q 393 320 416 319 q 337 319 369 321 q 268 311 305 316 q 197 304 231 307 q 137 303 164 302 q 98 312 110 304 l 98 26 l 28 26 q 29 41 28 30 q 30 65 30 53 q 31 88 30 77 q 33 103 33 99 q 45 262 41 182 q 57 419 50 343 q 75 564 64 495 q 109 690 87 633 q 163 786 130 746 q 244 845 195 826 m 266 783 q 207 758 231 783 q 168 692 183 732 q 145 604 153 652 q 134 508 137 555 q 131 421 132 461 q 130 359 130 381 q 266 370 197 359 q 396 391 335 380 q 398 408 397 396 q 399 435 399 420 q 401 464 400 450 q 401 481 401 477 q 397 567 401 526 q 378 646 392 608 q 337 719 363 685 q 266 783 311 753 m 233 1096 q 271 1052 258 1072 q 293 1013 283 1032 q 313 970 302 993 q 345 914 324 947 q 340 901 345 905 q 329 896 336 898 q 313 892 321 894 q 293 884 304 890 q 266 932 275 914 q 248 964 256 949 q 227 998 239 979 q 195 1047 216 1016 l 233 1096 z "},"":{"ha":540,"x_min":28,"x_max":507,"o":"m 244 845 q 332 816 294 845 q 397 738 369 787 q 444 625 425 689 q 475 492 463 562 q 494 351 487 422 q 503 217 500 279 q 507 104 506 155 q 507 26 507 54 l 475 26 l 423 312 q 393 320 416 319 q 337 319 369 321 q 268 311 305 316 q 197 304 231 307 q 137 303 164 302 q 98 312 110 304 l 98 26 l 28 26 q 29 41 28 30 q 30 65 30 53 q 31 88 30 77 q 33 103 33 99 q 45 262 41 182 q 57 419 50 343 q 75 564 64 495 q 109 690 87 633 q 163 786 130 746 q 244 845 195 826 m 266 783 q 207 758 231 783 q 168 692 183 732 q 145 604 153 652 q 134 508 137 555 q 131 421 132 461 q 130 359 130 381 q 266 370 197 359 q 396 391 335 380 q 398 408 397 396 q 399 435 399 420 q 401 464 400 450 q 401 481 401 477 q 397 567 401 526 q 378 646 392 608 q 337 719 363 685 q 266 783 311 753 m 351 1048 q 316 1006 334 1024 q 281 969 298 987 q 248 931 264 951 q 213 890 232 911 l 174 910 q 247 1009 221 971 q 286 1066 273 1047 q 302 1088 298 1085 q 310 1086 307 1092 q 321 1069 313 1081 q 351 1048 330 1058 z "},"":{"ha":540,"x_min":28,"x_max":507,"o":"m 244 845 q 332 816 294 845 q 397 738 369 787 q 444 625 425 689 q 475 492 463 562 q 494 351 487 422 q 503 217 500 279 q 507 104 506 155 q 507 26 507 54 l 475 26 l 423 312 q 393 320 416 319 q 337 319 369 321 q 268 311 305 316 q 197 304 231 307 q 137 303 164 302 q 98 312 110 304 l 98 26 l 28 26 q 29 41 28 30 q 30 65 30 53 q 31 88 30 77 q 33 103 33 99 q 45 262 41 182 q 57 419 50 343 q 75 564 64 495 q 109 690 87 633 q 163 786 130 746 q 244 845 195 826 m 266 783 q 207 758 231 783 q 168 692 183 732 q 145 604 153 652 q 134 508 137 555 q 131 421 132 461 q 130 359 130 381 q 266 370 197 359 q 396 391 335 380 q 398 408 397 396 q 399 435 399 420 q 401 464 400 450 q 401 481 401 477 q 397 567 401 526 q 378 646 392 608 q 337 719 363 685 q 266 783 311 753 m 283 1126 q 248 1084 266 1103 q 214 1046 231 1065 q 181 1009 198 1028 q 145 967 164 990 l 106 987 l 288 1234 q 330 1181 312 1210 q 365 1122 349 1153 q 397 1058 381 1090 q 434 993 414 1025 q 430 980 434 983 q 418 975 426 977 q 402 970 411 972 q 382 963 393 968 q 355 1010 365 993 q 336 1044 345 1028 q 317 1077 328 1059 q 283 1126 305 1095 z "},"":{"ha":540,"x_min":28,"x_max":507,"o":"m 244 845 q 332 816 294 845 q 397 738 369 787 q 444 625 425 689 q 475 492 463 562 q 494 351 487 422 q 503 217 500 279 q 507 104 506 155 q 507 26 507 54 l 475 26 l 423 312 q 393 320 416 319 q 337 319 369 321 q 268 311 305 316 q 197 304 231 307 q 137 303 164 302 q 98 312 110 304 l 98 26 l 28 26 q 29 41 28 30 q 30 65 30 53 q 31 88 30 77 q 33 103 33 99 q 45 262 41 182 q 57 419 50 343 q 75 564 64 495 q 109 690 87 633 q 163 786 130 746 q 244 845 195 826 m 266 783 q 207 758 231 783 q 168 692 183 732 q 145 604 153 652 q 134 508 137 555 q 131 421 132 461 q 130 359 130 381 q 266 370 197 359 q 396 391 335 380 q 398 408 397 396 q 399 435 399 420 q 401 464 400 450 q 401 481 401 477 q 397 567 401 526 q 378 646 392 608 q 337 719 363 685 q 266 783 311 753 m 202 955 q 178 958 187 966 q 163 935 170 951 q 151 901 156 920 q 140 872 145 883 q 127 863 134 861 q 113 890 121 865 q 133 979 113 954 q 199 1005 153 1005 q 242 976 225 993 q 273 945 259 959 q 299 922 288 930 q 324 920 311 914 q 355 947 338 925 q 397 1017 373 970 q 416 1010 406 1017 q 426 990 426 1004 q 383 907 404 935 q 343 871 362 879 q 305 872 324 864 q 269 895 286 880 q 235 926 251 910 q 202 955 218 943 z "},"":{"ha":540,"x_min":28,"x_max":507,"o":"m 244 845 q 332 816 294 845 q 397 738 369 787 q 444 625 425 689 q 475 492 463 562 q 494 351 487 422 q 503 217 500 279 q 507 104 506 155 q 507 26 507 54 l 475 26 l 423 312 q 393 320 416 319 q 337 319 369 321 q 268 311 305 316 q 197 304 231 307 q 137 303 164 302 q 98 312 110 304 l 98 26 l 28 26 q 29 41 28 30 q 30 65 30 53 q 31 88 30 77 q 33 103 33 99 q 45 262 41 182 q 57 419 50 343 q 75 564 64 495 q 109 690 87 633 q 163 786 130 746 q 244 845 195 826 m 266 783 q 207 758 231 783 q 168 692 183 732 q 145 604 153 652 q 134 508 137 555 q 131 421 132 461 q 130 359 130 381 q 266 370 197 359 q 396 391 335 380 q 398 408 397 396 q 399 435 399 420 q 401 464 400 450 q 401 481 401 477 q 397 567 401 526 q 378 646 392 608 q 337 719 363 685 q 266 783 311 753 m 104 947 q 106 978 100 967 q 122 994 111 989 q 146 1001 133 1000 q 171 1002 160 1002 q 195 1001 182 1002 q 218 994 208 1000 q 235 978 229 989 q 235 947 240 967 q 212 910 231 928 q 171 892 193 892 q 149 897 160 892 q 130 910 138 902 q 115 928 121 918 q 104 947 109 937 m 305 947 q 306 978 300 967 q 323 994 312 989 q 347 1001 334 1000 q 372 1002 361 1002 q 395 1001 381 1002 q 419 994 408 1000 q 435 978 430 989 q 435 947 441 967 q 427 928 434 937 q 412 910 420 918 q 392 897 403 902 q 372 892 381 892 q 330 910 349 892 q 305 947 311 928 z "},"":{"ha":540,"x_min":38,"x_max":518,"o":"m 186 897 q 187 922 186 906 q 195 951 189 937 q 212 975 201 964 q 241 985 222 985 q 315 957 290 985 q 339 892 339 929 q 335 866 339 880 q 323 840 331 852 q 304 819 315 829 q 342 799 324 812 q 408 722 380 770 q 454 609 435 673 q 486 475 473 545 q 504 334 498 406 q 513 201 510 263 q 517 88 517 138 q 518 9 518 38 l 486 9 l 433 296 q 403 304 426 302 q 347 302 380 305 q 278 295 315 300 q 208 288 241 290 q 146 287 174 286 q 107 296 119 288 l 107 9 l 38 9 q 39 25 38 14 q 40 49 39 37 q 41 72 41 61 q 42 87 42 83 q 55 246 50 165 q 67 403 60 327 q 86 548 75 479 q 119 673 98 617 q 172 769 140 730 q 229 817 197 799 l 228 818 q 203 839 213 826 q 190 867 194 852 q 186 897 186 882 m 277 766 q 217 741 241 766 q 178 676 193 716 q 156 587 164 636 q 144 492 148 538 q 140 405 141 445 q 140 343 140 365 q 275 353 206 343 q 407 374 345 363 q 408 392 408 380 q 410 419 408 404 q 412 448 411 434 q 412 465 412 461 q 408 551 412 510 q 389 630 403 591 q 347 703 374 669 q 277 766 320 736 m 213 897 q 240 850 227 860 q 266 845 254 840 q 288 866 278 850 q 302 899 297 882 q 281 941 298 928 q 248 954 264 955 q 219 939 231 954 q 213 897 208 925 z "},"":{"ha":1077,"x_min":28,"x_max":1043,"o":"m 404 730 q 462 783 426 761 q 543 821 498 806 q 637 844 587 836 q 737 856 688 852 q 832 861 787 860 q 913 863 878 863 q 926 862 917 863 q 945 861 935 861 q 965 860 956 860 q 978 860 974 860 q 972 819 983 830 q 942 805 960 807 q 904 806 924 803 q 873 807 884 810 q 831 800 860 806 q 767 786 803 793 q 692 770 731 779 q 616 753 652 761 q 551 739 579 746 q 510 730 522 732 q 484 709 487 722 q 481 681 481 697 q 486 617 481 652 q 494 547 490 582 q 503 484 498 513 q 510 442 507 456 q 529 441 514 441 l 549 441 q 610 446 581 441 q 671 458 640 452 q 732 470 701 465 q 795 475 762 475 l 795 425 q 758 422 783 425 q 703 415 732 420 q 644 404 674 410 q 590 391 614 397 q 550 377 566 384 q 534 363 534 370 l 534 81 q 663 85 600 81 q 789 94 726 90 q 916 103 852 99 q 1043 107 979 107 q 1033 81 1043 91 q 1008 64 1023 71 q 977 56 993 58 q 952 52 962 53 q 918 47 947 50 q 848 39 890 45 q 754 28 806 34 q 652 18 703 23 q 557 7 602 12 q 483 0 513 3 q 471 -1 479 -1 l 471 49 l 423 312 q 393 320 416 319 q 337 319 369 321 q 268 311 305 316 q 197 304 231 307 q 137 303 164 302 q 98 312 110 304 l 98 26 l 28 26 q 29 41 28 30 q 30 65 30 53 q 31 88 30 77 q 33 103 33 99 q 45 262 41 182 q 57 419 50 343 q 75 564 64 495 q 109 690 87 633 q 163 786 130 746 q 244 845 195 826 q 332 816 294 845 q 396 738 369 787 l 406 722 q 404 730 406 724 m 266 783 q 207 758 231 783 q 168 692 183 732 q 145 604 153 652 q 134 508 137 555 q 131 421 132 461 q 130 359 130 381 q 266 370 197 359 q 396 391 335 380 q 398 408 397 396 q 399 435 399 420 q 401 464 400 450 q 401 481 401 477 q 397 567 401 526 q 378 646 392 608 q 337 719 363 685 q 266 783 311 753 z "},"":{"ha":591,"x_min":18,"x_max":567,"o":"m 225 -233 q 256 -240 241 -233 q 284 -256 270 -247 q 313 -273 298 -266 q 343 -279 327 -279 q 385 -273 361 -283 q 427 -245 408 -262 q 453 -209 445 -228 q 449 -176 461 -190 q 400 -156 437 -161 q 293 -161 363 -151 q 267 -153 279 -161 q 243 -130 254 -144 q 227 -100 233 -117 q 221 -71 221 -84 q 225 -4 213 -30 q 228 1 227 -1 q 144 30 179 7 q 68 113 96 62 q 28 227 39 164 q 18 351 18 290 q 26 446 18 393 q 53 551 35 498 q 97 656 71 605 q 158 747 123 707 q 237 811 193 787 q 334 836 281 836 q 398 821 372 836 q 441 781 425 806 q 465 726 457 757 q 472 665 472 696 q 427 683 442 665 q 399 724 412 701 q 370 764 387 746 q 319 783 353 783 q 239 758 274 783 q 179 695 205 734 q 136 608 153 656 q 109 510 119 559 q 95 416 99 461 q 91 339 91 370 q 90 243 85 293 q 113 153 95 194 q 164 83 130 111 q 254 52 198 56 q 332 63 289 52 q 418 90 376 75 q 500 124 461 106 q 567 156 540 142 l 567 103 q 550 97 566 103 q 509 81 534 91 q 453 61 484 72 l 389 38 q 329 17 358 27 q 279 0 300 7 l 274 0 q 270 0 271 -1 q 258 -79 274 -24 q 274 -104 258 -100 q 316 -107 290 -109 q 371 -104 342 -106 q 426 -109 400 -102 q 469 -139 452 -117 q 486 -209 486 -161 q 471 -261 486 -239 q 436 -298 457 -283 q 389 -317 415 -312 q 335 -320 362 -323 q 305 -313 324 -319 q 269 -297 286 -308 q 238 -271 251 -286 q 225 -233 225 -255 z "},"":{"ha":684,"x_min":19,"x_max":658,"o":"m 19 730 q 77 783 41 761 q 157 821 113 806 q 252 844 201 836 q 351 856 302 852 q 446 861 400 860 q 528 863 492 863 q 540 862 530 863 q 560 861 549 861 q 580 860 571 860 q 593 860 589 860 q 587 819 598 830 q 557 805 575 807 q 518 806 538 803 q 488 807 498 810 q 446 800 475 806 q 381 786 416 793 q 306 770 346 779 q 230 753 266 761 q 165 739 194 746 q 123 730 137 732 q 99 709 102 722 q 96 681 96 697 q 100 617 96 652 q 108 547 103 582 q 117 484 113 513 q 123 442 122 456 q 144 441 129 441 q 164 441 159 441 q 225 446 195 441 q 285 458 255 452 q 346 470 315 465 q 410 475 377 475 l 410 425 q 372 422 396 425 q 318 415 347 420 q 259 404 289 410 q 205 391 229 397 q 165 377 180 384 q 149 363 149 370 l 149 81 q 276 85 213 81 q 403 94 339 90 q 530 103 467 99 q 658 107 594 107 q 647 81 658 91 q 622 64 636 71 q 591 56 608 58 q 567 52 575 53 q 533 47 562 50 q 463 39 505 45 q 369 28 420 34 q 267 18 317 23 q 172 7 217 12 q 98 0 127 3 q 85 -1 94 -1 q 74 366 85 180 q 19 730 62 551 m 305 1096 q 342 1052 330 1072 q 365 1013 355 1032 q 385 970 374 993 q 416 914 396 947 q 412 901 416 905 q 401 896 408 898 q 385 892 393 894 q 365 884 376 890 q 338 932 347 914 q 319 964 328 949 q 299 998 311 979 q 267 1047 288 1016 l 305 1096 z "},"":{"ha":684,"x_min":19,"x_max":658,"o":"m 19 730 q 77 783 41 761 q 157 821 113 806 q 252 844 201 836 q 351 856 302 852 q 446 861 400 860 q 528 863 492 863 q 540 862 530 863 q 560 861 549 861 q 580 860 571 860 q 593 860 589 860 q 587 819 598 830 q 557 805 575 807 q 518 806 538 803 q 488 807 498 810 q 446 800 475 806 q 381 786 416 793 q 306 770 346 779 q 230 753 266 761 q 165 739 194 746 q 123 730 137 732 q 99 709 102 722 q 96 681 96 697 q 100 617 96 652 q 108 547 103 582 q 117 484 113 513 q 123 442 122 456 q 144 441 129 441 q 164 441 159 441 q 225 446 195 441 q 285 458 255 452 q 346 470 315 465 q 410 475 377 475 l 410 425 q 372 422 396 425 q 318 415 347 420 q 259 404 289 410 q 205 391 229 397 q 165 377 180 384 q 149 363 149 370 l 149 81 q 276 85 213 81 q 403 94 339 90 q 530 103 467 99 q 658 107 594 107 q 647 81 658 91 q 622 64 636 71 q 591 56 608 58 q 567 52 575 53 q 533 47 562 50 q 463 39 505 45 q 369 28 420 34 q 267 18 317 23 q 172 7 217 12 q 98 0 127 3 q 85 -1 94 -1 q 74 366 85 180 q 19 730 62 551 m 423 1048 q 388 1006 406 1024 q 353 969 370 987 q 320 931 336 951 q 285 890 304 911 l 245 910 q 319 1009 293 971 q 357 1066 345 1047 q 374 1088 370 1085 q 382 1086 378 1092 q 393 1069 385 1081 q 423 1048 401 1058 z "},"":{"ha":684,"x_min":19,"x_max":658,"o":"m 19 730 q 77 783 41 761 q 157 821 113 806 q 252 844 201 836 q 351 856 302 852 q 446 861 400 860 q 528 863 492 863 q 540 862 530 863 q 560 861 549 861 q 580 860 571 860 q 593 860 589 860 q 587 819 598 830 q 557 805 575 807 q 518 806 538 803 q 488 807 498 810 q 446 800 475 806 q 381 786 416 793 q 306 770 346 779 q 230 753 266 761 q 165 739 194 746 q 123 730 137 732 q 99 709 102 722 q 96 681 96 697 q 100 617 96 652 q 108 547 103 582 q 117 484 113 513 q 123 442 122 456 q 144 441 129 441 q 164 441 159 441 q 225 446 195 441 q 285 458 255 452 q 346 470 315 465 q 410 475 377 475 l 410 425 q 372 422 396 425 q 318 415 347 420 q 259 404 289 410 q 205 391 229 397 q 165 377 180 384 q 149 363 149 370 l 149 81 q 276 85 213 81 q 403 94 339 90 q 530 103 467 99 q 658 107 594 107 q 647 81 658 91 q 622 64 636 71 q 591 56 608 58 q 567 52 575 53 q 533 47 562 50 q 463 39 505 45 q 369 28 420 34 q 267 18 317 23 q 172 7 217 12 q 98 0 127 3 q 85 -1 94 -1 q 74 366 85 180 q 19 730 62 551 m 354 1126 q 319 1084 336 1103 q 285 1046 301 1065 q 252 1009 269 1028 q 216 967 235 990 l 176 987 l 358 1234 q 401 1181 382 1210 q 435 1122 419 1153 q 468 1058 452 1090 q 505 993 484 1025 q 500 980 505 983 q 489 975 496 977 q 473 970 481 972 q 453 963 464 968 q 425 1010 435 993 q 407 1044 415 1028 q 387 1077 399 1059 q 354 1126 376 1095 z "},"":{"ha":684,"x_min":19,"x_max":658,"o":"m 19 730 q 77 783 41 761 q 157 821 113 806 q 252 844 201 836 q 351 856 302 852 q 446 861 400 860 q 528 863 492 863 q 540 862 530 863 q 560 861 549 861 q 580 860 571 860 q 593 860 589 860 q 587 819 598 830 q 557 805 575 807 q 518 806 538 803 q 488 807 498 810 q 446 800 475 806 q 381 786 416 793 q 306 770 346 779 q 230 753 266 761 q 165 739 194 746 q 123 730 137 732 q 99 709 102 722 q 96 681 96 697 q 100 617 96 652 q 108 547 103 582 q 117 484 113 513 q 123 442 122 456 q 144 441 129 441 q 164 441 159 441 q 225 446 195 441 q 285 458 255 452 q 346 470 315 465 q 410 475 377 475 l 410 425 q 372 422 396 425 q 318 415 347 420 q 259 404 289 410 q 205 391 229 397 q 165 377 180 384 q 149 363 149 370 l 149 81 q 276 85 213 81 q 403 94 339 90 q 530 103 467 99 q 658 107 594 107 q 647 81 658 91 q 622 64 636 71 q 591 56 608 58 q 567 52 575 53 q 533 47 562 50 q 463 39 505 45 q 369 28 420 34 q 267 18 317 23 q 172 7 217 12 q 98 0 127 3 q 85 -1 94 -1 q 74 366 85 180 q 19 730 62 551 m 175 947 q 176 978 171 967 q 193 994 182 989 q 217 1001 203 1000 q 241 1002 231 1002 q 265 1001 252 1002 q 289 994 278 1000 q 305 978 300 989 q 305 947 311 967 q 282 910 301 928 q 241 892 263 892 q 220 897 231 892 q 200 910 209 902 q 185 928 191 918 q 175 947 179 937 m 376 947 q 376 978 370 967 q 393 994 382 989 q 418 1001 404 1000 q 442 1002 431 1002 q 465 1001 452 1002 q 490 994 479 1000 q 506 978 500 989 q 506 947 511 967 q 498 928 505 937 q 482 910 491 918 q 463 897 473 902 q 442 892 452 892 q 400 910 419 892 q 376 947 381 928 z "},"":{"ha":136,"x_min":-19,"x_max":130,"o":"m 19 954 q 31 980 19 970 q 58 990 42 990 q 65 990 60 990 q 72 990 71 990 q 84 774 79 876 q 93 572 90 671 q 98 375 96 473 q 99 170 99 277 q 101 129 99 155 q 105 79 103 103 q 109 35 107 54 q 111 14 111 15 l 53 3 q 47 131 50 58 q 43 286 45 203 q 39 455 41 368 q 33 628 37 543 q 26 793 30 713 q 19 937 23 872 l 19 954 m 19 1255 q 56 1211 43 1230 q 79 1171 69 1191 q 99 1128 88 1152 q 130 1073 110 1105 q 126 1060 130 1063 q 115 1055 122 1057 q 98 1050 107 1053 q 79 1043 90 1048 q 52 1090 61 1073 q 33 1123 42 1108 q 13 1156 24 1138 q -19 1206 1 1175 l 19 1255 z "},"":{"ha":136,"x_min":-15,"x_max":163,"o":"m 19 954 q 31 980 19 970 q 58 990 42 990 q 65 990 60 990 q 72 990 71 990 q 84 774 79 876 q 93 572 90 671 q 98 375 96 473 q 99 170 99 277 q 101 129 99 155 q 105 79 103 103 q 109 35 107 54 q 111 14 111 15 l 53 3 q 47 131 50 58 q 43 286 45 203 q 39 455 41 368 q 33 628 37 543 q 26 793 30 713 q 19 937 23 872 l 19 954 m 163 1223 q 127 1181 145 1199 q 93 1144 110 1162 q 60 1106 76 1126 q 24 1065 43 1086 l -15 1085 q 58 1184 33 1146 q 97 1241 84 1222 q 114 1263 110 1260 q 121 1261 118 1267 q 133 1244 125 1256 q 163 1223 141 1233 z "},"":{"ha":136,"x_min":-88,"x_max":240,"o":"m 19 954 q 31 980 19 970 q 58 990 42 990 q 65 990 60 990 q 72 990 71 990 q 84 774 79 876 q 93 572 90 671 q 98 375 96 473 q 99 170 99 277 q 101 129 99 155 q 105 79 103 103 q 109 35 107 54 q 111 14 111 15 l 53 3 q 47 131 50 58 q 43 286 45 203 q 39 455 41 368 q 33 628 37 543 q 26 793 30 713 q 19 937 23 872 l 19 954 m 90 1214 q 54 1172 72 1191 q 20 1135 37 1153 q -13 1097 4 1116 q -49 1055 -30 1078 l -88 1076 l 94 1322 q 136 1270 118 1298 q 171 1210 155 1241 q 203 1146 187 1179 q 240 1081 220 1114 q 236 1068 240 1072 q 224 1063 232 1065 q 208 1059 217 1061 q 189 1051 199 1057 q 161 1099 171 1081 q 142 1132 151 1116 q 123 1165 134 1147 q 90 1214 111 1183 z "},"":{"ha":136,"x_min":-113,"x_max":218,"o":"m 19 954 q 31 980 19 970 q 58 990 42 990 q 65 990 60 990 q 72 990 71 990 q 84 774 79 876 q 93 572 90 671 q 98 375 96 473 q 99 170 99 277 q 101 129 99 155 q 105 79 103 103 q 109 35 107 54 q 111 14 111 15 l 53 3 q 47 131 50 58 q 43 286 45 203 q 39 455 41 368 q 33 628 37 543 q 26 793 30 713 q 19 937 23 872 l 19 954 m -113 1123 q -111 1154 -117 1143 q -95 1171 -106 1165 q -71 1177 -84 1176 q -46 1179 -57 1179 q -22 1177 -35 1179 q 1 1171 -9 1176 q 18 1154 12 1165 q 18 1123 23 1143 q -5 1086 14 1104 q -46 1069 -24 1069 q -68 1074 -57 1069 q -87 1086 -79 1078 q -102 1104 -96 1095 q -113 1123 -109 1114 m 88 1123 q 89 1154 83 1143 q 106 1171 95 1165 q 130 1177 117 1176 q 155 1179 144 1179 q 178 1177 164 1179 q 202 1171 191 1176 q 218 1154 213 1165 q 218 1123 224 1143 q 210 1104 217 1114 q 195 1086 203 1095 q 175 1074 186 1078 q 155 1069 164 1069 q 113 1086 132 1069 q 88 1123 94 1104 z "},"":{"ha":730,"x_min":1,"x_max":704,"o":"m 28 301 q 31 303 30 302 q 37 305 31 304 q 52 309 42 307 q 83 315 62 311 l 52 677 q 45 686 49 680 q 37 702 41 693 q 29 718 33 711 q 26 730 26 726 q 37 749 26 742 q 61 757 47 755 q 87 758 75 758 q 103 758 100 758 q 115 758 107 758 q 131 756 122 757 q 146 755 140 755 q 156 754 153 754 q 258 716 201 738 q 377 666 316 694 q 496 602 438 637 q 601 520 555 566 q 675 420 647 475 q 704 300 704 366 q 682 197 704 243 q 625 119 661 152 q 541 62 589 85 q 444 24 494 38 q 345 3 395 9 q 251 -4 294 -4 q 218 -3 241 -4 q 171 -1 195 -3 q 127 1 146 0 q 106 1 107 1 l 103 52 l 87 250 l 80 250 q 67 249 79 250 q 50 248 56 248 q 22 251 34 248 q 1 274 9 254 l 28 301 m 129 684 q 129 673 129 681 q 130 654 129 665 q 130 636 130 644 q 130 624 130 628 q 132 576 132 608 q 135 503 133 544 q 139 415 137 463 q 144 320 141 368 l 190 324 q 223 330 201 330 q 262 325 245 331 q 285 307 279 319 q 269 273 290 294 q 230 268 247 270 q 199 264 213 266 q 173 260 186 262 q 146 256 160 258 q 152 133 149 189 q 156 52 155 77 q 182 51 164 52 q 221 50 201 50 q 260 48 241 49 q 286 47 278 47 q 410 63 349 47 q 519 111 471 79 q 597 193 567 142 q 628 316 628 244 q 604 417 628 369 q 539 506 579 465 q 448 579 499 547 q 341 635 396 612 q 231 671 286 659 q 129 684 176 684 z "},"":{"ha":723,"x_min":18,"x_max":697,"o":"m 98 807 q 97 789 98 803 q 96 762 96 776 q 96 734 96 747 q 96 718 96 722 q 100 541 96 629 q 110 364 104 453 q 119 186 115 275 q 123 7 123 96 l 75 9 q 70 81 73 35 q 62 188 66 127 q 52 317 57 248 q 40 458 46 387 q 30 598 34 529 q 22 726 26 667 q 18 831 19 785 q 18 901 16 876 q 30 928 18 917 q 58 939 42 939 q 96 931 75 939 q 123 911 117 924 l 612 123 q 608 258 612 186 q 602 406 605 330 q 599 558 600 481 q 602 707 598 635 q 615 845 605 780 q 644 963 625 910 q 674 970 663 970 q 690 970 685 971 q 696 963 696 968 q 697 952 697 958 q 697 944 697 949 q 697 937 697 939 q 691 907 694 929 q 682 843 688 886 q 673 732 677 800 q 665 564 669 665 q 659 326 661 464 q 658 3 656 187 l 618 0 l 98 807 m 288 1057 q 264 1060 273 1067 q 248 1037 255 1053 q 236 1003 241 1021 q 225 974 231 985 q 213 965 220 963 q 198 991 206 967 q 218 1081 198 1055 q 285 1107 239 1107 q 328 1078 311 1095 q 359 1046 345 1061 q 385 1024 373 1032 q 410 1021 396 1016 q 441 1049 423 1027 q 483 1119 458 1072 q 501 1112 491 1119 q 511 1092 511 1105 q 469 1008 490 1036 q 429 973 448 981 q 391 974 410 966 q 354 997 372 982 q 320 1028 336 1012 q 288 1057 304 1044 z "},"":{"ha":600,"x_min":24,"x_max":555,"o":"m 24 450 q 31 545 24 495 q 51 644 37 595 q 87 736 65 692 q 142 813 110 780 q 216 866 174 846 q 313 886 259 886 q 397 859 361 886 q 461 790 434 833 q 506 693 488 747 q 535 584 524 639 q 551 478 547 529 q 555 391 555 427 q 532 243 549 311 q 484 125 514 176 q 408 42 453 75 q 300 -1 363 9 q 195 20 239 -1 q 121 77 152 42 q 71 159 90 113 q 41 255 52 205 q 28 356 31 305 q 24 450 24 407 m 76 450 q 77 377 76 418 q 85 295 79 336 q 103 214 91 254 q 136 143 115 174 q 189 94 157 113 q 266 75 221 75 q 373 91 331 71 q 441 153 415 111 q 480 255 467 195 q 502 391 494 315 q 499 465 502 420 q 489 559 496 510 q 469 657 481 608 q 435 747 456 707 q 385 811 414 787 q 315 836 355 836 q 239 816 273 836 q 178 764 205 796 q 132 692 152 732 q 100 608 113 651 q 82 524 88 566 q 76 450 76 483 m 262 1149 q 299 1105 286 1124 q 321 1065 312 1085 q 342 1023 331 1046 q 373 967 353 1000 q 369 954 373 958 q 357 949 365 951 q 341 945 350 947 q 321 937 332 943 q 294 985 304 967 q 276 1017 285 1002 q 256 1050 267 1032 q 224 1100 244 1069 l 262 1149 z "},"":{"ha":600,"x_min":24,"x_max":555,"o":"m 24 450 q 31 545 24 495 q 51 644 37 595 q 87 736 65 692 q 142 813 110 780 q 216 866 174 846 q 313 886 259 886 q 397 859 361 886 q 461 790 434 833 q 506 693 488 747 q 535 584 524 639 q 551 478 547 529 q 555 391 555 427 q 532 243 549 311 q 484 125 514 176 q 408 42 453 75 q 300 -1 363 9 q 195 20 239 -1 q 121 77 152 42 q 71 159 90 113 q 41 255 52 205 q 28 356 31 305 q 24 450 24 407 m 76 450 q 77 377 76 418 q 85 295 79 336 q 103 214 91 254 q 136 143 115 174 q 189 94 157 113 q 266 75 221 75 q 373 91 331 71 q 441 153 415 111 q 480 255 467 195 q 502 391 494 315 q 499 465 502 420 q 489 559 496 510 q 469 657 481 608 q 435 747 456 707 q 385 811 414 787 q 315 836 355 836 q 239 816 273 836 q 178 764 205 796 q 132 692 152 732 q 100 608 113 651 q 82 524 88 566 q 76 450 76 483 m 378 1073 q 343 1030 361 1048 q 309 994 326 1012 q 275 956 292 975 q 240 914 259 936 l 201 935 q 274 1034 248 996 q 313 1090 300 1072 q 330 1113 326 1109 q 337 1111 334 1116 q 349 1094 340 1105 q 378 1073 357 1082 z "},"":{"ha":600,"x_min":24,"x_max":555,"o":"m 24 450 q 31 545 24 495 q 51 644 37 595 q 87 736 65 692 q 142 813 110 780 q 216 866 174 846 q 313 886 259 886 q 397 859 361 886 q 461 790 434 833 q 506 693 488 747 q 535 584 524 639 q 551 478 547 529 q 555 391 555 427 q 532 243 549 311 q 484 125 514 176 q 408 42 453 75 q 300 -1 363 9 q 195 20 239 -1 q 121 77 152 42 q 71 159 90 113 q 41 255 52 205 q 28 356 31 305 q 24 450 24 407 m 76 450 q 77 377 76 418 q 85 295 79 336 q 103 214 91 254 q 136 143 115 174 q 189 94 157 113 q 266 75 221 75 q 373 91 331 71 q 441 153 415 111 q 480 255 467 195 q 502 391 494 315 q 499 465 502 420 q 489 559 496 510 q 469 657 481 608 q 435 747 456 707 q 385 811 414 787 q 315 836 355 836 q 239 816 273 836 q 178 764 205 796 q 132 692 152 732 q 100 608 113 651 q 82 524 88 566 q 76 450 76 483 m 312 1126 q 277 1084 294 1103 q 243 1046 259 1065 q 210 1009 227 1028 q 174 967 193 990 l 134 987 l 316 1234 q 359 1181 340 1210 q 393 1122 377 1153 q 426 1058 410 1090 q 463 993 442 1025 q 458 980 463 983 q 447 975 454 977 q 431 970 439 972 q 411 963 422 968 q 383 1010 393 993 q 365 1044 373 1028 q 345 1077 357 1059 q 312 1126 334 1095 z "},"":{"ha":600,"x_min":24,"x_max":555,"o":"m 24 450 q 31 545 24 495 q 51 644 37 595 q 87 736 65 692 q 142 813 110 780 q 216 866 174 846 q 313 886 259 886 q 397 859 361 886 q 461 790 434 833 q 506 693 488 747 q 535 584 524 639 q 551 478 547 529 q 555 391 555 427 q 532 243 549 311 q 484 125 514 176 q 408 42 453 75 q 300 -1 363 9 q 195 20 239 -1 q 121 77 152 42 q 71 159 90 113 q 41 255 52 205 q 28 356 31 305 q 24 450 24 407 m 76 450 q 77 377 76 418 q 85 295 79 336 q 103 214 91 254 q 136 143 115 174 q 189 94 157 113 q 266 75 221 75 q 373 91 331 71 q 441 153 415 111 q 480 255 467 195 q 502 391 494 315 q 499 465 502 420 q 489 559 496 510 q 469 657 481 608 q 435 747 456 707 q 385 811 414 787 q 315 836 355 836 q 239 816 273 836 q 178 764 205 796 q 132 692 152 732 q 100 608 113 651 q 82 524 88 566 q 76 450 76 483 m 235 1032 q 211 1036 220 1043 q 195 1013 202 1028 q 183 979 189 997 q 172 949 178 960 q 160 941 167 939 q 145 967 153 943 q 165 1057 145 1031 q 232 1082 186 1082 q 275 1053 258 1070 q 306 1022 292 1036 q 332 1000 320 1008 q 357 997 343 991 q 388 1025 370 1002 q 430 1095 406 1047 q 448 1088 438 1095 q 458 1067 458 1081 q 416 984 437 1012 q 376 949 395 956 q 338 949 357 941 q 301 972 319 958 q 267 1004 283 987 q 235 1032 251 1020 z "},"":{"ha":600,"x_min":24,"x_max":555,"o":"m 24 450 q 31 545 24 495 q 51 644 37 595 q 87 736 65 692 q 142 813 110 780 q 216 866 174 846 q 313 886 259 886 q 397 859 361 886 q 461 790 434 833 q 506 693 488 747 q 535 584 524 639 q 551 478 547 529 q 555 391 555 427 q 532 243 549 311 q 484 125 514 176 q 408 42 453 75 q 300 -1 363 9 q 195 20 239 -1 q 121 77 152 42 q 71 159 90 113 q 41 255 52 205 q 28 356 31 305 q 24 450 24 407 m 76 450 q 77 377 76 418 q 85 295 79 336 q 103 214 91 254 q 136 143 115 174 q 189 94 157 113 q 266 75 221 75 q 373 91 331 71 q 441 153 415 111 q 480 255 467 195 q 502 391 494 315 q 499 465 502 420 q 489 559 496 510 q 469 657 481 608 q 435 747 456 707 q 385 811 414 787 q 315 836 355 836 q 239 816 273 836 q 178 764 205 796 q 132 692 152 732 q 100 608 113 651 q 82 524 88 566 q 76 450 76 483 m 137 986 q 138 1017 133 1006 q 155 1034 144 1028 q 179 1040 165 1039 q 203 1042 193 1042 q 227 1040 214 1042 q 251 1034 240 1039 q 267 1017 262 1028 q 267 986 273 1006 q 244 949 263 967 q 203 932 225 932 q 182 937 193 932 q 162 949 171 941 q 147 967 153 958 q 137 986 141 977 m 338 986 q 338 1017 332 1006 q 355 1034 345 1028 q 380 1040 366 1039 q 404 1042 393 1042 q 427 1040 414 1042 q 452 1034 441 1039 q 468 1017 463 1028 q 468 986 473 1006 q 460 967 467 977 q 444 949 453 958 q 425 937 435 941 q 404 932 414 932 q 362 949 381 932 q 338 986 343 967 z "},"":{"ha":381,"x_min":73,"x_max":351,"o":"m 73 463 l 136 505 l 213 416 l 286 551 l 339 513 l 263 351 l 351 248 l 300 221 l 225 315 q 204 274 212 290 q 192 243 197 258 q 182 215 187 229 q 168 183 178 201 l 115 197 l 176 366 l 73 463 z "},"":{"ha":600,"x_min":24,"x_max":555,"o":"m 400 871 q 410 892 404 880 q 424 909 415 905 q 445 906 433 913 q 473 871 457 899 l 452 804 q 461 791 457 798 q 506 693 488 747 q 535 584 524 639 q 551 478 547 529 q 555 391 555 427 q 532 243 549 311 q 484 125 514 176 q 408 42 453 75 q 300 -1 363 9 q 195 20 239 -1 l 184 26 l 165 -31 l 107 19 l 125 71 l 119 77 q 71 159 90 113 q 41 255 52 205 q 28 356 31 305 q 24 450 24 407 q 31 545 24 495 q 51 644 37 595 q 87 736 65 692 q 142 813 110 780 q 216 866 174 846 q 313 886 259 886 q 396 860 359 886 l 400 871 m 76 450 q 77 377 76 418 q 85 295 79 336 q 103 214 91 254 q 136 144 115 174 q 145 130 140 136 l 380 812 q 315 836 353 836 q 239 816 273 836 q 178 764 205 796 q 132 692 152 732 q 100 608 113 651 q 82 524 88 566 q 76 450 76 483 m 266 75 q 373 91 331 71 q 441 153 415 111 q 480 255 467 195 q 502 391 494 315 q 499 465 502 420 q 489 559 496 510 q 469 657 481 608 q 434 746 456 707 l 433 750 l 205 85 q 266 75 232 75 z "},"":{"ha":703,"x_min":30,"x_max":674,"o":"m 540 339 q 433 127 486 202 q 330 28 380 53 q 235 22 279 3 q 153 92 190 41 q 89 220 115 142 q 47 389 62 297 q 31 583 31 481 q 46 781 30 684 l 99 776 q 96 474 84 602 q 133 260 107 346 q 193 130 159 175 q 258 79 227 85 q 340 103 304 79 q 404 167 376 127 q 451 256 431 206 q 483 358 471 307 q 500 458 495 410 q 506 541 506 506 q 503 623 506 587 q 494 694 500 659 q 481 767 488 730 q 464 853 473 804 l 530 902 q 584 565 562 705 q 623 330 606 425 q 648 180 639 236 q 664 92 658 123 q 672 47 670 60 q 674 26 674 34 l 618 26 l 540 339 m 251 1135 q 288 1091 275 1111 q 311 1052 301 1072 q 331 1009 320 1032 q 362 954 342 986 q 358 941 362 944 q 347 935 354 937 q 330 931 339 933 q 311 924 321 929 q 283 971 293 954 q 265 1004 274 989 q 245 1037 256 1019 q 213 1086 233 1055 l 251 1135 z "},"":{"ha":703,"x_min":30,"x_max":674,"o":"m 540 339 q 433 127 486 202 q 330 28 380 53 q 235 22 279 3 q 153 92 190 41 q 89 220 115 142 q 47 389 62 297 q 31 583 31 481 q 46 781 30 684 l 99 776 q 96 474 84 602 q 133 260 107 346 q 193 130 159 175 q 258 79 227 85 q 340 103 304 79 q 404 167 376 127 q 451 256 431 206 q 483 358 471 307 q 500 458 495 410 q 506 541 506 506 q 503 623 506 587 q 494 694 500 659 q 481 767 488 730 q 464 853 473 804 l 530 902 q 584 565 562 705 q 623 330 606 425 q 648 180 639 236 q 664 92 658 123 q 672 47 670 60 q 674 26 674 34 l 618 26 l 540 339 m 433 1048 q 397 1006 415 1024 q 363 969 380 987 q 330 931 346 951 q 294 890 313 911 l 255 910 q 328 1009 302 971 q 367 1066 354 1047 q 384 1088 380 1085 q 391 1086 388 1092 q 403 1069 395 1081 q 433 1048 411 1058 z "},"":{"ha":703,"x_min":30,"x_max":674,"o":"m 540 339 q 433 127 486 202 q 330 28 380 53 q 235 22 279 3 q 153 92 190 41 q 89 220 115 142 q 47 389 62 297 q 31 583 31 481 q 46 781 30 684 l 99 776 q 96 474 84 602 q 133 260 107 346 q 193 130 159 175 q 258 79 227 85 q 340 103 304 79 q 404 167 376 127 q 451 256 431 206 q 483 358 471 307 q 500 458 495 410 q 506 541 506 506 q 503 623 506 587 q 494 694 500 659 q 481 767 488 730 q 464 853 473 804 l 530 902 q 584 565 562 705 q 623 330 606 425 q 648 180 639 236 q 664 92 658 123 q 672 47 670 60 q 674 26 674 34 l 618 26 l 540 339 m 262 1111 q 227 1069 244 1088 q 193 1031 209 1050 q 159 994 176 1013 q 123 952 142 975 l 84 972 l 266 1219 q 309 1166 290 1195 q 343 1107 327 1138 q 376 1043 359 1076 q 412 978 392 1010 q 408 965 412 968 q 397 960 404 962 q 380 956 389 958 q 361 948 372 954 q 333 996 343 978 q 315 1029 323 1013 q 295 1062 307 1044 q 262 1111 283 1080 z "},"":{"ha":703,"x_min":30,"x_max":674,"o":"m 540 339 q 433 127 486 202 q 330 28 380 53 q 235 22 279 3 q 153 92 190 41 q 89 220 115 142 q 47 389 62 297 q 31 583 31 481 q 46 781 30 684 l 99 776 q 96 474 84 602 q 133 260 107 346 q 193 130 159 175 q 258 79 227 85 q 340 103 304 79 q 404 167 376 127 q 451 256 431 206 q 483 358 471 307 q 500 458 495 410 q 506 541 506 506 q 503 623 506 587 q 494 694 500 659 q 481 767 488 730 q 464 853 473 804 l 530 902 q 584 565 562 705 q 623 330 606 425 q 648 180 639 236 q 664 92 658 123 q 672 47 670 60 q 674 26 674 34 l 618 26 l 540 339 m 94 947 q 95 978 90 967 q 111 994 100 989 q 136 1001 122 1000 q 160 1002 149 1002 q 184 1001 171 1002 q 208 994 197 1000 q 224 978 218 989 q 224 947 229 967 q 201 910 220 928 q 160 892 182 892 q 138 897 149 892 q 119 910 127 902 q 104 928 110 918 q 94 947 98 937 m 294 947 q 295 978 289 967 q 312 994 301 989 q 336 1001 323 1000 q 361 1002 350 1002 q 384 1001 370 1002 q 408 994 397 1000 q 425 978 419 989 q 425 947 430 967 q 416 928 423 937 q 401 910 410 918 q 381 897 392 902 q 361 892 370 892 q 319 910 338 892 q 294 947 300 928 z "},"":{"ha":616,"x_min":5,"x_max":605,"o":"m 396 442 q 341 515 376 472 q 267 610 307 559 q 186 715 228 661 q 108 820 144 769 q 45 915 72 871 q 5 990 18 959 l 33 1015 q 120 915 83 960 q 187 829 157 869 q 241 753 217 789 q 292 679 266 716 q 350 603 319 642 q 423 521 381 564 q 439 606 431 559 q 454 703 446 652 q 472 805 463 753 q 494 905 481 857 q 520 996 506 954 q 553 1067 534 1038 q 559 1069 555 1069 q 567 1069 564 1069 q 578 1067 571 1069 q 593 1063 586 1066 q 604 1054 600 1059 q 605 1042 608 1048 q 574 958 590 1010 q 545 839 559 905 q 518 696 530 773 q 496 541 506 620 q 477 385 486 463 q 465 239 469 307 q 462 115 461 171 q 468 26 463 60 q 463 3 465 11 q 454 -8 461 -4 q 434 -13 448 -12 q 396 -14 420 -14 l 396 442 m 415 1257 q 380 1215 397 1233 q 345 1178 362 1196 q 312 1140 328 1160 q 277 1099 296 1120 l 237 1119 q 311 1218 285 1180 q 349 1275 336 1256 q 366 1297 362 1294 q 374 1295 370 1301 q 385 1278 377 1290 q 415 1257 393 1267 z "},"":{"ha":465,"x_min":26,"x_max":448,"o":"m 79 765 q 78 699 77 722 q 79 665 79 677 q 79 646 79 652 q 79 631 79 640 q 77 604 79 623 q 75 551 76 586 q 115 583 96 568 q 151 609 133 598 q 186 625 168 620 q 229 631 205 631 q 319 606 278 631 q 388 544 359 582 q 432 459 416 506 q 448 368 448 412 q 416 245 445 290 q 341 176 388 199 q 232 147 294 152 q 99 148 170 142 l 99 212 q 144 186 123 190 q 193 183 165 183 q 274 197 237 183 q 337 236 311 210 q 378 296 363 262 q 392 373 392 331 q 388 438 392 410 q 370 490 384 467 q 329 534 355 514 q 256 575 302 555 q 243 578 254 576 q 229 579 233 579 q 186 566 208 579 q 148 534 165 553 q 117 490 130 514 q 99 445 104 467 q 96 400 98 435 q 92 318 94 365 q 89 218 91 271 q 85 119 87 165 q 83 37 84 72 q 80 -8 81 3 l 38 0 l 26 765 l 79 765 z "},"":{"ha":610,"x_min":54,"x_max":574,"o":"m 106 -174 q 94 -136 102 -174 q 79 -37 87 -99 q 64 104 71 24 q 54 266 57 183 q 54 429 52 349 q 68 574 57 510 q 100 680 79 639 q 156 726 121 720 q 253 732 202 731 q 346 722 304 734 q 416 681 388 709 q 444 598 444 652 q 437 545 444 571 q 416 496 431 518 q 373 455 400 473 q 302 425 346 437 q 408 414 359 429 q 494 371 457 400 q 552 300 530 342 q 574 209 574 259 q 538 109 574 151 q 449 40 503 66 q 328 0 395 14 q 201 -15 262 -14 l 208 47 q 309 60 254 52 q 412 85 365 68 q 491 134 460 103 q 522 214 522 164 q 503 295 522 264 q 452 342 483 326 q 382 366 420 359 q 306 374 343 372 q 236 376 269 376 q 184 380 203 376 l 194 457 q 264 469 229 461 q 327 492 298 477 q 374 533 355 507 q 392 600 392 559 q 393 614 392 605 q 389 634 393 624 q 372 654 384 644 q 332 671 359 665 q 261 678 305 677 q 151 673 217 680 q 140 613 146 661 q 128 496 133 566 q 121 341 123 426 q 123 168 119 256 q 140 -8 127 79 q 176 -165 153 -95 l 106 -174 z "},"":{"ha":469,"x_min":26,"x_max":442,"o":"m 26 117 q 68 229 26 194 q 180 264 111 264 q 231 263 208 264 q 277 256 255 262 q 319 240 298 251 q 363 209 340 229 q 364 226 363 213 q 365 254 365 239 q 365 281 365 269 q 365 300 365 294 q 363 363 363 324 q 357 442 363 401 q 333 519 351 483 q 274 575 315 556 q 221 566 245 575 q 172 545 197 556 q 123 526 148 534 q 71 517 99 517 q 92 573 71 551 q 142 608 113 595 q 205 624 172 620 q 262 628 237 628 q 307 618 286 624 q 347 597 328 613 q 380 547 365 581 q 408 454 396 514 q 428 303 419 395 q 442 79 437 212 q 431 48 445 61 q 392 26 416 35 q 337 12 368 18 q 275 3 307 5 q 216 -1 244 0 q 168 -3 187 -3 q 119 5 144 -3 q 73 29 94 14 q 39 67 52 45 q 26 117 26 90 m 202 212 q 107 166 134 193 q 83 115 80 140 q 115 71 87 91 q 184 45 144 52 q 273 52 225 39 q 363 103 320 65 q 331 163 347 142 q 296 195 315 184 q 254 209 277 206 q 202 212 231 212 m 198 887 q 235 843 222 863 q 258 804 248 823 q 278 761 267 784 q 309 705 289 738 q 305 692 309 696 q 294 687 301 689 q 277 683 286 685 q 258 675 269 681 q 231 723 240 705 q 212 755 221 741 q 192 789 203 770 q 160 838 180 807 l 198 887 z "},"":{"ha":469,"x_min":26,"x_max":442,"o":"m 26 117 q 68 229 26 194 q 180 264 111 264 q 231 263 208 264 q 277 256 255 262 q 319 240 298 251 q 363 209 340 229 q 364 226 363 213 q 365 254 365 239 q 365 281 365 269 q 365 300 365 294 q 363 363 363 324 q 357 442 363 401 q 333 519 351 483 q 274 575 315 556 q 221 566 245 575 q 172 545 197 556 q 123 526 148 534 q 71 517 99 517 q 92 573 71 551 q 142 608 113 595 q 205 624 172 620 q 262 628 237 628 q 307 618 286 624 q 347 597 328 613 q 380 547 365 581 q 408 454 396 514 q 428 303 419 395 q 442 79 437 212 q 431 48 445 61 q 392 26 416 35 q 337 12 368 18 q 275 3 307 5 q 216 -1 244 0 q 168 -3 187 -3 q 119 5 144 -3 q 73 29 94 14 q 39 67 52 45 q 26 117 26 90 m 202 212 q 107 166 134 193 q 83 115 80 140 q 115 71 87 91 q 184 45 144 52 q 273 52 225 39 q 363 103 320 65 q 331 163 347 142 q 296 195 315 184 q 254 209 277 206 q 202 212 231 212 m 317 840 q 282 797 300 815 q 248 760 264 779 q 214 722 231 742 q 179 681 198 703 l 140 701 q 213 800 187 762 q 252 857 239 838 q 269 880 264 876 q 276 878 273 883 q 288 861 279 872 q 317 840 296 849 z "},"":{"ha":469,"x_min":26,"x_max":442,"o":"m 26 117 q 68 229 26 194 q 180 264 111 264 q 231 263 208 264 q 277 256 255 262 q 319 240 298 251 q 363 209 340 229 q 364 226 363 213 q 365 254 365 239 q 365 281 365 269 q 365 300 365 294 q 363 363 363 324 q 357 442 363 401 q 333 519 351 483 q 274 575 315 556 q 221 566 245 575 q 172 545 197 556 q 123 526 148 534 q 71 517 99 517 q 92 573 71 551 q 142 608 113 595 q 205 624 172 620 q 262 628 237 628 q 307 618 286 624 q 347 597 328 613 q 380 547 365 581 q 408 454 396 514 q 428 303 419 395 q 442 79 437 212 q 431 48 445 61 q 392 26 416 35 q 337 12 368 18 q 275 3 307 5 q 216 -1 244 0 q 168 -3 187 -3 q 119 5 144 -3 q 73 29 94 14 q 39 67 52 45 q 26 117 26 90 m 202 212 q 107 166 134 193 q 83 115 80 140 q 115 71 87 91 q 184 45 144 52 q 273 52 225 39 q 363 103 320 65 q 331 163 347 142 q 296 195 315 184 q 254 209 277 206 q 202 212 231 212 m 247 917 q 212 875 229 894 q 178 838 194 856 q 144 800 161 819 q 109 758 127 781 l 69 779 l 251 1025 q 294 972 275 1001 q 328 913 312 944 q 361 849 345 882 q 397 784 377 817 q 393 771 397 774 q 382 766 389 768 q 366 762 374 764 q 346 754 357 760 q 318 802 328 784 q 300 835 308 819 q 280 868 292 850 q 247 917 269 886 z "},"":{"ha":469,"x_min":26,"x_max":442,"o":"m 26 117 q 68 229 26 194 q 180 264 111 264 q 231 263 208 264 q 277 256 255 262 q 319 240 298 251 q 363 209 340 229 q 364 226 363 213 q 365 254 365 239 q 365 281 365 269 q 365 300 365 294 q 363 363 363 324 q 357 442 363 401 q 333 519 351 483 q 274 575 315 556 q 221 566 245 575 q 172 545 197 556 q 123 526 148 534 q 71 517 99 517 q 92 573 71 551 q 142 608 113 595 q 205 624 172 620 q 262 628 237 628 q 307 618 286 624 q 347 597 328 613 q 380 547 365 581 q 408 454 396 514 q 428 303 419 395 q 442 79 437 212 q 431 48 445 61 q 392 26 416 35 q 337 12 368 18 q 275 3 307 5 q 216 -1 244 0 q 168 -3 187 -3 q 119 5 144 -3 q 73 29 94 14 q 39 67 52 45 q 26 117 26 90 m 202 212 q 107 166 134 193 q 83 115 80 140 q 115 71 87 91 q 184 45 144 52 q 273 52 225 39 q 363 103 320 65 q 331 163 347 142 q 296 195 315 184 q 254 209 277 206 q 202 212 231 212 m 165 746 q 142 749 151 757 q 126 726 133 742 q 114 692 119 711 q 103 663 109 674 q 91 654 98 652 q 76 681 84 656 q 96 770 76 745 q 163 796 117 796 q 205 767 189 784 q 237 736 222 750 q 262 713 251 722 q 288 711 274 705 q 319 739 301 716 q 361 808 336 761 q 379 802 369 808 q 389 781 389 795 q 347 698 368 726 q 307 663 326 670 q 269 663 288 655 q 232 686 250 671 q 198 718 214 701 q 165 746 182 734 z "},"":{"ha":469,"x_min":26,"x_max":442,"o":"m 26 117 q 68 229 26 194 q 180 264 111 264 q 231 263 208 264 q 277 256 255 262 q 319 240 298 251 q 363 209 340 229 q 364 226 363 213 q 365 254 365 239 q 365 281 365 269 q 365 300 365 294 q 363 363 363 324 q 357 442 363 401 q 333 519 351 483 q 274 575 315 556 q 221 566 245 575 q 172 545 197 556 q 123 526 148 534 q 71 517 99 517 q 92 573 71 551 q 142 608 113 595 q 205 624 172 620 q 262 628 237 628 q 307 618 286 624 q 347 597 328 613 q 380 547 365 581 q 408 454 396 514 q 428 303 419 395 q 442 79 437 212 q 431 48 445 61 q 392 26 416 35 q 337 12 368 18 q 275 3 307 5 q 216 -1 244 0 q 168 -3 187 -3 q 119 5 144 -3 q 73 29 94 14 q 39 67 52 45 q 26 117 26 90 m 202 212 q 107 166 134 193 q 83 115 80 140 q 115 71 87 91 q 184 45 144 52 q 273 52 225 39 q 363 103 320 65 q 331 163 347 142 q 296 195 315 184 q 254 209 277 206 q 202 212 231 212 m 68 738 q 69 769 64 758 q 85 785 75 780 q 110 792 96 791 q 134 793 123 793 q 158 792 145 793 q 182 785 171 791 q 198 769 193 780 q 198 738 203 758 q 175 701 194 719 q 134 684 156 684 q 113 688 123 684 q 93 701 102 693 q 78 719 84 709 q 68 738 72 728 m 269 738 q 269 769 263 758 q 286 785 275 780 q 311 792 297 791 q 335 793 324 793 q 358 792 345 793 q 382 785 372 791 q 399 769 393 780 q 399 738 404 758 q 391 719 397 728 q 375 701 384 709 q 355 688 366 693 q 335 684 345 684 q 293 701 312 684 q 269 738 274 719 z "},"":{"ha":469,"x_min":26,"x_max":442,"o":"m 164 694 q 166 720 164 705 q 174 749 168 735 q 191 772 180 762 q 220 783 201 783 q 294 755 270 783 q 319 690 319 727 q 315 665 319 680 q 301 637 311 651 q 286 623 294 629 l 307 618 q 347 597 328 613 q 380 547 365 581 q 408 454 396 514 q 428 303 419 395 q 442 79 437 212 q 431 48 445 61 q 392 26 416 35 q 337 12 368 18 q 275 3 307 5 q 216 -1 244 0 q 168 -3 187 -3 q 119 5 144 -3 q 73 29 94 14 q 39 67 52 45 q 26 117 26 90 q 68 229 26 194 q 180 264 111 264 q 231 263 208 264 q 277 256 255 262 q 319 240 298 251 q 363 209 340 229 q 364 226 363 213 q 365 254 365 239 l 365 300 q 363 363 363 324 q 357 442 363 401 q 333 519 351 483 q 274 575 315 556 q 221 566 245 575 q 172 545 197 556 q 123 526 148 534 q 71 517 99 517 q 92 573 71 551 q 142 608 113 595 q 197 623 168 617 q 182 636 189 628 q 168 665 172 650 q 164 694 164 681 m 202 212 q 107 166 134 193 q 83 115 80 140 q 115 71 87 91 q 184 45 144 52 q 273 52 225 39 q 363 103 320 65 q 331 163 347 142 q 296 195 315 184 q 254 209 277 206 q 202 212 231 212 m 193 694 q 219 649 205 659 q 245 644 233 639 q 267 665 258 648 q 281 697 275 681 q 260 740 277 726 q 226 753 243 754 q 197 737 209 751 q 193 694 186 723 z "},"":{"ha":787,"x_min":26,"x_max":760,"o":"m 26 117 q 68 229 26 194 q 180 264 111 264 q 231 263 208 264 q 277 256 255 262 q 319 240 298 251 q 363 209 340 229 q 364 226 363 213 q 365 254 365 239 l 365 300 q 363 363 363 324 q 357 442 363 401 q 333 519 351 483 q 274 575 315 556 q 221 566 245 575 q 172 545 197 556 q 123 526 148 534 q 71 517 99 517 q 92 573 71 551 q 142 608 113 595 q 205 624 172 620 q 262 628 237 628 q 307 618 286 624 q 347 597 328 613 q 380 547 365 581 q 407 453 396 514 q 410 439 408 446 q 445 502 425 472 q 515 573 476 544 q 595 602 555 602 q 642 593 618 602 q 685 568 665 583 q 722 532 705 552 q 749 491 739 513 q 759 449 758 469 q 747 414 760 429 l 461 361 q 453 348 457 359 q 446 319 449 336 q 440 280 442 301 q 437 239 438 259 q 435 209 437 222 q 439 148 437 180 q 453 119 444 132 q 500 83 472 95 q 565 66 529 71 q 636 62 601 62 q 703 65 671 62 q 754 68 734 68 q 750 56 754 62 q 741 43 746 49 q 730 32 735 37 q 723 26 726 27 q 690 18 713 23 q 642 9 667 14 q 595 3 617 5 q 567 0 574 0 q 492 1 524 -8 q 439 34 461 11 q 429 46 434 39 q 392 26 415 34 q 337 12 368 18 q 275 3 307 5 q 216 -1 244 0 q 168 -3 187 -3 q 119 5 144 -3 q 73 29 94 14 q 39 67 52 45 q 26 117 26 90 m 202 212 q 107 166 134 193 q 83 115 80 140 q 115 71 87 91 q 184 45 144 52 q 273 52 225 39 q 363 103 320 65 q 331 163 347 142 q 296 195 315 184 q 254 209 277 206 q 202 212 231 212 m 576 551 q 545 538 564 551 q 509 505 526 525 q 480 463 491 486 q 472 425 469 441 q 545 426 507 420 q 614 443 583 431 q 666 470 646 454 q 686 502 686 486 q 661 531 685 518 q 576 551 636 544 z "},"":{"ha":509,"x_min":26,"x_max":475,"o":"m 145 -214 q 176 -221 161 -214 q 204 -237 190 -228 q 233 -254 218 -247 q 263 -260 247 -260 q 305 -253 282 -263 q 347 -226 328 -243 q 373 -189 365 -209 q 370 -156 381 -170 q 321 -137 358 -142 q 213 -141 285 -132 q 187 -133 201 -141 q 163 -111 174 -125 q 147 -81 153 -96 q 141 -52 141 -65 q 145 14 134 -11 l 148 18 q 85 66 111 38 q 41 142 57 99 q 26 232 26 184 q 42 343 26 282 q 90 456 58 404 q 167 544 121 509 q 274 579 213 579 q 324 573 305 583 q 353 541 343 563 q 367 492 363 519 q 371 435 370 464 q 371 380 372 406 q 373 339 370 355 l 339 339 q 334 378 338 347 q 323 441 331 408 q 300 499 315 473 q 260 525 286 525 q 189 495 222 525 q 132 423 156 465 q 92 336 107 381 q 77 262 77 292 q 87 188 79 228 q 113 115 95 148 q 161 62 132 83 q 235 50 191 42 q 297 64 267 50 q 355 92 327 77 q 413 121 384 107 q 475 134 442 134 q 449 73 475 99 q 386 30 423 46 q 307 5 349 14 q 237 -3 266 -3 q 191 1 213 -3 q 178 -60 190 -22 q 195 -85 178 -80 q 237 -88 212 -90 q 292 -85 262 -87 q 347 -90 321 -83 q 389 -120 372 -98 q 406 -190 406 -142 q 392 -242 406 -220 q 357 -279 378 -264 q 309 -298 335 -293 q 256 -300 282 -304 q 227 -294 245 -300 q 190 -277 208 -288 q 159 -251 172 -267 q 145 -214 145 -235 z "},"":{"ha":457,"x_min":31,"x_max":415,"o":"m 35 319 q 53 409 35 359 q 101 501 71 458 q 170 573 132 544 q 251 602 209 602 q 296 593 274 602 q 340 568 319 583 q 378 532 361 552 q 404 491 395 513 q 414 449 414 469 q 403 414 415 429 l 117 361 q 107 348 111 359 q 100 319 103 336 q 96 280 98 301 q 92 239 94 259 q 91 204 91 220 q 91 180 91 189 q 109 119 91 142 q 156 83 127 95 q 220 66 184 71 q 292 62 256 62 q 358 65 327 62 q 410 68 389 68 q 406 56 410 62 q 396 43 401 49 q 385 32 391 37 q 378 26 380 27 q 345 18 368 23 q 298 9 323 14 q 251 3 273 5 q 221 0 229 0 q 148 1 179 -8 q 95 34 117 11 q 60 90 73 57 q 39 161 46 123 q 32 240 33 199 q 35 319 31 281 m 232 551 q 200 538 220 551 q 163 505 180 525 q 135 463 146 486 q 127 425 123 441 q 201 426 163 420 q 270 443 239 431 q 321 470 301 454 q 341 502 342 486 q 315 531 340 518 q 232 551 290 544 m 191 887 q 229 843 216 863 q 251 804 241 823 q 271 761 260 784 q 302 705 282 738 q 298 692 302 696 q 287 687 294 689 q 271 683 279 685 q 251 675 262 681 q 224 723 233 705 q 205 755 214 741 q 185 789 197 770 q 153 838 174 807 l 191 887 z "},"":{"ha":457,"x_min":31,"x_max":415,"o":"m 35 319 q 53 409 35 359 q 101 501 71 458 q 170 573 132 544 q 251 602 209 602 q 296 593 274 602 q 340 568 319 583 q 378 532 361 552 q 404 491 395 513 q 414 449 414 469 q 403 414 415 429 l 117 361 q 107 348 111 359 q 100 319 103 336 q 96 280 98 301 q 92 239 94 259 q 91 204 91 220 q 91 180 91 189 q 109 119 91 142 q 156 83 127 95 q 220 66 184 71 q 292 62 256 62 q 358 65 327 62 q 410 68 389 68 q 406 56 410 62 q 396 43 401 49 q 385 32 391 37 q 378 26 380 27 q 345 18 368 23 q 298 9 323 14 q 251 3 273 5 q 221 0 229 0 q 148 1 179 -8 q 95 34 117 11 q 60 90 73 57 q 39 161 46 123 q 32 240 33 199 q 35 319 31 281 m 232 551 q 200 538 220 551 q 163 505 180 525 q 135 463 146 486 q 127 425 123 441 q 201 426 163 420 q 270 443 239 431 q 321 470 301 454 q 341 502 342 486 q 315 531 340 518 q 232 551 290 544 m 309 840 q 274 797 292 815 q 239 760 256 779 q 206 722 222 742 q 171 681 190 703 l 132 701 q 205 800 179 762 q 243 857 231 838 q 260 880 256 876 q 268 878 264 883 q 279 861 271 872 q 309 840 288 849 z "},"":{"ha":457,"x_min":31,"x_max":415,"o":"m 35 319 q 53 409 35 359 q 101 501 71 458 q 170 573 132 544 q 251 602 209 602 q 296 593 274 602 q 340 568 319 583 q 378 532 361 552 q 404 491 395 513 q 414 449 414 469 q 403 414 415 429 l 117 361 q 107 348 111 359 q 100 319 103 336 q 96 280 98 301 q 92 239 94 259 q 91 204 91 220 q 91 180 91 189 q 109 119 91 142 q 156 83 127 95 q 220 66 184 71 q 292 62 256 62 q 358 65 327 62 q 410 68 389 68 q 406 56 410 62 q 396 43 401 49 q 385 32 391 37 q 378 26 380 27 q 345 18 368 23 q 298 9 323 14 q 251 3 273 5 q 221 0 229 0 q 148 1 179 -8 q 95 34 117 11 q 60 90 73 57 q 39 161 46 123 q 32 240 33 199 q 35 319 31 281 m 232 551 q 200 538 220 551 q 163 505 180 525 q 135 463 146 486 q 127 425 123 441 q 201 426 163 420 q 270 443 239 431 q 321 470 301 454 q 341 502 342 486 q 315 531 340 518 q 232 551 290 544 m 244 800 q 209 758 227 777 q 175 721 191 739 q 142 684 159 703 q 106 642 125 665 l 66 662 l 248 909 q 291 856 273 884 q 326 796 309 827 q 358 732 342 765 q 395 667 374 700 q 391 654 395 658 q 379 649 387 651 q 363 645 372 647 q 343 637 354 643 q 315 685 326 667 q 297 718 305 703 q 277 751 289 734 q 244 800 266 769 z "},"":{"ha":457,"x_min":31,"x_max":415,"o":"m 35 319 q 53 409 35 359 q 101 501 71 458 q 170 573 132 544 q 251 602 209 602 q 296 593 274 602 q 340 568 319 583 q 378 532 361 552 q 404 491 395 513 q 414 449 414 469 q 403 414 415 429 l 117 361 q 107 348 111 359 q 100 319 103 336 q 96 280 98 301 q 92 239 94 259 q 91 204 91 220 q 91 180 91 189 q 109 119 91 142 q 156 83 127 95 q 220 66 184 71 q 292 62 256 62 q 358 65 327 62 q 410 68 389 68 q 406 56 410 62 q 396 43 401 49 q 385 32 391 37 q 378 26 380 27 q 345 18 368 23 q 298 9 323 14 q 251 3 273 5 q 221 0 229 0 q 148 1 179 -8 q 95 34 117 11 q 60 90 73 57 q 39 161 46 123 q 32 240 33 199 q 35 319 31 281 m 232 551 q 200 538 220 551 q 163 505 180 525 q 135 463 146 486 q 127 425 123 441 q 201 426 163 420 q 270 443 239 431 q 321 470 301 454 q 341 502 342 486 q 315 531 340 518 q 232 551 290 544 m 62 738 q 64 769 58 758 q 80 785 69 780 q 104 792 91 791 q 129 793 118 793 q 153 792 140 793 q 176 785 165 791 q 193 769 187 780 q 193 738 198 758 q 170 701 189 719 q 129 684 151 684 q 107 688 118 684 q 87 701 96 693 q 73 719 79 709 q 62 738 66 728 m 263 738 q 264 769 258 758 q 281 785 270 780 q 305 792 292 791 q 330 793 319 793 q 353 792 339 793 q 377 785 366 791 q 393 769 388 780 q 393 738 399 758 q 385 719 392 728 q 370 701 378 709 q 350 688 361 693 q 330 684 339 684 q 288 701 307 684 q 263 738 269 719 z "},"":{"ha":197,"x_min":26,"x_max":175,"o":"m 91 526 q 119 528 107 526 q 138 514 130 529 q 148 390 142 453 q 159 263 153 327 q 166 135 164 199 q 167 9 168 71 q 163 -1 167 1 q 151 -2 159 -3 q 134 -1 144 -1 q 111 -3 123 0 l 91 526 m 64 887 q 101 843 88 863 q 123 804 114 823 q 144 761 133 784 q 175 705 155 738 q 171 692 175 696 q 159 687 167 689 q 143 683 152 685 q 123 675 134 681 q 96 723 106 705 q 78 755 87 741 q 58 789 69 770 q 26 838 46 807 l 64 887 z "},"":{"ha":197,"x_min":4,"x_max":182,"o":"m 91 526 q 119 528 107 526 q 138 514 130 529 q 148 390 142 453 q 159 263 153 327 q 166 135 164 199 q 167 9 168 71 q 163 -1 167 1 q 151 -2 159 -3 q 134 -1 144 -1 q 111 -3 123 0 l 91 526 m 182 840 q 146 797 164 815 q 112 760 129 779 q 79 722 95 742 q 43 681 62 703 l 4 701 q 77 800 52 762 q 116 857 103 838 q 133 880 129 876 q 140 878 137 883 q 152 861 144 872 q 182 840 160 849 z "},"":{"ha":197,"x_min":-62,"x_max":266,"o":"m 91 526 q 119 528 107 526 q 138 514 130 529 q 148 390 142 453 q 159 263 153 327 q 166 135 164 199 q 167 9 168 71 q 163 -1 167 1 q 151 -2 159 -3 q 134 -1 144 -1 q 111 -3 123 0 l 91 526 m 115 917 q 80 875 98 894 q 46 838 62 856 q 13 800 30 819 q -23 758 -4 781 l -62 779 l 119 1025 q 162 972 144 1001 q 197 913 180 944 q 229 849 213 882 q 266 784 245 817 q 262 771 266 774 q 250 766 258 768 q 234 762 243 764 q 214 754 225 760 q 186 802 197 784 q 168 835 176 819 q 149 868 160 850 q 115 917 137 886 z "},"":{"ha":197,"x_min":-65,"x_max":266,"o":"m 91 526 q 119 528 107 526 q 138 514 130 529 q 148 390 142 453 q 159 263 153 327 q 166 135 164 199 q 167 9 168 71 q 163 -1 167 1 q 151 -2 159 -3 q 134 -1 144 -1 q 111 -3 123 0 l 91 526 m -65 738 q -64 769 -69 758 q -47 785 -58 780 q -23 792 -37 791 q 1 793 -9 793 q 25 792 12 793 q 49 785 38 791 q 65 769 60 780 q 65 738 71 758 q 42 701 61 719 q 1 684 23 684 q -20 688 -9 684 q -40 701 -31 693 q -55 719 -49 709 q -65 738 -61 728 m 136 738 q 136 769 130 758 q 153 785 142 780 q 178 792 164 791 q 202 793 191 793 q 225 792 212 793 q 250 785 239 791 q 266 769 260 780 q 266 738 271 758 q 258 719 264 728 q 242 701 251 709 q 222 688 233 693 q 202 684 212 684 q 160 701 179 684 q 136 738 141 719 z "},"":{"ha":449,"x_min":26,"x_max":454,"o":"m 454 526 q 430 511 441 518 q 408 497 419 503 q 385 486 397 491 q 353 473 372 480 q 401 387 382 435 q 425 286 419 338 q 425 184 431 235 q 399 92 419 134 q 347 21 380 50 q 270 -18 315 -8 q 178 -14 221 -22 q 102 20 136 -5 q 47 88 68 45 q 26 197 27 132 q 39 264 26 237 q 73 305 52 290 q 119 326 94 320 q 168 331 144 331 q 238 325 209 336 q 290 288 267 313 q 328 223 312 262 q 354 137 343 184 q 361 212 365 174 q 346 289 358 250 q 317 370 334 328 q 286 457 300 412 q 252 458 270 460 q 217 452 233 456 q 186 446 201 449 q 161 445 171 442 q 145 470 151 454 q 140 506 140 486 q 193 518 165 514 q 260 526 221 522 q 224 611 243 570 q 184 690 205 652 l 241 730 q 282 642 262 693 q 339 540 302 591 q 368 552 351 543 q 398 570 384 562 q 422 585 412 579 q 434 583 433 590 l 454 526 m 156 278 q 127 276 142 278 q 98 266 111 274 q 75 241 84 258 q 66 197 66 224 q 80 144 66 167 q 116 105 94 122 q 165 77 138 88 q 219 59 193 66 q 270 49 245 52 q 308 46 294 46 q 298 131 308 90 q 269 205 288 172 q 221 258 250 239 q 156 278 193 278 z "},"":{"ha":549,"x_min":19,"x_max":515,"o":"m 46 7 q 41 70 43 28 q 37 163 39 111 q 34 273 35 216 q 31 381 33 330 q 28 474 30 433 q 22 537 26 515 q 21 544 22 538 q 20 556 20 549 q 19 568 19 563 q 19 575 19 572 q 54 586 39 591 q 77 562 68 581 q 91 517 87 544 q 97 463 95 490 q 99 413 99 435 q 99 381 99 391 q 107 435 102 404 q 123 499 113 467 q 150 564 134 532 q 189 620 165 595 q 241 658 212 644 q 308 669 270 671 q 406 636 368 666 q 467 556 445 606 q 500 441 490 506 q 513 302 510 376 q 515 154 517 229 q 514 9 514 79 q 490 1 502 7 q 469 -5 477 -5 q 458 7 461 -4 q 460 53 454 19 q 465 128 461 77 q 467 241 468 179 q 460 370 467 304 q 435 492 453 437 q 382 581 416 547 q 294 616 349 616 q 201 529 239 593 q 142 380 164 465 q 109 195 119 294 q 98 0 99 95 q 87 1 95 1 q 71 2 80 1 q 55 4 62 3 q 46 7 47 5 m 225 849 q 201 852 210 860 q 186 829 193 845 q 174 795 179 814 q 163 766 168 777 q 151 758 157 755 q 136 784 144 760 q 156 873 136 848 q 222 899 176 899 q 265 870 248 887 q 296 839 282 853 q 322 817 311 825 q 347 814 334 808 q 378 842 361 819 q 420 911 396 864 q 439 905 429 911 q 449 884 449 898 q 406 801 427 829 q 366 766 385 773 q 328 766 347 758 q 292 789 309 774 q 258 821 274 804 q 225 849 241 837 z "},"":{"ha":503,"x_min":33,"x_max":461,"o":"m 33 248 q 38 321 33 279 q 56 404 43 362 q 86 487 68 446 q 130 559 104 528 q 190 611 156 591 q 266 631 224 631 q 347 601 309 631 q 410 524 384 571 q 450 418 437 476 q 461 304 464 359 q 430 159 461 222 q 351 56 399 95 q 248 3 302 16 q 144 10 193 -11 q 64 90 96 31 q 33 248 33 148 m 83 243 q 111 115 87 160 q 170 56 136 71 q 245 56 205 42 q 321 104 286 69 q 382 191 357 138 q 410 308 407 243 q 402 403 412 357 q 374 485 392 449 q 329 542 355 521 q 269 563 302 563 q 210 547 236 563 q 163 503 184 530 q 127 439 142 475 q 102 369 113 404 q 87 300 92 334 q 83 243 83 267 m 214 887 q 252 843 239 863 q 274 804 264 823 q 294 761 283 784 q 326 705 305 738 q 321 692 326 696 q 310 687 317 689 q 294 683 302 685 q 274 675 285 681 q 247 723 256 705 q 229 755 237 741 q 208 789 220 770 q 176 838 197 807 l 214 887 z "},"":{"ha":503,"x_min":33,"x_max":461,"o":"m 33 248 q 38 321 33 279 q 56 404 43 362 q 86 487 68 446 q 130 559 104 528 q 190 611 156 591 q 266 631 224 631 q 347 601 309 631 q 410 524 384 571 q 450 418 437 476 q 461 304 464 359 q 430 159 461 222 q 351 56 399 95 q 248 3 302 16 q 144 10 193 -11 q 64 90 96 31 q 33 248 33 148 m 83 243 q 111 115 87 160 q 170 56 136 71 q 245 56 205 42 q 321 104 286 69 q 382 191 357 138 q 410 308 407 243 q 402 403 412 357 q 374 485 392 449 q 329 542 355 521 q 269 563 302 563 q 210 547 236 563 q 163 503 184 530 q 127 439 142 475 q 102 369 113 404 q 87 300 92 334 q 83 243 83 267 m 334 840 q 298 797 316 815 q 264 760 281 779 q 231 722 247 742 q 195 681 214 703 l 156 701 q 229 800 203 762 q 268 857 255 838 q 285 880 281 876 q 292 878 289 883 q 304 861 296 872 q 334 840 312 849 z "},"":{"ha":503,"x_min":33,"x_max":461,"o":"m 33 248 q 38 321 33 279 q 56 404 43 362 q 86 487 68 446 q 130 559 104 528 q 190 611 156 591 q 266 631 224 631 q 347 601 309 631 q 410 524 384 571 q 450 418 437 476 q 461 304 464 359 q 430 159 461 222 q 351 56 399 95 q 248 3 302 16 q 144 10 193 -11 q 64 90 96 31 q 33 248 33 148 m 83 243 q 111 115 87 160 q 170 56 136 71 q 245 56 205 42 q 321 104 286 69 q 382 191 357 138 q 410 308 407 243 q 402 403 412 357 q 374 485 392 449 q 329 542 355 521 q 269 563 302 563 q 210 547 236 563 q 163 503 184 530 q 127 439 142 475 q 102 369 113 404 q 87 300 92 334 q 83 243 83 267 m 264 917 q 229 875 247 894 q 195 838 212 856 q 162 800 179 819 q 126 758 145 781 l 87 779 l 269 1025 q 311 972 293 1001 q 346 913 330 944 q 378 849 362 882 q 415 784 395 817 q 411 771 415 774 q 399 766 407 768 q 383 762 392 764 q 363 754 374 760 q 336 802 346 784 q 317 835 326 819 q 298 868 309 850 q 264 917 286 886 z "},"":{"ha":503,"x_min":33,"x_max":461,"o":"m 33 248 q 38 321 33 279 q 56 404 43 362 q 86 487 68 446 q 130 559 104 528 q 190 611 156 591 q 266 631 224 631 q 347 601 309 631 q 410 524 384 571 q 450 418 437 476 q 461 304 464 359 q 430 159 461 222 q 351 56 399 95 q 248 3 302 16 q 144 10 193 -11 q 64 90 96 31 q 33 248 33 148 m 83 243 q 111 115 87 160 q 170 56 136 71 q 245 56 205 42 q 321 104 286 69 q 382 191 357 138 q 410 308 407 243 q 402 403 412 357 q 374 485 392 449 q 329 542 355 521 q 269 563 302 563 q 210 547 236 563 q 163 503 184 530 q 127 439 142 475 q 102 369 113 404 q 87 300 92 334 q 83 243 83 267 m 184 746 q 161 749 170 757 q 145 726 152 742 q 133 692 138 711 q 122 663 127 674 q 110 654 117 652 q 95 681 103 656 q 115 770 95 745 q 182 796 136 796 q 224 767 208 784 q 256 736 241 750 q 281 713 270 722 q 307 711 293 705 q 338 739 320 716 q 380 808 355 761 q 398 802 388 808 q 408 781 408 795 q 366 698 387 726 q 326 663 345 670 q 288 663 307 655 q 251 686 269 671 q 217 718 233 701 q 184 746 201 734 z "},"":{"ha":503,"x_min":33,"x_max":461,"o":"m 33 248 q 38 321 33 279 q 56 404 43 362 q 86 487 68 446 q 130 559 104 528 q 190 611 156 591 q 266 631 224 631 q 347 601 309 631 q 410 524 384 571 q 450 418 437 476 q 461 304 464 359 q 430 159 461 222 q 351 56 399 95 q 248 3 302 16 q 144 10 193 -11 q 64 90 96 31 q 33 248 33 148 m 83 243 q 111 115 87 160 q 170 56 136 71 q 245 56 205 42 q 321 104 286 69 q 382 191 357 138 q 410 308 407 243 q 402 403 412 357 q 374 485 392 449 q 329 542 355 521 q 269 563 302 563 q 210 547 236 563 q 163 503 184 530 q 127 439 142 475 q 102 369 113 404 q 87 300 92 334 q 83 243 83 267 m 85 738 q 87 769 81 758 q 103 785 92 780 q 127 792 114 791 q 152 793 141 793 q 176 792 163 793 q 199 785 189 791 q 216 769 210 780 q 216 738 221 758 q 193 701 212 719 q 152 684 174 684 q 130 688 141 684 q 111 701 119 693 q 96 719 102 709 q 85 738 90 728 m 286 738 q 287 769 281 758 q 304 785 293 780 q 328 792 315 791 q 353 793 342 793 q 376 792 362 793 q 400 785 389 791 q 416 769 411 780 q 416 738 422 758 q 408 719 415 728 q 393 701 401 709 q 373 688 384 693 q 353 684 362 684 q 311 701 330 684 q 286 738 292 719 z "},"":{"ha":385,"x_min":19,"x_max":354,"o":"m 183 122 q 193 159 183 142 q 225 175 202 175 q 258 158 248 175 q 267 121 267 141 q 257 83 267 98 q 212 69 247 69 q 195 75 201 69 q 187 90 190 81 q 184 107 184 98 q 183 122 183 117 m 132 448 q 137 468 132 460 q 155 479 142 476 q 187 477 167 481 q 237 460 208 473 q 210 423 224 439 q 174 407 195 407 q 144 419 156 407 q 132 448 132 431 m 46 312 q 58 315 46 313 q 97 318 71 316 q 165 323 123 320 q 269 331 208 327 q 286 332 274 331 q 311 334 298 334 q 336 336 324 335 q 354 338 347 338 q 347 304 354 319 q 321 281 339 290 q 262 275 289 278 q 210 270 236 273 q 157 265 184 267 q 98 260 130 263 q 85 260 95 260 q 69 259 75 259 q 39 262 52 259 q 19 286 27 264 l 46 312 z "},"":{"ha":503,"x_min":33,"x_max":461,"o":"m 315 674 q 321 692 317 682 q 332 706 326 703 q 347 703 338 709 q 368 674 355 697 l 346 601 l 346 600 q 410 524 384 571 q 450 418 437 476 q 461 304 464 359 q 430 159 461 222 q 351 56 399 95 q 247 3 302 16 q 168 1 206 -7 l 148 -69 l 107 -28 l 122 22 q 64 90 88 46 q 33 248 33 148 q 38 321 33 279 q 56 404 43 362 q 86 487 68 446 q 130 559 104 528 q 190 611 156 591 q 266 631 224 631 q 301 625 283 631 l 315 674 m 245 56 q 321 104 286 69 q 382 191 357 138 q 410 308 407 243 q 402 403 412 357 q 374 485 392 449 q 328 543 355 521 l 183 52 q 245 56 213 45 m 83 243 q 111 115 87 160 q 138 79 123 92 l 282 563 q 269 563 275 563 q 210 547 236 563 q 163 503 184 530 q 127 439 142 475 q 102 369 113 404 q 87 300 92 334 q 83 243 83 267 z "},"":{"ha":621,"x_min":26,"x_max":595,"o":"m 26 526 q 35 540 26 533 q 56 551 43 547 q 81 556 69 555 q 99 552 94 557 q 131 284 107 384 q 185 138 155 184 q 251 92 216 92 q 320 121 286 91 q 383 205 354 152 q 431 319 412 258 q 453 441 449 380 q 442 549 457 502 l 524 559 q 531 492 525 538 q 545 386 537 445 q 562 263 552 327 q 578 144 571 199 q 590 51 585 90 q 595 3 595 12 l 537 3 l 473 237 q 427 146 454 190 q 368 71 400 103 q 301 20 336 38 q 231 5 266 1 q 164 37 197 8 q 104 127 132 65 q 56 286 76 189 q 26 526 35 384 m 274 887 q 311 843 298 863 q 334 804 324 823 q 354 761 343 784 q 385 705 365 738 q 381 692 385 696 q 370 687 377 689 q 353 683 362 685 q 334 675 345 681 q 307 723 316 705 q 288 755 297 741 q 268 789 279 770 q 236 838 256 807 l 274 887 z "},"":{"ha":621,"x_min":26,"x_max":595,"o":"m 26 526 q 35 540 26 533 q 56 551 43 547 q 81 556 69 555 q 99 552 94 557 q 131 284 107 384 q 185 138 155 184 q 251 92 216 92 q 320 121 286 91 q 383 205 354 152 q 431 319 412 258 q 453 441 449 380 q 442 549 457 502 l 524 559 q 531 492 525 538 q 545 386 537 445 q 562 263 552 327 q 578 144 571 199 q 590 51 585 90 q 595 3 595 12 l 537 3 l 473 237 q 427 146 454 190 q 368 71 400 103 q 301 20 336 38 q 231 5 266 1 q 164 37 197 8 q 104 127 132 65 q 56 286 76 189 q 26 526 35 384 m 392 840 q 357 797 374 815 q 322 760 339 779 q 289 722 305 742 q 254 681 273 703 l 214 701 q 288 800 262 762 q 326 857 313 838 q 343 880 339 876 q 351 878 347 883 q 362 861 354 872 q 392 840 370 849 z "},"":{"ha":621,"x_min":26,"x_max":595,"o":"m 26 526 q 35 540 26 533 q 56 551 43 547 q 81 556 69 555 q 99 552 94 557 q 131 284 107 384 q 185 138 155 184 q 251 92 216 92 q 320 121 286 91 q 383 205 354 152 q 431 319 412 258 q 453 441 449 380 q 442 549 457 502 l 524 559 q 531 492 525 538 q 545 386 537 445 q 562 263 552 327 q 578 144 571 199 q 590 51 585 90 q 595 3 595 12 l 537 3 l 473 237 q 427 146 454 190 q 368 71 400 103 q 301 20 336 38 q 231 5 266 1 q 164 37 197 8 q 104 127 132 65 q 56 286 76 189 q 26 526 35 384 m 324 917 q 289 875 307 894 q 255 838 271 856 q 222 800 239 819 q 186 758 205 781 l 146 779 l 328 1025 q 371 972 353 1001 q 406 913 389 944 q 438 849 422 882 q 475 784 454 817 q 471 771 475 774 q 459 766 467 768 q 443 762 452 764 q 423 754 434 760 q 395 802 406 784 q 377 835 385 819 q 357 868 369 850 q 324 917 346 886 z "},"":{"ha":621,"x_min":26,"x_max":595,"o":"m 26 526 q 35 540 26 533 q 56 551 43 547 q 81 556 69 555 q 99 552 94 557 q 131 284 107 384 q 185 138 155 184 q 251 92 216 92 q 320 121 286 91 q 383 205 354 152 q 431 319 412 258 q 453 441 449 380 q 442 549 457 502 l 524 559 q 531 492 525 538 q 545 386 537 445 q 562 263 552 327 q 578 144 571 199 q 590 51 585 90 q 595 3 595 12 l 537 3 l 473 237 q 427 146 454 190 q 368 71 400 103 q 301 20 336 38 q 231 5 266 1 q 164 37 197 8 q 104 127 132 65 q 56 286 76 189 q 26 526 35 384 m 145 738 q 146 769 141 758 q 163 785 152 780 q 187 792 174 791 q 212 793 201 793 q 235 792 222 793 q 259 785 248 791 q 275 769 270 780 q 275 738 281 758 q 252 701 271 719 q 212 684 233 684 q 190 688 201 684 q 170 701 179 693 q 155 719 161 709 q 145 738 149 728 m 346 738 q 347 769 340 758 q 363 785 353 780 q 388 792 374 791 q 412 793 401 793 q 435 792 422 793 q 460 785 449 791 q 476 769 471 780 q 476 738 481 758 q 468 719 475 728 q 452 701 461 709 q 433 688 444 693 q 412 684 422 684 q 370 701 389 684 q 346 738 351 719 z "},"":{"ha":521,"x_min":14,"x_max":498,"o":"m 290 -556 q 302 -416 290 -488 q 328 -273 315 -345 q 349 -129 340 -201 q 351 12 358 -57 l 14 585 q 61 615 43 612 q 81 616 79 618 q 113 566 91 602 q 165 480 136 529 q 227 377 194 431 q 288 274 259 323 q 338 187 317 225 q 368 134 359 149 l 430 637 l 498 604 l 351 -560 l 290 -556 m 342 840 q 307 797 324 815 q 272 760 289 779 q 239 722 255 742 q 203 681 222 703 l 164 701 q 237 800 212 762 q 276 857 263 838 q 293 880 289 876 q 300 878 297 883 q 312 861 304 872 q 342 840 320 849 z "},"":{"ha":547,"x_min":35,"x_max":534,"o":"m 35 807 q 46 819 35 814 q 70 827 57 825 q 93 827 83 829 q 103 819 103 826 q 103 701 103 747 q 102 625 103 654 q 101 583 102 597 q 102 566 100 570 q 105 563 103 562 q 111 567 107 564 q 193 587 148 585 q 284 578 239 590 q 373 544 330 567 q 450 487 416 521 q 507 410 484 453 q 534 319 529 368 q 496 189 534 248 q 396 89 457 130 q 263 26 335 47 q 127 9 191 5 l 119 -145 l 66 -140 l 35 807 m 244 511 q 193 512 217 510 q 151 512 168 514 q 126 498 134 510 q 123 457 118 486 q 125 414 125 444 q 124 347 125 384 q 123 268 123 309 q 123 189 123 227 q 123 122 122 152 q 125 79 123 92 q 172 82 142 81 q 238 88 202 83 q 313 105 274 94 q 384 140 351 117 q 441 200 416 163 q 475 294 465 237 q 457 388 475 347 q 408 456 439 429 q 335 497 377 483 q 244 511 293 511 z "},"":{"ha":521,"x_min":14,"x_max":498,"o":"m 290 -556 q 302 -416 290 -488 q 328 -273 315 -345 q 349 -129 340 -201 q 351 12 358 -57 l 14 585 q 61 615 43 612 q 81 616 79 618 q 113 566 91 602 q 165 480 136 529 q 227 377 194 431 q 288 274 259 323 q 338 187 317 225 q 368 134 359 149 l 430 637 l 498 604 l 351 -560 l 290 -556 m 94 738 q 95 769 90 758 q 111 785 100 780 q 136 792 122 791 q 160 793 149 793 q 184 792 171 793 q 208 785 197 791 q 224 769 218 780 q 224 738 229 758 q 201 701 220 719 q 160 684 182 684 q 138 688 149 684 q 119 701 127 693 q 104 719 110 709 q 94 738 98 728 m 294 738 q 295 769 289 758 q 312 785 301 780 q 336 792 323 791 q 361 793 350 793 q 384 792 370 793 q 408 785 397 791 q 425 769 419 780 q 425 738 430 758 q 416 719 423 728 q 401 701 410 709 q 381 688 392 693 q 361 684 370 684 q 319 701 338 684 q 294 738 300 719 z "},"":{"ha":540,"x_min":23,"x_max":528,"o":"m 244 845 q 332 816 294 845 q 397 738 369 787 q 444 625 425 689 q 475 492 463 562 q 494 351 487 422 q 503 217 500 279 q 507 104 506 155 q 507 26 507 54 l 475 26 l 423 312 q 393 320 416 319 q 337 319 369 321 q 268 311 305 316 q 197 304 231 307 q 137 303 164 302 q 98 312 110 304 l 98 26 l 28 26 q 29 41 28 30 q 30 65 30 53 q 31 88 30 77 q 33 103 33 99 q 45 262 41 182 q 57 419 50 343 q 75 564 64 495 q 109 690 87 633 q 163 786 130 746 q 244 845 195 826 m 266 783 q 207 758 231 783 q 168 692 183 732 q 145 604 153 652 q 134 508 137 555 q 131 421 132 461 q 130 359 130 381 q 266 370 197 359 q 396 391 335 380 q 398 408 397 396 q 399 435 399 420 q 401 464 400 450 q 401 481 401 477 q 397 567 401 526 q 378 646 392 608 q 337 719 363 685 q 266 783 311 753 m 39 1005 l 528 1009 l 528 958 q 478 960 514 960 q 395 958 442 959 q 293 954 347 956 q 187 951 239 951 q 92 955 136 952 q 23 967 49 958 l 39 1005 z "},"":{"ha":469,"x_min":9,"x_max":444,"o":"m 26 117 q 68 229 26 194 q 180 264 111 264 q 231 263 208 264 q 277 256 255 262 q 319 240 298 251 q 363 209 340 229 q 364 226 363 213 q 365 254 365 239 q 365 281 365 269 q 365 300 365 294 q 363 363 363 324 q 357 442 363 401 q 333 519 351 483 q 274 575 315 556 q 221 566 245 575 q 172 545 197 556 q 123 526 148 534 q 71 517 99 517 q 92 573 71 551 q 142 608 113 595 q 205 624 172 620 q 262 628 237 628 q 307 618 286 624 q 347 597 328 613 q 380 547 365 581 q 408 454 396 514 q 428 303 419 395 q 442 79 437 212 q 431 48 445 61 q 392 26 416 35 q 337 12 368 18 q 275 3 307 5 q 216 -1 244 0 q 168 -3 187 -3 q 119 5 144 -3 q 73 29 94 14 q 39 67 52 45 q 26 117 26 90 m 202 212 q 107 166 134 193 q 83 115 80 140 q 115 71 87 91 q 184 45 144 52 q 273 52 225 39 q 363 103 320 65 q 331 163 347 142 q 296 195 315 184 q 254 209 277 206 q 202 212 231 212 m 24 723 l 443 726 l 443 685 q 400 686 431 687 q 329 685 369 686 q 242 681 288 683 q 151 680 195 679 q 70 682 107 680 q 10 692 32 685 l 24 723 z "},"":{"ha":540,"x_min":28,"x_max":507,"o":"m 244 845 q 332 816 294 845 q 397 738 369 787 q 444 625 425 689 q 475 492 463 562 q 494 351 487 422 q 503 217 500 279 q 507 104 506 155 q 507 26 507 54 l 475 26 l 423 312 q 393 320 416 319 q 337 319 369 321 q 268 311 305 316 q 197 304 231 307 q 137 303 164 302 q 98 312 110 304 l 98 26 l 28 26 q 29 41 28 30 q 30 65 30 53 q 31 88 30 77 q 33 103 33 99 q 45 262 41 182 q 57 419 50 343 q 75 564 64 495 q 109 690 87 633 q 163 786 130 746 q 244 845 195 826 m 266 783 q 207 758 231 783 q 168 692 183 732 q 145 604 153 652 q 134 508 137 555 q 131 421 132 461 q 130 359 130 381 q 266 370 197 359 q 396 391 335 380 q 398 408 397 396 q 399 435 399 420 q 401 464 400 450 q 401 481 401 477 q 397 567 401 526 q 378 646 392 608 q 337 719 363 685 q 266 783 311 753 m 317 1021 q 325 996 326 1010 q 324 966 324 981 q 320 941 324 955 q 307 913 316 926 q 285 892 298 901 q 251 884 271 884 q 212 892 228 884 q 187 913 197 901 q 174 941 178 925 q 170 970 170 956 q 171 989 170 978 q 175 1012 172 1001 l 202 1012 q 196 995 198 1005 q 198 970 194 985 q 224 924 210 935 q 251 920 239 914 q 272 941 263 925 q 286 974 281 956 q 283 998 283 986 q 275 1016 282 1009 l 317 1021 z "},"":{"ha":469,"x_min":26,"x_max":442,"o":"m 26 117 q 68 229 26 194 q 180 264 111 264 q 231 263 208 264 q 277 256 255 262 q 319 240 298 251 q 363 209 340 229 q 364 226 363 213 q 365 254 365 239 q 365 281 365 269 q 365 300 365 294 q 363 363 363 324 q 357 442 363 401 q 333 519 351 483 q 274 575 315 556 q 221 566 245 575 q 172 545 197 556 q 123 526 148 534 q 71 517 99 517 q 92 573 71 551 q 142 608 113 595 q 205 624 172 620 q 262 628 237 628 q 307 618 286 624 q 347 597 328 613 q 380 547 365 581 q 408 454 396 514 q 428 303 419 395 q 442 79 437 212 q 431 48 445 61 q 392 26 416 35 q 337 12 368 18 q 275 3 307 5 q 216 -1 244 0 q 168 -3 187 -3 q 119 5 144 -3 q 73 29 94 14 q 39 67 52 45 q 26 117 26 90 m 202 212 q 107 166 134 193 q 83 115 80 140 q 115 71 87 91 q 184 45 144 52 q 273 52 225 39 q 363 103 320 65 q 331 163 347 142 q 296 195 315 184 q 254 209 277 206 q 202 212 231 212 m 302 827 q 310 802 311 817 q 309 772 309 787 q 305 747 309 761 q 292 720 301 732 q 270 699 283 707 q 236 690 256 690 q 197 699 213 690 q 172 719 182 707 q 159 747 163 731 q 155 776 155 762 q 156 795 155 784 q 160 818 157 807 l 187 818 q 181 801 183 811 q 183 776 179 791 q 210 730 195 741 q 236 726 224 720 q 257 747 248 731 q 271 780 266 762 q 268 804 269 792 q 260 822 267 815 l 302 827 z "},"":{"ha":540,"x_min":26,"x_max":541,"o":"m 541 -168 q 511 -177 534 -170 q 456 -192 487 -184 q 391 -203 426 -199 q 328 -199 357 -206 q 281 -170 300 -191 q 262 -104 262 -149 q 278 -33 262 -62 q 322 18 294 -3 q 385 50 350 38 q 460 69 420 62 l 420 289 q 389 297 412 296 q 334 296 366 298 q 265 288 302 293 q 194 281 228 283 q 134 279 160 278 q 95 289 107 281 l 95 3 l 26 3 q 26 18 26 7 q 26 42 26 30 q 28 65 27 54 q 30 80 30 76 q 42 239 38 159 q 54 396 46 320 q 73 541 61 472 q 106 666 84 610 q 160 762 127 722 q 241 822 193 803 q 328 793 290 822 q 394 715 366 764 q 441 602 422 666 q 472 469 460 538 q 491 328 484 399 q 500 194 498 256 q 504 81 503 132 q 505 3 505 30 l 472 3 l 469 11 q 427 7 449 9 q 372 -13 396 1 q 332 -52 347 -27 q 317 -115 317 -76 q 336 -153 317 -144 q 386 -157 355 -161 q 456 -138 416 -152 q 537 -109 495 -123 l 541 -168 m 263 760 q 204 734 228 760 q 165 669 180 709 q 142 581 151 629 q 131 485 134 532 q 127 398 127 438 q 127 336 127 358 q 262 346 193 336 q 393 368 331 355 q 395 385 395 372 q 397 412 396 397 q 398 440 397 427 q 399 458 399 453 q 394 543 399 502 q 375 623 389 585 q 334 695 361 661 q 263 760 307 730 z "},"":{"ha":469,"x_min":18,"x_max":438,"o":"m 438 -145 q 408 -154 431 -146 q 353 -170 384 -161 q 288 -181 323 -178 q 225 -177 254 -184 q 178 -148 197 -170 q 160 -83 160 -126 q 176 -9 160 -39 q 203 26 187 9 l 161 26 q 112 34 137 26 q 66 58 87 42 q 31 96 45 73 q 18 145 18 118 q 60 258 18 222 q 172 293 103 293 q 224 292 201 293 q 270 285 248 290 q 313 269 292 279 q 357 237 334 258 q 357 254 357 241 q 358 282 358 267 l 358 328 q 356 391 355 353 q 351 471 357 430 q 326 548 345 511 q 266 604 307 585 q 214 594 239 604 q 164 574 189 585 q 115 554 140 563 q 64 545 91 545 q 85 602 64 579 q 135 636 106 624 q 197 652 164 648 q 254 656 231 656 q 300 647 278 652 q 340 625 321 642 q 373 576 358 609 q 400 483 388 543 q 421 332 412 423 q 435 107 430 240 q 422 77 437 90 q 384 54 408 64 q 373 50 380 53 q 377 46 376 47 q 387 37 384 39 q 388 34 391 35 q 325 29 355 34 q 270 10 294 24 q 230 -28 245 -4 q 214 -92 214 -53 q 233 -130 214 -121 q 283 -134 252 -138 q 353 -115 313 -129 q 434 -85 392 -100 l 438 -145 m 195 240 q 100 195 127 221 q 77 144 73 168 q 108 100 80 119 q 176 74 136 80 q 265 81 217 68 q 357 132 313 94 q 323 192 339 171 q 288 224 307 213 q 247 237 270 235 q 195 240 224 240 z "},"":{"ha":591,"x_min":18,"x_max":567,"o":"m 18 351 q 26 446 18 393 q 53 551 35 498 q 97 656 71 605 q 158 747 123 707 q 237 811 193 787 q 334 836 281 836 q 398 821 372 836 q 441 781 425 806 q 465 726 457 757 q 472 665 472 696 q 427 683 442 665 q 399 724 412 701 q 370 764 387 746 q 319 783 353 783 q 239 758 274 783 q 179 695 205 734 q 136 608 153 656 q 109 510 119 559 q 95 416 99 461 q 91 339 91 370 q 90 243 85 293 q 113 153 95 194 q 164 83 130 111 q 254 52 198 56 q 332 63 289 52 q 418 90 376 75 q 500 124 461 106 q 567 156 540 142 l 567 103 q 550 97 566 103 q 509 81 534 91 q 452 61 484 72 q 389 39 420 50 q 329 17 358 27 q 279 0 300 7 q 274 -1 278 0 q 267 -1 270 -1 q 144 31 193 -1 q 68 113 96 62 q 28 227 39 164 q 18 351 18 290 m 378 1048 q 343 1006 361 1024 q 309 969 326 987 q 275 931 292 951 q 240 890 259 911 l 201 910 q 274 1009 248 971 q 313 1066 300 1047 q 330 1088 326 1085 q 337 1086 334 1092 q 349 1069 340 1081 q 378 1048 357 1058 z "},"":{"ha":509,"x_min":26,"x_max":475,"o":"m 26 232 q 42 343 26 282 q 90 456 58 404 q 167 544 121 509 q 274 579 213 579 q 324 573 305 583 q 353 541 343 563 q 367 492 363 519 q 371 435 370 464 q 371 380 372 406 q 373 339 370 355 l 339 339 q 334 378 338 347 q 323 441 331 408 q 300 499 315 473 q 260 525 286 525 q 189 495 222 525 q 132 423 156 465 q 92 336 107 381 q 77 262 77 292 q 87 188 79 228 q 113 115 95 148 q 161 62 132 83 q 235 50 191 42 q 297 64 267 50 q 355 92 327 77 q 413 121 384 107 q 475 134 442 134 q 449 73 475 99 q 386 30 423 46 q 307 5 349 14 q 237 -3 266 -3 q 153 16 191 -3 q 85 67 114 35 q 41 142 57 99 q 26 232 26 184 m 336 840 q 301 797 319 815 q 267 760 283 779 q 233 722 250 742 q 198 681 217 703 l 159 701 q 232 800 206 762 q 271 857 258 838 q 288 880 283 876 q 295 878 292 883 q 307 861 298 872 q 336 840 315 849 z "},"":{"ha":591,"x_min":18,"x_max":567,"o":"m 18 351 q 26 446 18 393 q 53 551 35 498 q 97 656 71 605 q 158 747 123 707 q 237 811 193 787 q 334 836 281 836 q 398 821 372 836 q 441 781 425 806 q 465 726 457 757 q 472 665 472 696 q 427 683 442 665 q 399 724 412 701 q 370 764 387 746 q 319 783 353 783 q 239 758 274 783 q 179 695 205 734 q 136 608 153 656 q 109 510 119 559 q 95 416 99 461 q 91 339 91 370 q 90 243 85 293 q 113 153 95 194 q 164 83 130 111 q 254 52 198 56 q 332 63 289 52 q 418 90 376 75 q 500 124 461 106 q 567 156 540 142 l 567 103 q 550 97 566 103 q 509 81 534 91 q 452 61 484 72 q 389 39 420 50 q 329 17 358 27 q 279 0 300 7 q 274 -1 278 0 q 267 -1 270 -1 q 144 31 193 -1 q 68 113 96 62 q 28 227 39 164 q 18 351 18 290 m 301 1089 q 266 1047 283 1066 q 232 1010 248 1028 q 199 972 216 991 q 163 930 182 954 l 123 951 l 305 1198 q 348 1145 330 1173 q 382 1085 366 1116 q 415 1021 399 1054 q 452 956 431 989 q 448 943 452 947 q 436 938 444 940 q 420 934 429 936 q 400 926 411 932 q 372 974 382 956 q 354 1007 362 991 q 334 1040 346 1023 q 301 1089 323 1058 z "},"":{"ha":509,"x_min":26,"x_max":475,"o":"m 26 232 q 42 343 26 282 q 90 456 58 404 q 167 544 121 509 q 274 579 213 579 q 324 573 305 583 q 353 541 343 563 q 367 492 363 519 q 371 435 370 464 q 371 380 372 406 q 373 339 370 355 l 339 339 q 334 378 338 347 q 323 441 331 408 q 300 499 315 473 q 260 525 286 525 q 189 495 222 525 q 132 423 156 465 q 92 336 107 381 q 77 262 77 292 q 87 188 79 228 q 113 115 95 148 q 161 62 132 83 q 235 50 191 42 q 297 64 267 50 q 355 92 327 77 q 413 121 384 107 q 475 134 442 134 q 449 73 475 99 q 386 30 423 46 q 307 5 349 14 q 237 -3 266 -3 q 153 16 191 -3 q 85 67 114 35 q 41 142 57 99 q 26 232 26 184 m 267 917 q 232 875 250 894 q 198 838 214 856 q 165 800 182 819 q 129 758 148 781 l 90 779 l 271 1025 q 314 972 296 1001 q 349 913 332 944 q 381 849 365 882 q 418 784 397 817 q 414 771 418 774 q 402 766 410 768 q 386 762 395 764 q 366 754 377 760 q 338 802 349 784 q 320 835 328 819 q 300 868 312 850 q 267 917 289 886 z "},"":{"ha":591,"x_min":18,"x_max":567,"o":"m 18 351 q 26 446 18 393 q 53 551 35 498 q 97 656 71 605 q 158 747 123 707 q 237 811 193 787 q 334 836 281 836 q 398 821 372 836 q 441 781 425 806 q 465 726 457 757 q 472 665 472 696 q 427 683 442 665 q 399 724 412 701 q 370 764 387 746 q 319 783 353 783 q 239 758 274 783 q 179 695 205 734 q 136 608 153 656 q 109 510 119 559 q 95 416 99 461 q 91 339 91 370 q 90 243 85 293 q 113 153 95 194 q 164 83 130 111 q 254 52 198 56 q 332 63 289 52 q 418 90 376 75 q 500 124 461 106 q 567 156 540 142 l 567 103 q 550 97 566 103 q 509 81 534 91 q 452 61 484 72 q 389 39 420 50 q 329 17 358 27 q 279 0 300 7 q 274 -1 278 0 q 267 -1 270 -1 q 144 31 193 -1 q 68 113 96 62 q 28 227 39 164 q 18 351 18 290 m 254 947 q 252 981 250 967 q 260 1004 254 996 q 275 1017 266 1013 q 294 1020 285 1020 q 315 1017 305 1020 q 331 1005 324 1013 q 340 983 338 997 q 336 949 342 970 q 323 920 331 932 q 294 909 316 909 q 267 919 274 909 q 254 947 259 929 z "},"":{"ha":509,"x_min":26,"x_max":475,"o":"m 26 232 q 42 343 26 282 q 90 456 58 404 q 167 544 121 509 q 274 579 213 579 q 324 573 305 583 q 353 541 343 563 q 367 492 363 519 q 371 435 370 464 q 371 380 372 406 q 373 339 370 355 l 339 339 q 334 378 338 347 q 323 441 331 408 q 300 499 315 473 q 260 525 286 525 q 189 495 222 525 q 132 423 156 465 q 92 336 107 381 q 77 262 77 292 q 87 188 79 228 q 113 115 95 148 q 161 62 132 83 q 235 50 191 42 q 297 64 267 50 q 355 92 327 77 q 413 121 384 107 q 475 134 442 134 q 449 73 475 99 q 386 30 423 46 q 307 5 349 14 q 237 -3 266 -3 q 153 16 191 -3 q 85 67 114 35 q 41 142 57 99 q 26 232 26 184 m 203 684 q 201 718 199 704 q 210 741 203 732 q 225 753 216 750 q 244 757 235 757 q 264 753 255 757 q 281 742 274 750 q 290 720 288 734 q 286 686 292 707 q 273 657 281 669 q 244 646 266 646 q 216 656 224 646 q 203 684 209 666 z "},"":{"ha":591,"x_min":18,"x_max":567,"o":"m 18 351 q 26 446 18 393 q 53 551 35 498 q 97 656 71 605 q 158 747 123 707 q 237 811 193 787 q 334 836 281 836 q 398 821 372 836 q 441 781 425 806 q 465 726 457 757 q 472 665 472 696 q 427 683 442 665 q 399 724 412 701 q 370 764 387 746 q 319 783 353 783 q 239 758 274 783 q 179 695 205 734 q 136 608 153 656 q 109 510 119 559 q 95 416 99 461 q 91 339 91 370 q 90 243 85 293 q 113 153 95 194 q 164 83 130 111 q 254 52 198 56 q 332 63 289 52 q 418 90 376 75 q 500 124 461 106 q 567 156 540 142 l 567 103 q 550 97 566 103 q 509 81 534 91 q 452 61 484 72 q 389 39 420 50 q 329 17 358 27 q 279 0 300 7 q 274 -1 278 0 q 267 -1 270 -1 q 144 31 193 -1 q 68 113 96 62 q 28 227 39 164 q 18 351 18 290 m 311 1024 q 345 1057 334 1044 q 366 1078 357 1069 q 386 1099 376 1088 q 416 1130 396 1109 q 437 1124 427 1126 q 455 1122 448 1123 q 467 1118 463 1120 q 472 1109 472 1116 q 432 1068 450 1089 q 397 1027 414 1047 q 360 989 380 1008 q 313 955 340 971 l 119 1114 l 161 1126 q 199 1100 182 1112 q 235 1076 217 1088 q 272 1053 254 1065 q 311 1024 290 1040 z "},"":{"ha":509,"x_min":26,"x_max":475,"o":"m 26 232 q 42 343 26 282 q 90 456 58 404 q 167 544 121 509 q 274 579 213 579 q 324 573 305 583 q 353 541 343 563 q 367 492 363 519 q 371 435 370 464 q 371 380 372 406 q 373 339 370 355 l 339 339 q 334 378 338 347 q 323 441 331 408 q 300 499 315 473 q 260 525 286 525 q 189 495 222 525 q 132 423 156 465 q 92 336 107 381 q 77 262 77 292 q 87 188 79 228 q 113 115 95 148 q 161 62 132 83 q 235 50 191 42 q 297 64 267 50 q 355 92 327 77 q 413 121 384 107 q 475 134 442 134 q 449 73 475 99 q 386 30 423 46 q 307 5 349 14 q 237 -3 266 -3 q 153 16 191 -3 q 85 67 114 35 q 41 142 57 99 q 26 232 26 184 m 269 815 q 303 848 292 836 q 324 869 315 860 q 344 890 334 879 q 374 921 354 901 q 395 916 385 917 q 413 913 406 914 q 425 909 420 911 q 430 901 430 907 q 390 859 408 880 q 355 819 372 838 q 318 781 338 799 q 271 746 298 762 l 77 905 l 119 917 q 157 891 140 903 q 193 867 175 879 q 230 844 212 856 q 269 815 248 831 z "},"":{"ha":730,"x_min":26,"x_max":704,"o":"m 52 677 q 45 686 49 680 q 37 702 41 693 q 29 718 33 711 q 26 730 26 726 q 37 749 26 742 q 61 757 47 755 q 87 758 75 758 q 103 758 100 758 q 115 758 107 758 q 131 756 122 757 q 146 755 140 755 q 156 754 153 754 q 258 716 201 738 q 377 666 316 694 q 496 602 438 637 q 601 520 555 566 q 675 420 647 475 q 704 300 704 366 q 682 197 704 243 q 625 119 661 152 q 541 62 589 85 q 444 24 494 38 q 345 3 395 9 q 251 -4 294 -4 q 218 -3 241 -4 q 171 -1 195 -3 q 127 1 146 0 q 106 1 107 1 l 103 52 l 52 677 m 129 684 q 129 673 129 681 q 130 654 129 665 q 130 636 130 644 q 130 624 130 628 q 134 559 132 604 q 138 457 136 514 q 143 338 140 400 q 149 220 146 277 q 154 119 152 164 q 156 52 156 73 q 182 51 164 52 q 221 50 201 50 q 260 48 241 49 q 286 47 278 47 q 410 63 349 47 q 519 111 471 79 q 597 193 567 142 q 628 316 628 244 q 604 417 628 369 q 539 506 579 465 q 448 579 499 547 q 341 635 396 612 q 231 671 286 659 q 129 684 176 684 m 380 1024 q 414 1057 403 1044 q 435 1078 426 1069 q 455 1099 445 1088 q 486 1130 465 1109 q 507 1124 496 1126 q 524 1122 517 1123 q 536 1118 532 1120 q 541 1109 541 1116 q 501 1068 519 1089 q 466 1027 483 1047 q 429 989 449 1008 q 382 955 410 971 l 189 1114 l 231 1126 q 269 1100 251 1112 q 304 1076 286 1088 q 341 1053 323 1065 q 380 1024 359 1040 z "},"":{"ha":576,"x_min":4,"x_max":553,"o":"m 4 197 q 16 277 4 233 q 52 359 28 321 q 107 420 75 396 q 183 445 140 445 q 241 439 216 445 q 288 418 266 433 q 330 385 311 404 q 372 339 350 365 l 363 1035 q 409 1046 400 1048 q 418 1023 418 1043 q 417 1015 418 1020 q 416 1008 416 1009 q 414 935 415 982 q 414 825 414 887 q 416 690 415 762 q 419 543 418 617 q 422 397 420 469 q 425 262 425 324 q 425 151 426 199 q 423 79 425 103 q 382 31 408 47 q 325 7 355 15 q 262 -1 294 0 q 201 -3 229 -3 q 57 51 110 -3 q 4 197 4 104 m 58 233 q 64 166 58 199 q 83 107 69 133 q 121 66 96 81 q 183 50 145 50 q 239 50 206 50 q 301 58 271 50 q 351 81 331 65 q 372 127 372 98 q 361 208 372 163 q 330 295 351 254 q 277 366 309 336 q 202 395 245 395 q 148 380 174 395 q 102 342 122 365 q 71 290 83 319 q 58 233 58 262 m 472 937 q 483 954 472 944 q 499 963 494 963 q 543 905 533 941 q 552 831 552 869 q 553 812 552 823 q 552 789 553 800 q 545 768 551 777 q 525 754 538 758 q 505 784 514 758 q 488 841 495 810 q 476 901 480 872 q 472 937 472 929 z "},"":{"ha":730,"x_min":-39,"x_max":704,"o":"m -30 388 l 75 388 l 52 677 q 45 686 49 680 q 37 702 41 693 q 29 718 33 711 q 26 730 26 726 q 37 749 26 742 q 61 757 47 755 q 87 758 75 758 q 103 758 100 758 q 115 758 107 758 q 131 756 122 757 q 146 755 140 755 q 156 754 153 754 q 258 716 201 738 q 377 666 316 694 q 496 602 438 637 q 601 520 555 566 q 675 420 647 475 q 704 300 704 366 q 682 197 704 243 q 625 119 661 152 q 541 62 589 85 q 444 24 494 38 q 345 3 395 9 q 251 -4 294 -4 q 218 -3 241 -4 q 171 -1 195 -3 q 127 1 146 0 q 106 1 107 1 l 103 52 l 80 326 l 68 326 q 5 330 34 327 q -39 343 -23 334 l -30 388 m 129 684 l 129 673 q 130 654 129 665 q 130 636 130 644 l 130 624 q 134 559 132 604 q 137 457 136 514 q 140 389 140 425 l 296 392 l 296 334 q 262 336 286 336 q 206 332 237 335 q 144 328 178 331 q 148 220 146 271 q 154 119 152 164 q 156 52 156 73 q 182 51 164 52 q 221 50 201 50 q 260 48 241 49 q 286 47 278 47 q 410 63 349 47 q 519 111 471 79 q 597 193 567 142 q 628 316 628 244 q 604 417 628 369 q 539 506 579 465 q 448 579 499 547 q 341 635 396 612 q 231 671 286 659 q 129 684 176 684 z "},"":{"ha":453,"x_min":4,"x_max":549,"o":"m 259 685 q 279 691 260 686 q 330 701 298 696 q 368 708 347 704 l 363 1035 q 409 1046 400 1048 q 418 1023 418 1043 q 417 1015 418 1020 q 416 1008 416 1009 q 414 935 415 982 q 414 823 414 887 q 416 715 415 773 q 477 724 446 720 q 492 725 481 724 q 513 726 502 726 q 535 728 525 727 q 549 728 545 728 q 545 694 549 709 q 529 671 540 680 q 476 663 507 669 q 416 652 449 658 l 419 543 q 422 397 420 469 q 425 262 425 324 q 425 151 426 199 q 423 79 425 103 q 382 31 408 47 q 325 7 355 15 q 262 -1 294 0 q 201 -3 229 -3 q 57 51 110 -3 q 4 197 4 104 q 16 277 4 233 q 52 359 28 321 q 107 420 75 396 q 183 445 140 445 q 241 439 216 445 q 288 418 266 433 q 330 385 311 404 q 372 339 350 365 l 368 644 q 346 642 357 644 q 293 633 315 636 q 285 633 292 633 q 274 632 278 632 q 256 635 263 632 q 241 661 248 637 l 259 685 m 58 233 q 64 166 58 199 q 83 107 69 133 q 121 66 96 81 q 183 50 145 50 q 239 50 206 50 q 301 58 271 50 q 351 81 331 65 q 372 127 372 98 q 361 208 372 163 q 330 295 351 254 q 277 366 309 336 q 202 395 245 395 q 148 380 174 395 q 102 342 122 365 q 71 290 83 319 q 58 233 58 262 z "},"":{"ha":684,"x_min":19,"x_max":658,"o":"m 19 730 q 77 783 41 761 q 157 821 113 806 q 252 844 201 836 q 351 856 302 852 q 446 861 400 860 q 528 863 492 863 q 540 862 530 863 q 560 861 549 861 q 580 860 571 860 q 593 860 589 860 q 587 819 598 830 q 557 805 575 807 q 518 806 538 803 q 488 807 498 810 q 446 800 475 806 q 381 786 416 793 q 306 770 346 779 q 230 753 266 761 q 165 739 194 746 q 123 730 137 732 q 99 709 102 722 q 96 681 96 697 q 100 617 96 652 q 108 547 103 582 q 117 484 113 513 q 123 442 122 456 q 144 441 129 441 q 164 441 159 441 q 225 446 195 441 q 285 458 255 452 q 346 470 315 465 q 410 475 377 475 l 410 425 q 372 422 396 425 q 318 415 347 420 q 259 404 289 410 q 205 391 229 397 q 165 377 180 384 q 149 363 149 370 l 149 81 q 276 85 213 81 q 403 94 339 90 q 530 103 467 99 q 658 107 594 107 q 647 81 658 91 q 622 64 636 71 q 591 56 608 58 q 567 52 575 53 q 533 47 562 50 q 463 39 505 45 q 369 28 420 34 q 267 18 317 23 q 172 7 217 12 q 98 0 127 3 q 85 -1 94 -1 q 74 366 85 180 q 19 730 62 551 m 104 1066 l 593 1070 l 593 1019 q 543 1021 579 1021 q 460 1019 507 1020 q 358 1015 412 1017 q 252 1013 304 1012 q 157 1016 201 1013 q 88 1028 114 1019 l 104 1066 z "},"":{"ha":457,"x_min":31,"x_max":435,"o":"m 35 319 q 53 409 35 359 q 101 501 71 458 q 170 573 132 544 q 251 602 209 602 q 296 593 274 602 q 340 568 319 583 q 378 532 361 552 q 404 491 395 513 q 414 449 414 469 q 403 414 415 429 l 117 361 q 107 348 111 359 q 100 319 103 336 q 96 280 98 301 q 92 239 94 259 q 91 204 91 220 q 91 180 91 189 q 109 119 91 142 q 156 83 127 95 q 220 66 184 71 q 292 62 256 62 q 358 65 327 62 q 410 68 389 68 q 406 56 410 62 q 396 43 401 49 q 385 32 391 37 q 378 26 380 27 q 345 18 368 23 q 298 9 323 14 q 251 3 273 5 q 221 0 229 0 q 148 1 179 -8 q 95 34 117 11 q 60 90 73 57 q 39 161 46 123 q 32 240 33 199 q 35 319 31 281 m 232 551 q 200 538 220 551 q 163 505 180 525 q 135 463 146 486 q 127 425 123 441 q 201 426 163 420 q 270 443 239 431 q 321 470 301 454 q 341 502 342 486 q 315 531 340 518 q 232 551 290 544 m 46 706 l 435 710 l 435 658 q 396 660 425 661 q 329 658 367 660 q 248 654 292 657 q 164 652 205 651 q 89 655 123 653 q 33 668 54 658 l 46 706 z "},"":{"ha":684,"x_min":19,"x_max":658,"o":"m 19 730 q 77 783 41 761 q 157 821 113 806 q 252 844 201 836 q 351 856 302 852 q 446 861 400 860 q 528 863 492 863 q 540 862 530 863 q 560 861 549 861 q 580 860 571 860 q 593 860 589 860 q 587 819 598 830 q 557 805 575 807 q 518 806 538 803 q 488 807 498 810 q 446 800 475 806 q 381 786 416 793 q 306 770 346 779 q 230 753 266 761 q 165 739 194 746 q 123 730 137 732 q 99 709 102 722 q 96 681 96 697 q 100 617 96 652 q 108 547 103 582 q 117 484 113 513 q 123 442 122 456 q 144 441 129 441 q 164 441 159 441 q 225 446 195 441 q 285 458 255 452 q 346 470 315 465 q 410 475 377 475 l 410 425 q 372 422 396 425 q 318 415 347 420 q 259 404 289 410 q 205 391 229 397 q 165 377 180 384 q 149 363 149 370 l 149 81 q 276 85 213 81 q 403 94 339 90 q 530 103 467 99 q 658 107 594 107 q 647 81 658 91 q 622 64 636 71 q 591 56 608 58 q 567 52 575 53 q 533 47 562 50 q 463 39 505 45 q 369 28 420 34 q 267 18 317 23 q 172 7 217 12 q 98 0 127 3 q 85 -1 94 -1 q 74 366 85 180 q 19 730 62 551 m 373 1051 q 380 1025 381 1040 q 380 996 380 1010 q 376 970 380 985 q 363 943 372 956 q 340 922 354 930 q 307 914 327 914 q 268 922 283 914 q 243 943 252 930 q 229 970 233 955 q 225 1000 225 986 q 227 1019 225 1008 q 231 1042 228 1031 l 258 1042 q 252 1025 254 1035 q 254 1000 250 1015 q 280 954 266 964 q 307 949 294 944 q 328 970 319 955 q 342 1004 336 986 q 338 1027 339 1016 q 331 1046 338 1039 l 373 1051 z "},"":{"ha":457,"x_min":31,"x_max":415,"o":"m 35 319 q 53 409 35 359 q 101 501 71 458 q 170 573 132 544 q 251 602 209 602 q 296 593 274 602 q 340 568 319 583 q 378 532 361 552 q 404 491 395 513 q 414 449 414 469 q 403 414 415 429 l 117 361 q 107 348 111 359 q 100 319 103 336 q 96 280 98 301 q 92 239 94 259 q 91 204 91 220 q 91 180 91 189 q 109 119 91 142 q 156 83 127 95 q 220 66 184 71 q 292 62 256 62 q 358 65 327 62 q 410 68 389 68 q 406 56 410 62 q 396 43 401 49 q 385 32 391 37 q 378 26 380 27 q 345 18 368 23 q 298 9 323 14 q 251 3 273 5 q 221 0 229 0 q 148 1 179 -8 q 95 34 117 11 q 60 90 73 57 q 39 161 46 123 q 32 240 33 199 q 35 319 31 281 m 232 551 q 200 538 220 551 q 163 505 180 525 q 135 463 146 486 q 127 425 123 441 q 201 426 163 420 q 270 443 239 431 q 321 470 301 454 q 341 502 342 486 q 315 531 340 518 q 232 551 290 544 m 277 830 q 284 804 285 819 q 283 774 283 789 q 279 749 283 764 q 267 722 275 735 q 244 701 258 709 q 210 693 231 693 q 172 701 187 693 q 146 722 156 709 q 133 749 137 734 q 129 779 129 765 q 130 798 129 787 q 134 821 132 810 l 161 821 q 155 804 157 814 q 157 779 153 793 q 184 733 170 743 q 210 728 198 723 q 231 749 222 734 q 245 783 240 765 q 242 806 243 795 q 235 825 241 818 l 277 830 z "},"":{"ha":684,"x_min":19,"x_max":658,"o":"m 19 730 q 77 783 41 761 q 157 821 113 806 q 252 844 201 836 q 351 856 302 852 q 446 861 400 860 q 528 863 492 863 q 540 862 530 863 q 560 861 549 861 q 580 860 571 860 q 593 860 589 860 q 587 819 598 830 q 557 805 575 807 q 518 806 538 803 q 488 807 498 810 q 446 800 475 806 q 381 786 416 793 q 306 770 346 779 q 230 753 266 761 q 165 739 194 746 q 123 730 137 732 q 99 709 102 722 q 96 681 96 697 q 100 617 96 652 q 108 547 103 582 q 117 484 113 513 q 123 442 122 456 q 144 441 129 441 q 164 441 159 441 q 225 446 195 441 q 285 458 255 452 q 346 470 315 465 q 410 475 377 475 l 410 425 q 372 422 396 425 q 318 415 347 420 q 259 404 289 410 q 205 391 229 397 q 165 377 180 384 q 149 363 149 370 l 149 81 q 276 85 213 81 q 403 94 339 90 q 530 103 467 99 q 658 107 594 107 q 647 81 658 91 q 622 64 636 71 q 591 56 608 58 q 567 52 575 53 q 533 47 562 50 q 463 39 505 45 q 369 28 420 34 q 267 18 317 23 q 172 7 217 12 q 98 0 127 3 q 85 -1 94 -1 q 74 366 85 180 q 19 730 62 551 m 300 947 q 298 981 296 967 q 306 1004 300 996 q 321 1017 312 1013 q 340 1020 331 1020 q 361 1017 351 1020 q 377 1005 370 1013 q 386 983 384 997 q 382 949 388 970 q 370 920 377 932 q 340 909 362 909 q 313 919 320 909 q 300 947 305 929 z "},"":{"ha":457,"x_min":31,"x_max":415,"o":"m 35 319 q 53 409 35 359 q 101 501 71 458 q 170 573 132 544 q 251 602 209 602 q 296 593 274 602 q 340 568 319 583 q 378 532 361 552 q 404 491 395 513 q 414 449 414 469 q 403 414 415 429 l 117 361 q 107 348 111 359 q 100 319 103 336 q 96 280 98 301 q 92 239 94 259 q 91 204 91 220 q 91 180 91 189 q 109 119 91 142 q 156 83 127 95 q 220 66 184 71 q 292 62 256 62 q 358 65 327 62 q 410 68 389 68 q 406 56 410 62 q 396 43 401 49 q 385 32 391 37 q 378 26 380 27 q 345 18 368 23 q 298 9 323 14 q 251 3 273 5 q 221 0 229 0 q 148 1 179 -8 q 95 34 117 11 q 60 90 73 57 q 39 161 46 123 q 32 240 33 199 q 35 319 31 281 m 232 551 q 200 538 220 551 q 163 505 180 525 q 135 463 146 486 q 127 425 123 441 q 201 426 163 420 q 270 443 239 431 q 321 470 301 454 q 341 502 342 486 q 315 531 340 518 q 232 551 290 544 m 194 692 q 192 726 190 712 q 200 749 194 741 q 216 762 206 758 q 235 765 225 765 q 255 762 245 765 q 271 750 264 758 q 280 728 278 742 q 277 694 282 715 q 264 665 271 677 q 235 654 256 654 q 207 664 214 654 q 194 692 199 674 z "},"":{"ha":684,"x_min":14,"x_max":652,"o":"m 578 -125 q 550 -133 571 -126 q 501 -146 529 -140 q 441 -157 473 -153 q 382 -154 408 -161 q 340 -127 357 -146 q 323 -68 323 -107 q 338 -1 323 -28 q 351 20 343 9 q 262 9 307 15 q 167 1 212 5 q 92 -7 122 -4 q 80 -8 88 -8 q 68 358 80 174 q 14 722 57 543 q 71 777 35 754 q 152 813 107 799 q 247 836 197 827 q 347 848 297 844 q 441 854 396 853 q 522 856 487 856 q 535 855 526 856 q 555 854 544 854 q 574 852 566 853 q 587 852 583 852 q 581 812 593 823 q 551 798 570 800 q 513 800 533 796 q 483 800 494 803 q 441 793 469 799 q 376 779 412 787 q 301 762 340 770 q 225 746 262 754 q 160 732 189 738 q 119 722 132 726 q 94 702 96 715 q 91 673 91 689 q 95 610 91 646 q 103 541 99 575 q 112 477 107 506 q 119 435 117 449 q 138 434 123 434 l 159 434 q 220 439 190 434 q 280 451 250 445 q 341 463 311 457 q 404 468 372 468 l 404 418 q 367 415 392 418 q 313 408 342 412 q 254 397 283 403 q 199 384 224 391 q 159 370 175 377 q 144 357 144 363 l 144 75 q 272 79 209 75 q 398 87 335 83 q 525 96 461 92 q 652 100 589 100 q 642 73 652 83 q 617 57 632 62 q 587 49 602 52 q 562 45 571 46 q 532 41 556 43 l 530 39 l 517 39 q 463 33 494 37 q 423 18 441 27 q 387 -18 400 4 q 373 -76 373 -41 q 391 -111 373 -103 q 436 -114 408 -118 q 500 -97 464 -110 q 575 -71 536 -84 l 578 -125 z "},"":{"ha":457,"x_min":31,"x_max":415,"o":"m 397 -178 q 367 -186 391 -179 q 313 -202 343 -194 q 248 -214 282 -210 q 184 -210 213 -217 q 138 -180 156 -202 q 119 -115 119 -159 q 136 -42 119 -72 q 165 -3 148 -19 q 148 1 156 -1 q 95 34 117 11 q 60 90 73 57 q 39 161 46 123 q 32 240 33 199 q 35 319 31 281 q 53 409 35 359 q 101 501 71 458 q 170 573 132 544 q 251 602 209 602 q 296 593 274 602 q 340 568 319 583 q 378 532 361 552 q 404 491 395 513 q 414 449 414 469 q 403 414 415 429 l 117 361 q 107 348 111 359 q 100 319 103 336 q 96 280 98 301 q 92 239 94 259 q 91 204 91 220 q 91 180 91 189 q 109 119 91 142 q 156 83 127 95 q 220 66 184 71 q 292 62 256 62 q 358 65 327 62 q 410 68 389 68 q 406 56 410 62 q 396 43 401 49 q 385 32 391 37 q 378 26 380 27 q 345 18 368 23 q 334 16 339 18 l 336 14 q 347 5 343 7 q 347 1 350 3 q 284 -3 315 1 q 229 -22 254 -8 q 189 -61 205 -37 q 174 -125 174 -85 q 193 -162 174 -153 q 242 -166 212 -171 q 312 -147 273 -161 q 393 -118 351 -133 l 397 -178 m 232 551 q 200 538 220 551 q 163 505 180 525 q 135 463 146 486 q 127 425 123 441 q 201 426 163 420 q 270 443 239 431 q 321 470 301 454 q 341 502 342 486 q 315 531 340 518 q 232 551 290 544 z "},"":{"ha":684,"x_min":19,"x_max":658,"o":"m 19 730 q 77 783 41 761 q 157 821 113 806 q 252 844 201 836 q 351 856 302 852 q 446 861 400 860 q 528 863 492 863 q 540 862 530 863 q 560 861 549 861 q 580 860 571 860 q 593 860 589 860 q 587 819 598 830 q 557 805 575 807 q 518 806 538 803 q 488 807 498 810 q 446 800 475 806 q 381 786 416 793 q 306 770 346 779 q 230 753 266 761 q 165 739 194 746 q 123 730 137 732 q 99 709 102 722 q 96 681 96 697 q 100 617 96 652 q 108 547 103 582 q 117 484 113 513 q 123 442 122 456 q 144 441 129 441 q 164 441 159 441 q 225 446 195 441 q 285 458 255 452 q 346 470 315 465 q 410 475 377 475 l 410 425 q 372 422 396 425 q 318 415 347 420 q 259 404 289 410 q 205 391 229 397 q 165 377 180 384 q 149 363 149 370 l 149 81 q 276 85 213 81 q 403 94 339 90 q 530 103 467 99 q 658 107 594 107 q 647 81 658 91 q 622 64 636 71 q 591 56 608 58 q 567 52 575 53 q 533 47 562 50 q 463 39 505 45 q 369 28 420 34 q 267 18 317 23 q 172 7 217 12 q 98 0 127 3 q 85 -1 94 -1 q 74 366 85 180 q 19 730 62 551 m 355 1024 q 390 1057 378 1044 q 411 1078 401 1069 q 431 1099 420 1088 q 461 1130 441 1109 q 482 1124 472 1126 q 500 1122 492 1123 q 512 1118 507 1120 q 517 1109 517 1116 q 477 1068 495 1089 q 441 1027 458 1047 q 405 989 425 1008 q 358 955 385 971 l 164 1114 l 206 1126 q 244 1100 227 1112 q 280 1076 262 1088 q 317 1053 298 1065 q 355 1024 335 1040 z "},"":{"ha":457,"x_min":31,"x_max":415,"o":"m 35 319 q 53 409 35 359 q 101 501 71 458 q 170 573 132 544 q 251 602 209 602 q 296 593 274 602 q 340 568 319 583 q 378 532 361 552 q 404 491 395 513 q 414 449 414 469 q 403 414 415 429 l 117 361 q 107 348 111 359 q 100 319 103 336 q 96 280 98 301 q 92 239 94 259 q 91 204 91 220 q 91 180 91 189 q 109 119 91 142 q 156 83 127 95 q 220 66 184 71 q 292 62 256 62 q 358 65 327 62 q 410 68 389 68 q 406 56 410 62 q 396 43 401 49 q 385 32 391 37 q 378 26 380 27 q 345 18 368 23 q 298 9 323 14 q 251 3 273 5 q 221 0 229 0 q 148 1 179 -8 q 95 34 117 11 q 60 90 73 57 q 39 161 46 123 q 32 240 33 199 q 35 319 31 281 m 232 551 q 200 538 220 551 q 163 505 180 525 q 135 463 146 486 q 127 425 123 441 q 201 426 163 420 q 270 443 239 431 q 321 470 301 454 q 341 502 342 486 q 315 531 340 518 q 232 551 290 544 m 243 815 q 277 848 266 836 q 298 869 289 860 q 318 890 308 879 q 349 921 328 901 q 370 916 359 917 q 387 913 380 914 q 399 909 395 911 q 404 901 404 907 q 364 859 382 880 q 329 819 346 838 q 292 781 312 799 q 245 746 273 762 l 52 905 l 94 917 q 132 891 114 903 q 168 867 149 879 q 204 844 186 856 q 243 815 222 831 z "},"":{"ha":762,"x_min":26,"x_max":731,"o":"m 651 90 q 557 46 598 62 q 479 21 517 30 q 402 9 441 12 q 313 7 363 7 q 194 22 247 7 q 104 70 141 38 q 46 151 66 102 q 26 271 26 201 q 39 406 26 335 q 77 546 52 476 q 139 680 102 616 q 227 793 176 745 q 339 871 277 842 q 477 901 401 901 q 545 895 506 901 q 621 874 585 888 q 681 833 656 860 q 705 766 705 807 q 691 752 705 751 q 656 762 677 753 q 608 787 635 772 q 557 815 582 802 q 513 838 533 829 q 481 845 492 848 q 363 820 416 845 q 268 753 311 795 q 193 656 225 711 q 140 541 161 601 q 109 422 119 481 q 99 311 99 363 q 106 200 90 247 q 157 123 123 153 q 239 77 191 92 q 337 60 286 62 q 438 70 388 58 q 530 104 488 81 q 597 161 571 127 q 628 237 624 195 q 611 311 628 281 q 566 361 594 340 q 503 393 538 381 q 429 412 467 406 q 355 422 392 419 q 286 429 317 425 l 286 453 q 322 463 286 456 q 408 477 358 469 q 510 494 457 486 q 600 506 563 502 q 606 507 600 506 q 621 507 613 507 q 637 507 629 507 q 651 507 646 507 q 661 507 654 507 q 677 507 669 507 q 692 507 685 507 q 703 506 700 506 q 706 446 704 487 q 711 353 708 404 q 716 245 713 302 q 722 138 719 189 q 726 46 724 87 q 730 -15 728 5 q 730 -35 730 -20 q 730 -67 730 -50 q 731 -98 731 -84 q 731 -119 731 -113 l 703 -119 l 651 90 m 651 376 l 651 458 q 609 448 631 458 q 572 429 587 438 l 651 376 m 437 1142 q 401 1100 419 1119 q 368 1063 384 1081 q 334 1025 351 1044 q 298 983 317 1006 l 259 1004 l 441 1251 q 484 1198 465 1226 q 518 1138 502 1169 q 551 1074 534 1107 q 587 1009 567 1042 q 583 996 587 1000 q 572 991 579 993 q 555 987 564 989 q 536 979 547 985 q 508 1027 518 1009 q 490 1060 498 1044 q 470 1093 481 1076 q 437 1142 458 1111 z "},"":{"ha":481,"x_min":-165,"x_max":442,"o":"m -165 -321 q -153 -266 -165 -285 q -96 -247 -141 -247 q -106 -285 -100 -266 q -117 -320 -113 -304 q -121 -346 -122 -336 q -111 -353 -121 -355 q -16 -393 -68 -381 q 85 -406 35 -406 q 216 -374 161 -404 q 307 -297 271 -345 q 363 -188 343 -250 q 387 -60 382 -126 q 384 72 392 5 q 358 194 376 138 q 311 140 335 168 q 260 89 288 111 q 203 52 233 66 q 134 37 172 37 q 75 50 95 37 q 49 87 56 64 q 43 142 42 111 q 43 209 43 174 q 45 282 43 241 q 55 364 47 323 q 75 446 62 406 q 110 517 88 486 q 164 568 132 549 q 241 587 197 587 q 296 583 270 587 q 345 566 323 578 q 384 533 368 553 q 410 481 400 513 q 423 349 415 420 q 437 201 431 278 q 442 47 442 125 q 432 -102 442 -30 q 398 -237 422 -174 q 332 -348 374 -300 q 225 -425 289 -396 q 72 -457 161 -454 q -8 -452 34 -457 q -85 -433 -50 -448 q -143 -393 -121 -419 q -165 -321 -165 -366 m 95 209 q 94 175 95 194 q 95 137 92 156 q 106 104 98 118 q 136 90 115 91 q 196 104 168 90 q 246 145 224 119 q 286 203 269 171 q 314 269 302 235 q 332 334 326 302 q 338 391 338 366 q 338 442 342 416 q 323 488 335 468 q 290 522 311 509 q 241 534 270 534 q 184 516 209 534 q 144 469 160 498 q 118 405 127 441 q 104 333 109 369 q 97 264 99 297 q 95 209 95 231 m 255 917 q 220 875 237 894 q 186 838 202 856 q 153 800 170 819 q 117 758 136 781 l 77 779 l 259 1025 q 302 972 283 1001 q 336 913 320 944 q 369 849 353 882 q 406 784 385 817 q 401 771 406 774 q 390 766 397 768 q 374 762 382 764 q 354 754 365 760 q 326 802 336 784 q 308 835 316 819 q 288 868 300 850 q 255 917 277 886 z "},"":{"ha":762,"x_min":26,"x_max":731,"o":"m 651 90 q 557 46 598 62 q 479 21 517 30 q 402 9 441 12 q 313 7 363 7 q 194 22 247 7 q 104 70 141 38 q 46 151 66 102 q 26 271 26 201 q 39 406 26 335 q 77 546 52 476 q 139 680 102 616 q 227 793 176 745 q 339 871 277 842 q 477 901 401 901 q 545 895 506 901 q 621 874 585 888 q 681 833 656 860 q 705 766 705 807 q 691 752 705 751 q 656 762 677 753 q 608 787 635 772 q 557 815 582 802 q 513 838 533 829 q 481 845 492 848 q 363 820 416 845 q 268 753 311 795 q 193 656 225 711 q 140 541 161 601 q 109 422 119 481 q 99 311 99 363 q 106 200 90 247 q 157 123 123 153 q 239 77 191 92 q 337 60 286 62 q 438 70 388 58 q 530 104 488 81 q 597 161 571 127 q 628 237 624 195 q 611 311 628 281 q 566 361 594 340 q 503 393 538 381 q 429 412 467 406 q 355 422 392 419 q 286 429 317 425 l 286 453 q 322 463 286 456 q 408 477 358 469 q 510 494 457 486 q 600 506 563 502 q 606 507 600 506 q 621 507 613 507 q 637 507 629 507 q 651 507 646 507 q 661 507 654 507 q 677 507 669 507 q 692 507 685 507 q 703 506 700 506 q 706 446 704 487 q 711 353 708 404 q 716 245 713 302 q 722 138 719 189 q 726 46 724 87 q 730 -15 728 5 q 730 -35 730 -20 q 730 -67 730 -50 q 731 -98 731 -84 q 731 -119 731 -113 l 703 -119 l 651 90 m 651 376 l 651 458 q 609 448 631 458 q 572 429 587 438 l 651 376 m 445 1104 q 452 1078 453 1093 q 452 1048 452 1063 q 448 1023 452 1038 q 435 996 444 1009 q 412 975 426 983 q 378 967 399 967 q 340 975 355 967 q 315 996 324 983 q 301 1023 305 1008 q 297 1053 297 1039 q 298 1072 297 1061 q 302 1095 300 1084 l 330 1095 q 323 1078 326 1088 q 326 1053 321 1067 q 352 1007 338 1017 q 378 1002 366 997 q 399 1023 391 1008 q 414 1057 408 1039 q 410 1080 411 1069 q 403 1099 410 1092 l 445 1104 z "},"":{"ha":481,"x_min":-165,"x_max":442,"o":"m -165 -321 q -153 -266 -165 -285 q -96 -247 -141 -247 q -106 -285 -100 -266 q -117 -320 -113 -304 q -121 -346 -122 -336 q -111 -353 -121 -355 q -16 -393 -68 -381 q 85 -406 35 -406 q 216 -374 161 -404 q 307 -297 271 -345 q 363 -188 343 -250 q 387 -60 382 -126 q 384 72 392 5 q 358 194 376 138 q 311 140 335 168 q 260 89 288 111 q 203 52 233 66 q 134 37 172 37 q 75 50 95 37 q 49 87 56 64 q 43 142 42 111 q 43 209 43 174 q 45 282 43 241 q 55 364 47 323 q 75 446 62 406 q 110 517 88 486 q 164 568 132 549 q 241 587 197 587 q 296 583 270 587 q 345 566 323 578 q 384 533 368 553 q 410 481 400 513 q 423 349 415 420 q 437 201 431 278 q 442 47 442 125 q 432 -102 442 -30 q 398 -237 422 -174 q 332 -348 374 -300 q 225 -425 289 -396 q 72 -457 161 -454 q -8 -452 34 -457 q -85 -433 -50 -448 q -143 -393 -121 -419 q -165 -321 -165 -366 m 95 209 q 94 175 95 194 q 95 137 92 156 q 106 104 98 118 q 136 90 115 91 q 196 104 168 90 q 246 145 224 119 q 286 203 269 171 q 314 269 302 235 q 332 334 326 302 q 338 391 338 366 q 338 442 342 416 q 323 488 335 468 q 290 522 311 509 q 241 534 270 534 q 184 516 209 534 q 144 469 160 498 q 118 405 127 441 q 104 333 109 369 q 97 264 99 297 q 95 209 95 231 m 317 810 q 325 784 326 799 q 324 754 324 769 q 320 729 324 743 q 307 702 316 715 q 285 681 298 689 q 251 673 271 673 q 212 681 228 673 q 187 701 197 689 q 174 729 178 713 q 170 758 170 745 q 171 778 170 766 q 175 800 172 789 l 202 800 q 196 783 198 793 q 198 758 194 773 q 224 713 210 723 q 251 708 239 703 q 272 729 263 713 q 286 762 281 745 q 283 786 283 774 q 275 804 282 798 l 317 810 z "},"":{"ha":762,"x_min":26,"x_max":731,"o":"m 651 90 q 557 46 598 62 q 479 21 517 30 q 402 9 441 12 q 313 7 363 7 q 194 22 247 7 q 104 70 141 38 q 46 151 66 102 q 26 271 26 201 q 39 406 26 335 q 77 546 52 476 q 139 680 102 616 q 227 793 176 745 q 339 871 277 842 q 477 901 401 901 q 545 895 506 901 q 621 874 585 888 q 681 833 656 860 q 705 766 705 807 q 691 752 705 751 q 656 762 677 753 q 608 787 635 772 q 557 815 582 802 q 513 838 533 829 q 481 845 492 848 q 363 820 416 845 q 268 753 311 795 q 193 656 225 711 q 140 541 161 601 q 109 422 119 481 q 99 311 99 363 q 106 200 90 247 q 157 123 123 153 q 239 77 191 92 q 337 60 286 62 q 438 70 388 58 q 530 104 488 81 q 597 161 571 127 q 628 237 624 195 q 611 311 628 281 q 566 361 594 340 q 503 393 538 381 q 429 412 467 406 q 355 422 392 419 q 286 429 317 425 l 286 453 q 322 463 286 456 q 408 477 358 469 q 510 494 457 486 q 600 506 563 502 q 606 507 600 506 q 621 507 613 507 q 637 507 629 507 q 651 507 646 507 q 661 507 654 507 q 677 507 669 507 q 692 507 685 507 q 703 506 700 506 q 706 446 704 487 q 711 353 708 404 q 716 245 713 302 q 722 138 719 189 q 726 46 724 87 q 730 -15 728 5 q 730 -35 730 -20 q 730 -67 730 -50 q 731 -98 731 -84 q 731 -119 731 -113 l 703 -119 l 651 90 m 651 376 l 651 458 q 609 448 631 458 q 572 429 587 438 l 651 376 m 338 947 q 336 981 334 967 q 344 1004 338 996 q 359 1017 350 1013 q 378 1020 369 1020 q 399 1017 389 1020 q 415 1005 408 1013 q 424 983 422 997 q 420 949 426 970 q 408 920 415 932 q 378 909 400 909 q 351 919 358 909 q 338 947 343 929 z "},"":{"ha":481,"x_min":-165,"x_max":442,"o":"m -165 -321 q -153 -266 -165 -285 q -96 -247 -141 -247 q -106 -285 -100 -266 q -117 -320 -113 -304 q -121 -346 -122 -336 q -111 -353 -121 -355 q -16 -393 -68 -381 q 85 -406 35 -406 q 216 -374 161 -404 q 307 -297 271 -345 q 363 -188 343 -250 q 387 -60 382 -126 q 384 72 392 5 q 358 194 376 138 q 311 140 335 168 q 260 89 288 111 q 203 52 233 66 q 134 37 172 37 q 75 50 95 37 q 49 87 56 64 q 43 142 42 111 q 43 209 43 174 q 45 282 43 241 q 55 364 47 323 q 75 446 62 406 q 110 517 88 486 q 164 568 132 549 q 241 587 197 587 q 296 583 270 587 q 345 566 323 578 q 384 533 368 553 q 410 481 400 513 q 423 349 415 420 q 437 201 431 278 q 442 47 442 125 q 432 -102 442 -30 q 398 -237 422 -174 q 332 -348 374 -300 q 225 -425 289 -396 q 72 -457 161 -454 q -8 -452 34 -457 q -85 -433 -50 -448 q -143 -393 -121 -419 q -165 -321 -165 -366 m 95 209 q 94 175 95 194 q 95 137 92 156 q 106 104 98 118 q 136 90 115 91 q 196 104 168 90 q 246 145 224 119 q 286 203 269 171 q 314 269 302 235 q 332 334 326 302 q 338 391 338 366 q 338 442 342 416 q 323 488 335 468 q 290 522 311 509 q 241 534 270 534 q 184 516 209 534 q 144 469 160 498 q 118 405 127 441 q 104 333 109 369 q 97 264 99 297 q 95 209 95 231 m 198 692 q 196 726 194 712 q 204 749 198 741 q 220 762 210 758 q 239 765 229 765 q 259 762 250 765 q 275 750 269 758 q 284 728 282 742 q 281 694 286 715 q 268 665 275 677 q 239 654 260 654 q 211 664 218 654 q 198 692 203 674 z "}}}
